<?xml version="1.0" standalone="no"?>
<!DOCTYPE svg PUBLIC "-//W3C//DTD SVG 20010904//EN"
 "http://www.w3.org/TR/2001/REC-SVG-20010904/DTD/svg10.dtd">
<svg version="1.0" xmlns="http://www.w3.org/2000/svg"
 width="1321.000000pt" height="1705.000000pt" viewBox="0 0 1321.000000 1705.000000"
 preserveAspectRatio="xMidYMid meet">

<g transform="translate(0.000000,1705.000000) scale(0.100000,-0.100000)"
fill="#000000" stroke="none">
<path d="M6215 17033 c-49 -1 -196 -10 -325 -18 -683 -45 -1128 -122 -1557
-269 -296 -102 -523 -215 -1003 -503 -184 -110 -418 -246 -520 -303 -302 -168
-396 -236 -545 -391 -177 -186 -299 -409 -365 -669 -46 -180 -53 -265 -55
-670 -1 -349 -4 -396 -23 -504 -29 -155 -55 -243 -102 -336 -48 -95 -75 -185
-100 -324 -125 -705 -65 -2174 114 -2806 13 -47 44 -155 69 -240 80 -277 95
-438 46 -517 -12 -18 -42 -45 -68 -58 l-46 -25 68 2 c37 0 73 -4 78 -9 6 -6
13 -30 16 -54 2 -24 12 -62 20 -84 10 -27 18 -104 24 -235 5 -107 14 -235 20
-285 5 -49 12 -160 15 -245 2 -85 7 -169 10 -186 3 -18 1 -34 -5 -38 -16 -10
-14 -133 2 -140 8 -3 6 -9 -7 -20 -28 -23 -38 -20 -35 12 2 15 0 32 -3 37 -3
6 -9 28 -13 50 -4 22 -10 44 -13 50 -4 5 -5 22 -4 36 2 16 -3 29 -12 32 -10 4
-16 28 -21 74 -3 37 -15 88 -25 113 -10 25 -21 64 -23 88 -3 24 -16 67 -30 95
-14 29 -28 63 -32 77 -29 100 -192 301 -255 315 -106 23 -84 -71 40 -165 127
-97 207 -212 224 -319 8 -50 23 -84 35 -77 5 3 11 -18 15 -47 17 -131 23 -158
42 -171 17 -13 19 -28 19 -143 1 -98 5 -141 19 -183 10 -30 20 -60 22 -66 6
-26 371 -24 381 1 6 17 -16 98 -30 107 -5 3 -13 45 -17 93 -4 48 -12 90 -17
93 -6 4 -14 39 -18 77 -4 39 -11 73 -17 76 -5 3 -14 53 -19 110 -5 57 -13 113
-18 124 -6 11 -12 52 -16 90 -3 39 -8 102 -11 140 -4 39 -10 75 -14 80 -4 6
-13 132 -19 280 -7 149 -17 283 -23 298 -22 56 14 686 46 816 8 31 17 103 21
161 3 57 12 118 20 135 7 16 19 70 25 120 6 49 16 95 21 102 6 6 16 49 24 95
7 46 20 99 28 118 8 19 18 73 22 118 3 46 13 103 21 125 8 23 19 105 25 182 5
77 16 158 23 180 8 22 20 92 26 155 7 63 18 137 25 165 7 27 16 79 20 115 3
36 17 99 30 140 55 173 75 246 75 264 0 11 11 38 24 60 13 23 26 54 30 70 4
16 16 41 27 54 10 14 19 35 19 47 0 12 9 33 19 46 10 14 26 40 35 59 10 19 29
56 44 81 15 25 35 61 46 80 10 19 35 54 55 79 21 25 52 67 70 93 44 65 222
239 269 263 20 10 56 35 78 54 23 19 52 40 65 47 124 58 218 99 284 123 28 10
68 24 90 33 75 28 270 66 393 76 68 6 158 18 200 27 99 21 490 14 592 -10 36
-8 124 -18 195 -21 72 -4 195 -15 275 -26 80 -11 201 -24 270 -29 69 -5 172
-15 230 -22 268 -31 1791 1 1965 42 109 25 1045 39 1165 16 14 -2 69 -7 122
-11 54 -3 110 -13 126 -21 17 -8 72 -18 123 -24 60 -5 108 -16 134 -29 21 -12
53 -21 70 -21 16 0 48 -11 70 -25 22 -13 51 -25 65 -25 14 0 44 -9 65 -21 22
-11 64 -29 93 -40 94 -36 236 -144 357 -271 97 -101 209 -266 291 -430 13 -25
28 -49 34 -53 5 -3 10 -14 10 -24 0 -10 11 -38 24 -63 13 -25 27 -60 31 -79 4
-19 15 -50 25 -69 23 -44 68 -188 76 -243 4 -23 13 -52 20 -65 8 -12 21 -64
29 -115 8 -50 22 -117 30 -147 8 -30 15 -70 15 -90 0 -47 25 -188 39 -223 6
-16 11 -58 11 -95 0 -87 18 -243 30 -257 5 -5 14 -60 20 -120 7 -61 18 -119
25 -131 7 -11 18 -58 23 -105 6 -46 18 -100 26 -120 8 -20 19 -79 25 -132 5
-53 14 -105 20 -115 6 -11 15 -69 21 -129 5 -59 14 -124 20 -143 5 -19 10 -54
10 -77 0 -23 5 -45 10 -48 6 -4 9 -30 8 -58 -1 -29 4 -149 11 -267 14 -220 10
-496 -8 -554 -6 -17 -15 -139 -22 -271 -6 -132 -15 -244 -19 -250 -4 -5 -10
-45 -13 -87 -3 -43 -9 -83 -13 -90 -5 -7 -7 -37 -6 -65 1 -29 -2 -53 -7 -53
-5 0 -12 -33 -16 -72 -4 -40 -12 -79 -18 -86 -6 -7 -14 -39 -18 -70 -4 -31
-13 -58 -18 -60 -6 -2 -11 -29 -11 -61 0 -36 -7 -70 -19 -94 -10 -20 -22 -52
-25 -71 -6 -33 -5 -35 26 -40 43 -7 182 -11 279 -8 l76 2 7 46 c3 26 12 54 19
62 8 10 12 56 12 145 0 123 1 130 21 138 25 9 34 45 34 142 0 64 3 73 25 92
18 14 28 36 35 77 21 114 108 234 248 342 95 72 120 146 49 146 -44 0 -112
-46 -157 -105 -19 -25 -45 -59 -57 -74 -13 -16 -23 -33 -23 -38 0 -5 -11 -24
-25 -43 -14 -19 -25 -43 -25 -54 0 -12 -6 -31 -13 -42 -6 -12 -20 -35 -29 -52
-10 -16 -22 -54 -27 -83 -5 -30 -16 -79 -25 -111 -8 -31 -16 -73 -17 -95 -1
-21 -8 -48 -16 -60 -7 -12 -13 -38 -13 -58 0 -19 -4 -35 -8 -35 -5 0 -14 -25
-21 -55 -14 -61 -25 -69 -36 -27 -7 28 -8 560 0 571 2 4 9 83 14 177 17 262
19 283 45 383 27 108 29 109 122 110 76 1 102 22 52 41 -129 48 -148 67 -148
144 0 65 27 176 95 396 30 96 65 222 79 280 51 218 98 557 128 935 18 220 18
1159 0 1355 -39 425 -89 658 -172 790 -59 94 -135 253 -165 345 -16 48 -30
124 -36 190 -17 184 -57 301 -118 344 -67 48 -108 182 -121 397 -20 321 -109
521 -357 806 -98 113 -290 300 -448 436 -982 846 -2271 1228 -3970 1175z"/>
<path d="M3775 11119 c-190 -18 -332 -85 -511 -239 -169 -146 -213 -247 -135
-307 36 -28 108 -6 316 98 70 35 102 44 240 66 151 23 168 24 300 13 77 -6
205 -15 285 -21 80 -5 183 -18 230 -28 47 -11 117 -22 156 -25 38 -3 92 -13
120 -21 27 -8 69 -15 94 -15 25 0 83 -7 130 -15 179 -32 265 -16 328 61 103
125 25 266 -164 294 -38 5 -91 16 -117 25 -27 8 -99 21 -160 29 -62 8 -133 20
-159 25 -57 13 -362 49 -523 61 -142 11 -305 11 -430 -1z"/>
<path d="M9005 11124 c-109 -7 -481 -51 -575 -69 -41 -8 -102 -17 -135 -20
-33 -4 -105 -17 -160 -30 -55 -13 -121 -26 -146 -30 -57 -7 -154 -66 -174
-105 -20 -39 -19 -86 4 -136 20 -44 92 -111 128 -120 45 -12 397 22 471 45 18
5 65 13 105 16 40 3 110 15 157 25 47 11 153 24 235 30 83 5 209 15 282 21
120 10 145 9 279 -11 159 -24 194 -33 281 -79 116 -61 196 -94 238 -99 59 -6
95 27 95 88 0 48 -17 74 -100 159 -142 145 -298 247 -435 284 -107 29 -344 42
-550 31z"/>
<path d="M4010 9819 c-47 -4 -114 -17 -150 -28 -36 -11 -92 -27 -125 -36 -33
-10 -89 -32 -126 -51 -36 -19 -72 -34 -80 -34 -8 0 -30 -11 -49 -25 -19 -14
-44 -25 -56 -25 -12 0 -32 -9 -45 -19 -14 -10 -41 -26 -62 -34 -20 -9 -37 -21
-37 -26 0 -6 -17 -19 -38 -30 -40 -21 -162 -132 -162 -149 0 -5 -14 -27 -31
-48 -31 -39 -31 -40 -25 -124 6 -81 8 -86 42 -118 19 -18 40 -32 47 -29 7 2
19 19 29 38 26 53 271 285 338 319 20 10 42 26 49 34 8 9 19 16 26 16 8 0 27
11 43 25 21 17 42 25 68 25 60 0 69 -11 45 -51 -12 -19 -21 -42 -21 -52 0 -10
-12 -45 -26 -79 -25 -60 -26 -67 -22 -233 2 -139 6 -176 20 -196 9 -14 22 -46
28 -70 7 -24 24 -63 38 -87 83 -133 136 -175 237 -187 33 -3 83 -14 110 -23
39 -13 86 -17 215 -17 184 1 215 6 223 35 3 11 16 24 29 29 12 5 88 52 167
105 79 53 148 96 155 96 6 0 22 -7 35 -16 20 -15 22 -23 19 -83 -2 -53 0 -66
12 -66 8 0 21 12 28 28 7 15 17 27 22 27 5 0 17 15 26 33 9 17 24 41 34 52 10
11 23 39 30 63 6 23 19 57 30 75 15 25 21 61 26 165 4 72 11 132 16 132 29 0
108 -47 140 -83 20 -23 61 -71 92 -107 31 -36 64 -74 74 -85 10 -11 21 -28 25
-37 5 -14 65 -48 84 -48 21 0 -59 220 -105 288 -10 15 -34 50 -52 77 -48 71
-279 299 -382 376 -293 218 -601 297 -1008 258z m153 -253 c18 -7 46 -28 62
-45 28 -31 30 -37 29 -112 l-1 -81 -41 -39 c-41 -38 -44 -39 -114 -39 -62 0
-77 4 -110 26 -21 15 -41 37 -44 50 -3 13 -12 28 -20 35 -21 17 -17 55 11 114
28 60 38 70 91 89 50 19 97 19 137 2z"/>
<path d="M8790 9820 c-175 -17 -397 -101 -563 -212 -136 -92 -372 -315 -444
-420 -53 -75 -93 -141 -93 -150 0 -5 -14 -38 -30 -73 -17 -36 -33 -85 -36
-109 l-6 -44 28 5 c39 7 52 19 59 53 4 18 42 64 106 126 54 54 101 106 105
116 3 10 32 31 64 47 48 22 60 25 65 13 3 -7 5 -64 5 -125 0 -89 4 -121 20
-155 11 -24 24 -60 30 -82 20 -74 166 -276 216 -299 44 -20 175 -24 371 -12
192 12 216 17 221 41 2 8 10 20 19 25 9 6 79 52 156 103 148 98 180 112 217
92 21 -11 22 -17 18 -81 -5 -67 -5 -69 18 -69 16 0 28 9 38 28 8 15 23 36 35
46 12 11 21 24 21 31 0 7 8 20 19 29 10 9 24 38 31 64 7 26 22 63 34 82 19 32
21 50 21 215 0 191 -3 209 -66 340 -10 22 -19 43 -19 48 0 15 73 6 104 -12 17
-10 41 -22 53 -25 12 -4 59 -32 105 -62 86 -57 308 -267 334 -316 18 -35 36
-35 76 0 30 27 32 34 36 113 4 82 3 85 -27 123 -17 21 -31 43 -31 49 0 15
-132 135 -167 152 -18 9 -33 20 -33 26 0 5 -20 18 -44 29 -24 10 -47 23 -50
29 -4 6 -26 15 -49 22 -23 6 -51 19 -62 29 -11 9 -33 20 -50 24 -16 4 -55 20
-86 36 -53 28 -156 60 -304 95 -76 18 -341 27 -465 15z m-163 -335 c12 -22 22
-53 22 -69 1 -41 -34 -110 -72 -142 -28 -24 -37 -26 -106 -22 -73 3 -78 5
-118 43 -32 30 -43 48 -43 70 0 44 21 77 55 89 17 6 41 19 55 28 14 9 48 20
75 23 28 4 57 11 65 16 26 15 44 5 67 -36z"/>
<path d="M4820 8530 c-13 -9 -13 -11 -1 -19 18 -12 41 -3 41 15 0 16 -18 18
-40 4z"/>
<path d="M10826 7414 c-11 -44 -56 -136 -82 -167 -18 -22 -24 -41 -24 -78 0
-63 -9 -80 -78 -151 -52 -54 -61 -77 -16 -43 32 24 36 18 28 -51 -4 -46 -3
-65 4 -60 6 3 13 19 17 35 3 17 30 63 58 103 46 65 52 80 58 141 5 54 12 76
37 110 17 23 36 41 41 40 14 -4 15 -11 -13 76 -21 67 -24 71 -30 45z"/>
<path d="M6707 7378 c-15 -11 -20 -60 -43 -377 -22 -306 -24 -366 -12 -377 13
-13 429 -46 1543 -119 283 -19 398 -30 419 -41 21 -11 32 -12 42 -3 13 10 64
8 588 -31 187 -14 214 -13 225 8 5 10 19 157 30 327 12 171 23 329 27 352 10
77 16 76 -376 101 -190 13 -355 25 -367 28 -13 2 -23 11 -23 19 0 11 -13 15
-55 15 -30 0 -55 -4 -55 -10 0 -5 -20 -10 -45 -10 -45 0 -1707 114 -1820 125
-41 4 -65 2 -78 -7z m2035 -113 c3 -3 -5 -41 -18 -83 -13 -42 -24 -78 -24 -80
0 -1 11 0 25 4 28 7 30 0 10 -36 -20 -35 -20 -57 0 -40 14 11 22 7 56 -26 22
-21 52 -63 66 -93 l27 -54 -22 -17 c-12 -10 -44 -24 -72 -31 -58 -15 -57 -11
-36 -139 l14 -85 -26 -27 c-14 -16 -29 -28 -34 -28 -4 0 -8 52 -8 115 0 63 -4
115 -9 115 -10 0 -21 -106 -21 -201 0 -50 -4 -70 -18 -82 -16 -15 -19 -15 -29
3 -9 14 -9 41 -1 112 14 124 15 162 3 168 -6 3 -15 -37 -22 -100 -7 -58 -14
-111 -15 -119 -2 -9 -14 0 -32 23 l-29 38 31 100 30 99 -60 30 c-32 16 -61 36
-65 45 -9 24 17 71 62 113 70 65 79 67 112 26 15 -19 31 -35 36 -35 4 0 7 16
7 36 0 32 -2 35 -16 24 -14 -12 -15 -2 -13 101 0 63 3 117 6 122 5 8 77 10 85
2z m-1816 -56 c9 -7 10 -18 4 -34 -5 -13 -8 -36 -8 -51 1 -41 -12 -114 -21
-114 -4 0 -11 4 -16 9 -6 5 -23 11 -40 13 l-30 3 2 83 c2 113 4 116 55 108 23
-4 48 -12 54 -17z m144 -9 c20 -5 45 -17 55 -26 19 -14 18 -15 -18 -9 -27 4
-37 3 -32 -4 3 -6 24 -11 45 -11 36 0 41 -4 66 -46 22 -37 27 -59 28 -116 1
-64 -1 -72 -26 -93 -15 -13 -24 -26 -21 -29 10 -9 -29 -46 -69 -67 -24 -12
-58 -19 -96 -19 -66 0 -73 8 -64 69 l5 34 78 -7 c107 -9 123 -4 126 39 3 30 0
35 -20 36 -21 0 -21 1 3 11 18 8 20 12 10 15 -16 4 -43 73 -29 73 5 0 9 -4 9
-10 0 -5 5 -10 10 -10 22 0 8 19 -21 29 -18 6 -37 18 -43 26 -6 8 -31 19 -56
23 l-45 8 -2 47 -2 47 37 0 c20 0 53 -5 72 -10z m232 -56 c-3 -26 -7 -32 -17
-24 -6 5 -15 7 -18 3 -4 -3 -7 -1 -7 5 0 7 5 12 11 12 6 0 9 8 7 18 -3 12 1
18 11 19 13 1 16 -6 13 -33z m45 19 c5 -10 6 -43 2 -73 l-6 -55 -1 67 c-1 42
-7 68 -14 71 -10 4 -10 6 -1 6 7 1 16 -7 20 -16z m177 1 c8 -3 12 -12 9 -20
-4 -10 2 -17 16 -21 11 -3 21 -10 21 -15 0 -6 -7 -7 -16 -4 -8 3 -25 1 -36 -5
-15 -8 -22 -8 -28 1 -5 9 -9 9 -14 1 -4 -6 -16 -11 -27 -11 -16 0 -19 5 -14
20 4 11 2 20 -4 20 -6 0 -11 5 -11 11 0 6 7 8 16 5 12 -4 15 -2 10 9 -4 12 2
15 28 15 19 0 41 -3 50 -6z m156 -20 c11 -13 10 -16 -8 -20 -11 -4 -23 -12
-26 -20 -3 -8 -10 -14 -16 -14 -13 0 -32 48 -24 61 9 15 60 10 74 -7z m112 -5
c3 -8 10 -8 25 2 32 19 78 2 79 -31 1 -14 -3 -31 -8 -37 -14 -17 -63 -16 -80
0 -7 8 -26 17 -41 21 -20 5 -27 12 -27 31 0 20 5 25 24 25 13 0 26 -5 28 -11z
m348 -26 c0 -48 -10 -68 -40 -81 -18 -8 -27 -19 -24 -27 4 -9 0 -12 -14 -9
-22 6 -43 -33 -44 -83 -1 -32 36 -103 54 -103 31 0 50 -65 29 -99 -14 -23 -82
4 -124 48 -69 73 -84 164 -41 254 35 76 101 123 177 126 23 1 27 -3 27 -26z
m115 7 c26 -10 75 -59 75 -76 0 -19 -40 -54 -62 -54 -10 0 -28 9 -40 20 -12
11 -28 20 -35 20 -9 0 -13 15 -13 48 0 67 3 69 75 42z m284 -31 l23 -51 -45
-46 c-52 -55 -67 -81 -67 -117 0 -21 -4 -26 -16 -21 -9 3 -38 6 -65 6 l-50 0
7 38 c10 59 38 116 80 162 35 38 90 81 104 80 3 -1 16 -24 29 -51z m374 -21
c51 -53 78 -116 84 -193 l5 -60 -58 5 c-43 4 -58 9 -56 19 5 24 -20 85 -55
134 l-34 48 28 45 c15 24 32 44 37 44 5 0 27 -19 49 -42z m-1622 -73 c-2 -66
0 -86 9 -80 7 4 10 18 7 31 -2 14 0 27 4 30 5 3 9 -3 9 -13 0 -15 2 -16 11 -3
7 11 9 -13 4 -85 -4 -55 -9 -103 -11 -107 -8 -13 -61 -9 -73 6 -13 16 -4 209
10 201 4 -3 10 -1 14 5 3 5 1 10 -4 10 -6 0 -11 21 -11 49 0 41 3 49 18 47 15
-3 17 -13 13 -91z m389 45 c0 -27 -5 -52 -11 -56 -8 -5 -8 -9 1 -14 9 -6 10
-16 3 -36 -5 -16 -8 -46 -7 -67 1 -20 -2 -40 -7 -43 -5 -3 -9 -1 -9 4 0 5 -14
9 -30 10 -17 0 -28 -4 -24 -9 3 -5 10 -6 16 -3 7 4 8 -4 3 -26 -7 -30 -5 -31
19 -28 14 1 25 0 26 -4 0 -5 0 -12 0 -18 0 -5 -18 -10 -39 -10 l-40 0 6 153
c3 83 9 161 13 172 6 14 18 21 44 22 l36 2 0 -49z m1434 -52 c48 -43 56 -58
31 -58 -8 0 -15 -7 -15 -17 0 -14 2 -14 20 2 20 18 22 18 95 -55 41 -41 70
-77 64 -80 -17 -11 -21 -57 -4 -57 8 0 15 9 15 19 0 27 23 22 48 -12 21 -28
31 -98 15 -114 -4 -3 -24 10 -46 31 -21 21 -52 51 -69 67 -23 22 -27 31 -16
37 10 7 8 9 -7 9 -10 0 -38 19 -61 41 -23 23 -47 38 -53 35 -6 -4 -11 -28 -11
-54 0 -26 -3 -70 -6 -99 -7 -54 -22 -67 -64 -56 -18 5 -20 14 -20 83 0 107 10
170 26 170 8 0 14 5 14 11 0 6 -7 9 -15 5 -9 -3 -15 0 -15 8 0 9 7 12 19 9 15
-4 19 1 19 21 0 22 -4 26 -22 21 -19 -6 -20 -5 -3 8 18 15 24 33 7 22 -6 -4
-10 5 -10 19 0 36 11 33 64 -16z m-2267 14 c-22 -25 -21 -45 3 -67 11 -10 20
-24 20 -32 0 -7 -9 -13 -20 -13 -37 0 -21 -20 18 -22 36 -1 36 -1 5 -5 -30 -4
-31 -6 -21 -29 8 -17 18 -24 30 -21 11 3 18 0 18 -9 0 -12 -12 -14 -52 -12
-50 3 -53 5 -51 28 1 14 4 61 7 105 3 44 5 83 5 88 1 4 13 7 28 7 25 0 25 -1
10 -18z m2558 -71 c-4 -47 -12 -89 -18 -93 -9 -6 -8 -11 3 -17 21 -14 5 -25
-18 -12 -41 22 -52 55 -46 134 l7 74 39 0 40 0 -7 -86z m-1871 54 c-4 -9 0
-15 10 -15 10 0 16 -9 16 -25 0 -24 -2 -25 -62 -25 -88 0 -108 7 -106 36 3 27
3 27 28 14 11 -6 21 -6 24 -1 3 5 16 7 29 5 12 -2 16 -2 9 2 -20 9 -3 24 28
24 22 0 28 -4 24 -15z m-664 -15 c0 -5 -2 -10 -4 -10 -3 0 -8 5 -11 10 -3 6
-1 10 4 10 6 0 11 -4 11 -10z m963 -4 c6 -8 10 -7 14 2 6 15 30 16 35 0 2 -6
2 -24 0 -40 l-4 -29 -72 3 -71 3 -3 37 -3 36 48 0 c26 -1 52 -6 56 -12z m-703
-68 c0 -12 -16 -17 -38 -11 -18 4 -20 9 -11 24 8 16 13 17 29 6 11 -6 20 -15
20 -19z m-223 0 c-3 -8 -6 -5 -6 6 -1 11 2 17 5 13 3 -3 4 -12 1 -19z m597
-64 c46 -7 46 -7 46 -46 l0 -40 -75 5 c-41 3 -79 8 -83 11 -4 3 -6 21 -4 40 4
33 7 36 37 36 18 0 53 -3 79 -6z m784 -37 c31 -32 31 -34 15 -48 -35 -30 -71
-48 -106 -54 -30 -6 -38 -4 -43 10 -11 27 9 88 28 91 9 1 27 9 40 18 30 21 29
21 66 -17z m265 -244 c30 -33 13 -40 -38 -15 l-45 22 22 25 c20 23 23 24 31 8
6 -10 19 -28 30 -40z m243 3 c10 -22 8 -25 -26 -35 -60 -18 -66 -13 -30 24 19
19 36 35 39 35 4 0 11 -11 17 -24z"/>
<path d="M8554 6991 c-17 -10 -38 -35 -48 -55 -16 -34 -16 -39 -2 -60 16 -25
71 -41 100 -30 30 12 37 39 21 92 -20 66 -33 76 -71 53z"/>
<path d="M8730 6958 c-46 -77 -30 -128 40 -128 54 0 74 19 67 64 -7 46 -43 96
-68 96 -11 0 -28 -14 -39 -32z"/>
<path d="M8637 6854 c-21 -28 -16 -44 7 -25 11 9 20 10 35 2 30 -17 33 -14 16
19 -19 36 -34 37 -58 4z"/>
<path d="M7016 7174 c-4 -9 -4 -19 -1 -22 2 -3 7 3 11 12 4 9 4 19 1 22 -2 3
-7 -3 -11 -12z"/>
<path d="M9090 6886 c0 -2 7 -7 16 -10 8 -3 12 -2 9 4 -6 10 -25 14 -25 6z"/>
<path d="M11134 7234 c-27 -30 -48 -57 -45 -59 2 -3 -17 -32 -43 -66 -26 -33
-50 -67 -53 -75 -10 -26 -33 -15 -33 15 0 40 -17 48 -22 11 -3 -18 0 -31 9
-34 7 -3 13 -12 13 -19 0 -20 -59 -99 -69 -92 -5 2 -16 -14 -25 -36 -10 -23
-30 -61 -47 -85 -16 -23 -25 -45 -20 -48 4 -3 14 -33 20 -66 8 -40 23 -74 46
-105 58 -75 41 -99 -31 -46 -66 48 -127 130 -140 188 -15 68 -14 66 -35 47
-10 -9 -16 -20 -13 -25 2 -5 -5 -27 -16 -49 -21 -40 -40 -46 -40 -11 0 10 -6
24 -14 30 -8 6 -19 25 -26 42 -7 16 -15 28 -17 25 -2 -2 5 -22 16 -45 12 -22
21 -52 21 -66 0 -14 4 -24 9 -21 5 3 11 0 14 -7 6 -15 -10 -57 -21 -57 -5 0
-12 -18 -16 -39 -3 -22 -13 -46 -21 -55 -11 -10 -15 -36 -15 -87 0 -40 3 -69
7 -65 4 3 21 -24 39 -61 18 -38 40 -78 49 -90 16 -20 15 -23 -14 -49 -48 -42
-37 -82 12 -44 27 21 41 26 35 11 -7 -18 -101 -82 -113 -77 -8 3 -15 1 -17 -5
-3 -8 -69 27 -177 94 -75 46 -15 -5 69 -59 50 -32 90 -65 90 -73 0 -8 -14 -29
-31 -47 l-31 -32 16 -54 c9 -31 27 -65 43 -80 32 -30 92 -62 101 -54 3 3 1 6
-5 6 -5 0 -22 11 -37 25 -30 28 -34 64 -10 100 18 27 40 34 31 10 -5 -10 24
-30 103 -71 102 -53 129 -74 98 -74 -9 0 -10 -3 -2 -8 6 -4 11 -38 12 -77 1
-38 7 -74 12 -79 17 -17 11 -27 -9 -17 -15 8 -29 4 -67 -22 -39 -25 -45 -33
-29 -35 33 -6 36 -17 11 -41 l-24 -23 -45 20 -44 20 -27 -34 c-28 -35 -66 -46
-66 -19 0 18 -16 20 -23 3 -8 -24 12 -60 30 -54 10 2 97 15 193 28 96 12 168
24 159 26 -19 3 -14 52 5 52 6 0 2 8 -9 17 -11 9 -14 14 -5 11 8 -3 20 0 26 6
8 8 3 18 -18 36 -15 13 -28 30 -28 36 0 7 -5 14 -10 16 -6 2 -13 28 -16 59 -4
46 -2 58 11 63 11 4 19 -2 25 -20 6 -14 8 -29 5 -34 -3 -4 2 -10 10 -14 8 -3
12 -11 9 -19 -3 -8 2 -20 10 -27 9 -7 13 -17 9 -23 -4 -6 -1 -7 6 -2 8 4 11
18 7 36 -3 16 -1 29 4 29 5 0 8 13 8 30 -1 16 4 36 11 44 9 11 9 15 -1 19 -9
3 -7 11 9 28 13 15 24 44 29 76 4 33 10 50 17 46 6 -3 3 4 -6 18 -20 28 -22
40 -4 34 6 -3 26 -1 42 4 l30 9 -30 1 c-47 2 -75 12 -75 27 0 9 11 14 30 14
17 0 30 5 30 11 0 5 4 8 8 5 9 -5 12 13 15 78 2 34 5 42 15 34 18 -16 15 -6
-19 58 -16 32 -28 66 -26 76 3 9 1 18 -4 20 -13 4 -37 128 -32 165 4 27 21 44
99 103 51 38 97 70 102 70 4 0 9 11 10 26 1 14 6 33 12 44 5 10 13 36 16 57 3
21 11 47 17 58 6 11 10 28 8 38 -1 9 5 20 14 23 13 6 14 8 3 15 -10 7 -11 9 0
9 7 0 11 4 8 9 -3 5 8 24 24 42 16 19 30 38 30 43 0 5 -15 -8 -32 -29 -80 -95
-181 -205 -188 -205 -4 0 -10 33 -13 73 l-6 72 52 49 c68 64 141 111 203 129
l49 14 -58 5 c-73 6 -107 30 -126 91 -12 39 -12 51 1 91 8 25 15 46 14 45 0 0
-24 -25 -52 -55z m-110 -495 c14 -11 26 -27 26 -35 0 -19 -118 -158 -138 -163
-21 -4 -10 59 24 135 40 92 46 96 88 63z m-64 -244 c0 -15 -47 -64 -61 -65
-20 -1 -16 34 6 56 27 27 55 32 55 9z m-110 -37 c-1 -7 -19 -33 -40 -58 l-40
-45 -15 23 c-9 12 -23 22 -31 22 -25 0 -15 27 14 38 28 10 92 29 105 31 4 1 7
-5 7 -11z m-150 -64 c0 -3 -5 -14 -11 -25 -8 -16 -7 -25 7 -40 15 -17 15 -21
1 -42 -9 -14 -14 -33 -11 -43 3 -13 -4 -28 -21 -44 -26 -24 -27 -25 -41 -6
-24 34 -11 110 29 172 19 29 47 46 47 28z m29 -392 c1 -18 8 -48 15 -67 13
-31 13 -35 0 -35 -26 0 -55 118 -39 157 7 17 8 17 15 -2 5 -11 9 -35 9 -53z
m166 -62 c0 -14 -58 -34 -78 -27 -7 2 4 14 23 25 37 23 55 24 55 2z m49 -45
c4 -10 -1 -15 -14 -15 -20 0 -26 11 -13 23 10 11 20 8 27 -8z m-48 -7 c10 -15
-23 -37 -46 -31 -26 7 -26 23 0 23 11 0 20 5 20 10 0 14 17 13 26 -2z m-177
-44 c78 -43 76 -42 68 -50 -8 -9 -187 66 -187 77 0 20 57 7 119 -27z m151 -13
c0 -5 -7 -14 -15 -21 -12 -10 -18 -10 -30 0 -8 7 -12 16 -9 21 7 12 54 12 54
0z"/>
<path d="M10881 7277 c-2 -14 30 -119 35 -114 2 2 -4 30 -15 63 -10 32 -19 55
-20 51z"/>
<path d="M4747 7062 c-20 -2 -35 -7 -32 -12 3 -4 -4 -6 -15 -3 -27 7 -92 -6
-85 -17 3 -5 -6 -7 -19 -4 -22 4 -134 -30 -146 -45 -3 -3 -9 -6 -15 -7 -38 -4
-54 -17 -53 -46 1 -25 4 -29 22 -24 12 3 25 6 29 6 5 0 5 5 1 12 -4 6 -3 8 4
4 6 -3 32 2 59 13 71 28 166 49 273 62 137 16 209 13 365 -17 66 -12 186 -59
291 -114 76 -39 116 -55 125 -49 14 8 12 10 -13 13 -7 0 -14 10 -16 21 -8 45
-105 103 -262 155 -151 51 -319 68 -513 52z m288 -40 c-3 -3 -11 0 -18 7 -9
10 -8 11 6 5 10 -3 15 -9 12 -12z m85 4 c0 -3 -4 -8 -10 -11 -5 -3 -10 -1 -10
4 0 6 5 11 10 11 6 0 10 -2 10 -4z m365 -156 c3 -5 1 -10 -4 -10 -6 0 -11 5
-11 10 0 6 2 10 4 10 3 0 8 -4 11 -10z"/>
<path d="M4655 6960 c-112 -25 -236 -72 -269 -102 -10 -9 -32 -20 -47 -23 -16
-4 -29 -11 -29 -16 0 -5 -5 -9 -11 -9 -15 0 -129 -83 -167 -122 l-32 -34 81
-79 c57 -55 85 -76 94 -69 57 43 132 103 152 122 13 12 28 22 34 22 16 0 71
31 66 36 -3 3 -15 -1 -26 -8 -15 -9 -24 -10 -29 -2 -10 16 -42 13 -42 -4 0
-12 -3 -12 -17 -1 -17 13 -17 13 -1 -7 16 -19 16 -20 -2 -32 -16 -10 -18 -9
-14 3 11 28 -11 15 -24 -15 -23 -51 -117 -92 -138 -59 -9 16 12 33 43 34 19 0
29 6 31 19 4 16 -1 17 -46 11 -94 -13 -120 32 -57 96 25 27 42 36 61 33 37 -4
48 -17 35 -41 -7 -15 -18 -19 -39 -15 -27 4 -51 -12 -39 -25 11 -11 87 9 87
23 0 8 6 13 13 12 6 -2 12 7 12 19 0 12 4 25 8 29 8 9 37 -15 36 -30 0 -7 -2
-6 -6 2 -9 24 -23 12 -23 -20 0 -18 4 -28 8 -23 4 6 26 19 48 30 38 18 41 21
32 46 -7 21 -15 26 -33 24 -27 -2 -39 17 -29 48 5 16 8 17 15 6 6 -9 9 -10 9
-2 0 13 120 74 131 67 4 -2 10 -20 13 -39 4 -20 13 -38 21 -41 14 -6 10 -34
-5 -34 -5 0 -21 -5 -36 -10 -24 -10 -26 -12 -12 -26 11 -12 21 -13 42 -4 15 5
32 8 37 4 19 -11 8 -35 -22 -46 -16 -6 -28 -12 -25 -15 2 -3 31 4 63 16 32 11
77 23 101 27 44 7 58 24 20 24 -25 1 -52 18 -55 37 -9 47 -4 126 9 139 18 18
113 30 130 16 16 -13 63 -5 78 13 17 21 -137 17 -235 -5z m-355 -170 c0 -5 -5
-10 -11 -10 -5 0 -7 5 -4 10 3 6 8 10 11 10 2 0 4 -4 4 -10z m22 -22 c-7 -7
-12 -8 -12 -2 0 14 12 26 19 19 2 -3 -1 -11 -7 -17z m101 -4 c3 -3 0 -12 -6
-19 -13 -14 -41 0 -31 16 6 10 28 12 37 3z"/>
<path d="M4914 6955 c1 -30 9 -31 33 -6 10 10 25 21 33 24 8 3 -4 6 -26 6 -39
1 -42 -1 -40 -24z"/>
<path d="M5018 6960 c12 -5 40 -11 61 -12 22 -2 37 -6 35 -9 -2 -4 3 -12 11
-19 9 -7 12 -23 9 -43 -2 -18 -2 -26 2 -20 4 10 9 10 20 -1 8 -8 14 -19 14
-25 0 -15 27 -14 33 2 3 7 6 5 6 -5 1 -10 -3 -18 -9 -18 -5 0 -10 -9 -10 -20
0 -11 -7 -23 -15 -26 -18 -7 -20 -30 -3 -40 14 -9 38 23 38 53 0 13 4 23 8 23
4 0 16 20 26 45 11 25 24 45 30 45 6 0 35 -10 64 -22 34 -15 51 -28 49 -38 -2
-14 -15 -16 -61 -8 -31 5 -29 -18 4 -32 32 -13 34 -17 21 -39 -7 -11 -14 -11
-40 2 -19 9 -33 12 -37 6 -10 -17 5 -39 26 -39 24 0 38 -26 22 -42 -8 -8 -23
-6 -52 6 -63 25 -61 19 6 -18 34 -18 91 -54 127 -79 38 -27 77 -47 92 -47 14
0 24 -3 22 -7 -3 -5 -2 -16 2 -26 5 -14 21 -2 86 63 l80 80 -52 51 c-33 34
-55 49 -64 44 -9 -6 -2 -17 27 -41 29 -25 36 -36 28 -44 -9 -9 -18 -9 -35 0
-21 12 -25 9 -53 -26 -71 -88 -62 -81 -84 -60 -18 15 -19 22 -9 44 6 15 20 33
29 40 13 10 17 23 14 54 -3 23 0 50 5 60 18 34 -50 82 -189 135 -36 13 -71 22
-79 19 -7 -3 -13 0 -14 7 0 7 -4 3 -8 -8 -8 -20 -8 -20 -15 1 -7 24 -39 34
-131 40 -45 3 -54 1 -37 -6z m172 -74 c0 -3 -4 -8 -10 -11 -5 -3 -10 -1 -10 4
0 6 5 11 10 11 6 0 10 -2 10 -4z"/>
<path d="M10435 6904 c-22 -71 -31 -175 -26 -269 l4 -70 13 122 c12 113 32
183 53 183 11 0 21 -25 21 -50 0 -10 7 -20 15 -24 8 -3 15 -4 15 -2 0 2 -17
41 -39 86 l-39 83 -17 -59z"/>
<path d="M4880 6940 c0 -5 5 -10 10 -10 6 0 10 5 10 10 0 6 -4 10 -10 10 -5 0
-10 -4 -10 -10z"/>
<path d="M4840 6930 c0 -6 3 -10 8 -10 4 0 7 -11 7 -25 0 -23 -3 -25 -27 -19
-17 3 -28 1 -28 -5 0 -6 -7 -8 -15 -5 -8 4 -15 14 -15 24 0 11 -5 22 -11 26
-21 12 -30 -13 -23 -65 5 -42 10 -51 26 -51 13 0 18 5 15 14 -14 36 55 50 73
15 10 -18 7 -25 -19 -48 l-31 -28 60 1 c33 0 60 3 60 5 0 2 -7 9 -16 15 -9 7
-12 18 -8 29 8 22 25 12 17 -11 -4 -13 0 -12 18 6 20 19 22 24 9 32 -10 6 -11
10 -2 10 6 0 12 6 12 14 0 9 -11 3 -31 -15 -24 -22 -33 -26 -43 -16 -10 9 -11
16 -2 30 8 13 8 20 -3 26 -8 5 -11 16 -7 29 4 13 1 22 -9 26 -8 3 -15 1 -15
-4z"/>
<path d="M4910 6906 c0 -9 5 -16 10 -16 6 0 10 4 10 9 0 6 -4 13 -10 16 -5 3
-10 -1 -10 -9z"/>
<path d="M5030 6900 c0 -5 7 -10 15 -10 8 0 15 5 15 10 0 6 -7 10 -15 10 -8 0
-15 -4 -15 -10z"/>
<path d="M4227 6869 c-21 -11 -41 -27 -44 -34 -3 -8 -11 -15 -17 -15 -7 0 -52
-37 -100 -82 l-88 -82 117 -111 118 -111 -19 -34 c-10 -19 -27 -44 -38 -55
-21 -23 -82 -147 -92 -188 -5 -23 -4 -26 11 -21 15 6 16 1 11 -44 -3 -29 -1
-54 4 -57 12 -7 22 14 23 52 1 16 4 30 8 33 3 3 21 39 39 80 61 134 170 260
301 347 50 33 204 98 254 108 22 4 34 10 28 12 -21 8 -15 30 10 37 35 9 75 7
82 -5 4 -6 13 -8 21 -5 8 3 14 -1 14 -10 0 -13 13 -15 75 -12 41 2 75 0 75 -4
0 -3 19 -9 42 -13 101 -17 239 -88 350 -178 32 -26 59 -47 62 -47 2 0 4 12 4
26 0 16 -5 23 -13 20 -7 -2 -21 2 -32 9 -14 10 -15 16 -6 25 8 9 6 18 -9 35
-43 49 -215 139 -246 128 -7 -3 -22 3 -33 13 -10 9 -20 14 -20 11 -1 -4 -3
-11 -4 -17 -1 -5 -3 -12 -4 -15 0 -3 -7 0 -15 7 -7 7 -12 18 -9 24 5 13 -61
29 -77 19 -5 -3 -7 -12 -3 -20 7 -19 3 -19 -36 1 -17 8 -29 20 -26 25 8 12
-16 11 -35 -1 -13 -8 -12 -10 3 -10 10 0 15 -5 12 -10 -4 -7 -18 -4 -38 8 -27
16 -44 17 -112 11 -160 -14 -366 -110 -469 -218 -17 -17 -34 -31 -39 -31 -5 0
-37 27 -71 60 -59 57 -86 75 -70 48 5 -9 2 -9 -9 1 -9 7 -17 19 -17 26 0 7 -9
23 -20 36 -13 16 -18 18 -14 7 3 -9 2 -23 -2 -30 -6 -9 -11 -1 -15 22 -8 38 6
65 20 41 7 -10 16 -6 42 18 18 17 54 48 81 68 26 21 48 41 48 45 0 4 6 8 13 8
7 0 18 9 25 20 8 14 9 20 1 20 -6 0 -9 7 -5 15 7 19 -1 18 -47 -6z m474 -202
c-10 -9 -11 -8 -5 6 3 10 9 15 12 12 3 -3 0 -11 -7 -18z m-491 -307 c-8 -5
-17 -7 -19 -4 -3 3 1 9 9 14 8 5 17 7 19 4 3 -3 -1 -9 -9 -14z"/>
<path d="M2006 6865 c-94 -24 -182 -72 -251 -137 -59 -54 -145 -167 -145 -189
0 -5 235 -9 546 -9 l545 0 -33 62 c-59 112 -178 210 -314 260 -76 28 -260 35
-348 13z m274 -142 c0 -2 -20 -3 -45 -3 l-45 0 0 47 0 47 45 -44 c25 -24 45
-45 45 -47z m-260 70 c0 -3 -11 -21 -26 -40 -23 -30 -29 -33 -80 -33 -63 0
-63 10 -1 42 59 30 107 44 107 31z m110 -33 l0 -40 -47 0 -47 0 39 40 c21 22
43 40 47 40 4 0 8 -18 8 -40z m272 4 c67 -34 68 -44 5 -44 -55 0 -62 4 -107
64 -14 18 -13 18 20 11 19 -4 56 -18 82 -31z m-492 -114 c0 -6 -7 -24 -15 -40
-15 -29 -17 -30 -96 -30 l-80 0 28 40 c28 39 28 40 96 40 40 0 67 -4 67 -10z
m218 -32 l3 -38 -85 0 c-47 0 -86 3 -86 8 0 4 9 22 20 40 20 32 22 33 83 30
l62 -3 3 -37z m212 10 c11 -18 20 -36 20 -40 0 -5 -38 -8 -85 -8 l-85 0 0 40
0 40 65 0 c63 0 66 -1 85 -32z m224 1 c14 -17 26 -35 26 -40 0 -5 -35 -9 -78
-9 l-78 0 -12 33 c-7 18 -12 36 -12 40 0 4 29 7 64 7 59 0 66 -2 90 -31z"/>
<path d="M5021 6819 c2 -13 0 -30 -5 -38 -6 -9 -5 -12 5 -9 16 5 21 56 7 64
-6 4 -8 -4 -7 -17z"/>
<path d="M5120 6815 c0 -8 6 -15 14 -15 22 0 28 17 10 24 -22 9 -24 8 -24 -9z"/>
<path d="M5570 6810 c-7 -14 -7 -20 0 -20 5 0 10 5 10 10 0 16 17 11 24 -7 4
-9 1 -20 -6 -25 -11 -6 -11 -8 0 -8 7 0 26 -15 43 -34 25 -29 35 -34 65 -31
29 2 34 -1 28 -14 -17 -42 -15 -48 11 -55 16 -4 33 -2 41 5 18 15 18 29 -1 29
-8 0 -15 6 -15 13 0 6 -30 40 -67 75 -63 59 -92 77 -78 50 4 -7 -2 -3 -13 10
-25 27 -28 27 -42 2z"/>
<path d="M5114 6773 c-5 -17 -14 -23 -38 -24 l-31 -1 30 -8 c17 -5 40 -12 52
-15 23 -8 24 1 5 45 l-11 25 -7 -22z"/>
<path d="M5010 6756 c0 -2 7 -6 15 -10 8 -3 15 -1 15 4 0 6 -7 10 -15 10 -8 0
-15 -2 -15 -4z"/>
<path d="M5690 6616 c0 -9 5 -16 10 -16 6 0 10 4 10 9 0 6 -4 13 -10 16 -5 3
-10 -1 -10 -9z"/>
<path d="M5620 6554 c-30 -31 -46 -52 -35 -46 14 7 26 7 39 0 23 -13 42 5 55
49 16 56 -3 55 -59 -3z"/>
<path d="M11178 6553 c5 -21 7 -23 10 -9 2 10 0 22 -6 28 -6 6 -7 0 -4 -19z"/>
<path d="M5455 6500 c-3 -5 -1 -10 4 -10 6 0 11 5 11 10 0 6 -2 10 -4 10 -3 0
-8 -4 -11 -10z"/>
<path d="M1580 6320 l0 -180 35 0 34 0 3 78 3 77 40 0 40 0 3 -77 3 -78 34 0
35 0 0 180 0 180 -35 0 -34 0 -3 -77 -3 -78 -42 -3 -43 -3 0 80 0 81 -35 0
-35 0 0 -180z"/>
<path d="M1910 6480 c0 -13 -7 -20 -20 -20 -19 0 -20 -7 -20 -160 l0 -160 35
0 34 0 3 78 3 77 40 0 40 0 3 -77 3 -78 34 0 35 0 0 160 c0 153 -1 160 -20
160 -13 0 -20 7 -20 20 0 18 -7 20 -75 20 -68 0 -75 -2 -75 -20z m110 -80 l0
-60 -35 0 c-28 0 -36 4 -40 23 -4 17 -1 79 4 95 1 1 17 2 36 2 l35 0 0 -60z"/>
<path d="M2200 6480 c0 -13 -7 -20 -20 -20 -19 0 -20 -7 -20 -140 0 -133 1
-140 20 -140 13 0 20 -7 20 -20 0 -18 7 -20 80 -20 73 0 80 2 80 20 0 13 7 20
20 20 11 0 20 7 20 15 0 8 -9 15 -20 15 -11 0 -20 -7 -20 -15 0 -12 -13 -15
-60 -15 l-60 0 0 140 0 140 60 0 c54 0 60 -2 60 -21 0 -14 5 -19 17 -17 25 5
28 29 4 35 -12 3 -21 13 -21 24 0 17 -8 19 -80 19 -73 0 -80 -2 -80 -20z"/>
<path d="M2460 6330 c0 -93 0 -173 0 -177 0 -5 15 -9 34 -11 l35 -3 3 58 c2
46 7 59 21 61 12 2 17 -3 17 -17 0 -14 6 -21 20 -21 13 0 20 -7 20 -20 0 -13
7 -20 20 -20 13 0 20 -7 20 -20 0 -17 7 -20 40 -20 29 0 40 4 40 15 0 8 -7 15
-15 15 -9 0 -20 11 -25 25 -5 14 -16 25 -25 25 -8 0 -15 7 -15 16 0 9 -9 18
-19 21 -11 3 -21 13 -24 24 -3 10 -12 19 -21 19 -9 0 -16 8 -16 20 0 13 7 20
20 20 13 0 20 7 20 20 0 13 7 20 20 20 13 0 20 7 20 20 0 13 7 20 20 20 13 0
20 7 20 20 0 14 7 20 21 20 14 0 19 5 17 18 -2 12 -14 18 -41 20 -32 3 -37 0
-37 -17 0 -14 -6 -21 -20 -21 -13 0 -20 -7 -20 -20 0 -12 -7 -20 -16 -20 -9 0
-18 -9 -21 -20 -3 -11 -14 -20 -24 -20 -17 0 -19 8 -19 60 l0 60 -35 0 -35 0
0 -170z"/>
<path d="M5519 6461 c-22 -22 -24 -30 -14 -44 10 -15 14 -15 33 -1 14 10 22
26 22 45 0 36 -8 36 -41 0z"/>
<path d="M11095 6441 c-6 -11 9 -23 19 -14 9 9 7 23 -3 23 -6 0 -12 -4 -16 -9z"/>
<path d="M5570 6393 c-9 -2 -21 -12 -27 -21 -9 -15 -5 -28 21 -69 29 -48 33
-50 66 -45 19 2 37 6 39 8 5 4 -43 85 -66 110 -10 12 -25 19 -33 17z"/>
<path d="M5520 6380 c0 -5 5 -10 10 -10 6 0 10 5 10 10 0 6 -4 10 -10 10 -5 0
-10 -4 -10 -10z"/>
<path d="M10990 6364 c0 -8 5 -12 10 -9 6 3 10 10 10 16 0 5 -4 9 -10 9 -5 0
-10 -7 -10 -16z"/>
<path d="M4511 6333 c-37 -49 -42 -54 -72 -60 -16 -3 -29 -9 -29 -14 0 -5 -6
-9 -13 -9 -15 0 -80 -66 -131 -134 -33 -45 -35 -51 -22 -70 9 -13 24 -20 39
-19 17 1 27 -5 30 -18 3 -13 11 -17 21 -13 9 3 16 1 16 -4 0 -6 19 -12 43 -14
29 -2 42 -8 42 -18 0 -10 -9 -15 -30 -13 -52 2 -115 15 -115 24 0 11 -57 21
-80 14 -26 -8 -42 -48 -31 -77 l8 -22 5 22 c7 26 36 30 34 5 -1 -13 7 -19 27
-21 30 -4 35 -23 12 -42 -18 -15 -62 -6 -68 15 -4 12 -5 12 -3 -1 0 -9 13 -26
28 -37 27 -20 28 -20 48 -2 10 9 22 26 25 36 10 30 33 22 88 -30 69 -64 159
-108 210 -102 21 3 22 -3 1 -24 -15 -15 -14 -15 11 -9 61 15 125 4 125 -22 0
-10 -6 -11 -26 -4 -36 14 -80 12 -93 -3 -13 -16 -5 -27 21 -27 14 0 18 -7 16
-29 -2 -25 -5 -27 -20 -18 -13 9 -15 14 -5 26 10 12 9 13 -9 3 -12 -6 -24 -9
-27 -6 -3 3 -11 -14 -17 -37 -11 -41 -9 -107 5 -186 5 -26 3 -33 -10 -33 -8 0
-19 -10 -24 -22 -6 -18 -9 -19 -14 -5 -4 10 -11 17 -18 17 -21 0 -69 -42 -69
-61 0 -25 7 -24 31 4 l20 22 -11 -22 c-9 -19 -8 -23 7 -23 10 0 70 -1 134 -2
63 -1 121 2 128 7 8 4 16 3 21 -4 4 -7 27 -11 51 -11 24 1 69 1 101 0 40 0 67
5 95 21 52 29 61 38 45 48 -11 6 -10 10 3 15 15 5 14 9 -8 26 -32 25 -36 25
-30 -2 4 -22 4 -22 -10 1 -16 28 -12 51 9 51 8 0 14 5 14 11 0 5 -4 8 -10 4
-5 -3 -5 6 1 23 8 24 18 31 48 36 29 4 40 12 45 28 9 34 7 41 -8 35 -10 -4
-12 0 -9 14 3 10 1 19 -4 19 -5 0 -9 9 -10 19 -1 13 6 21 20 23 20 3 22 9 20
53 -2 68 -35 138 -102 216 -34 39 -54 52 -131 80 -52 19 -109 48 -130 67 -45
38 -50 39 -50 11 0 -15 -5 -19 -15 -15 -8 3 -15 3 -15 0 0 -2 9 -8 20 -12 l21
-8 -21 -22 c-12 -12 -18 -27 -15 -32 3 -6 0 -10 -7 -10 -7 0 -19 -9 -26 -20
-7 -12 -17 -18 -22 -15 -13 8 -52 -14 -45 -24 3 -5 -1 -11 -8 -14 -22 -8 -15
82 8 109 6 7 13 10 17 7 5 -2 16 1 25 6 16 9 15 10 -6 11 -17 0 -22 4 -17 17
7 17 -27 57 -38 46 -3 -4 -6 -1 -6 5 0 15 38 11 45 -6 3 -7 10 -10 16 -7 6 4
8 13 5 21 -3 9 0 11 11 7 12 -5 14 -1 9 15 -5 15 -1 24 13 31 19 11 19 11 -2
35 -24 27 -41 18 -53 -28 -6 -25 -32 -32 -26 -7 1 7 -3 11 -10 10 -30 -4 -37
3 -40 34 -2 20 -8 31 -16 29 -8 -1 -11 3 -8 10 3 7 9 21 12 31 4 9 11 17 16
17 5 0 6 -4 3 -10 -3 -5 -1 -10 4 -10 6 0 11 5 11 10 0 6 8 5 20 -2 11 -7 18
-19 15 -26 -3 -8 0 -10 7 -6 8 5 9 -1 4 -20 -4 -18 -3 -25 4 -21 5 3 10 12 10
20 0 7 5 15 12 17 6 2 -7 19 -30 38 -23 18 -39 37 -36 41 6 11 -14 49 -26 49
-5 0 -18 -12 -29 -27z m-8 -100 c-3 -7 -9 -13 -13 -13 -10 0 -21 41 -14 52 8
13 33 -24 27 -39z m-68 -38 c14 -4 14 -8 0 -35 -15 -29 -36 -37 -69 -24 -12 4
-13 11 -5 32 12 30 26 42 46 36 7 -2 20 -6 28 -9z m30 -126 c7 -8 3 -9 -15 -4
l-25 8 25 -22 25 -21 -40 16 -40 16 25 -28 25 -28 -29 18 c-16 10 -31 14 -35
10 -10 -15 -59 -11 -54 3 3 7 13 13 24 13 10 0 23 9 30 21 9 17 17 20 42 15
17 -4 36 -11 42 -17z m110 -8 c3 -5 1 -12 -5 -16 -5 -3 -10 1 -10 9 0 18 6 21
15 7z m340 -100 c3 -5 1 -12 -5 -16 -5 -3 -10 1 -10 9 0 18 6 21 15 7z m-205
-21 c0 -5 -7 -10 -16 -10 -8 0 -12 5 -9 10 3 6 10 10 16 10 5 0 9 -4 9 -10z
m248 -9 c3 -8 -1 -12 -9 -9 -7 2 -15 10 -17 17 -3 8 1 12 9 9 7 -2 15 -10 17
-17z m-121 -47 c-4 -25 8 -34 16 -11 3 7 9 2 14 -12 7 -18 5 -33 -6 -55 -8
-17 -14 -38 -13 -48 2 -9 -2 -19 -8 -23 -15 -10 -24 1 -14 17 12 18 12 48 1
55 -5 3 -4 9 3 13 7 4 9 13 6 19 -4 6 -12 9 -17 6 -5 -4 -9 1 -9 9 0 9 5 16
11 16 7 0 9 10 5 26 -5 18 -3 24 5 19 6 -4 9 -18 6 -31z m-457 16 c0 -5 -4
-10 -10 -10 -5 0 -10 5 -10 10 0 6 5 10 10 10 6 0 10 -4 10 -10z m590 -39 c0
-6 -4 -12 -9 -15 -5 -3 -7 -15 -4 -25 3 -10 0 -22 -6 -25 -12 -8 -16 56 -4 67
9 10 23 8 23 -2z m-40 -11 c0 -5 -2 -10 -4 -10 -3 0 -8 5 -11 10 -3 6 -1 10 4
10 6 0 11 -4 11 -10z m-353 -42 c-3 -8 -6 -5 -6 6 -1 11 2 17 5 13 3 -3 4 -12
1 -19z m323 -28 c0 -5 -2 -10 -4 -10 -3 0 -8 5 -11 10 -3 6 -1 10 4 10 6 0 11
-4 11 -10z m-10 -29 c0 -6 -4 -13 -10 -16 -5 -3 -10 1 -10 9 0 9 5 16 10 16 6
0 10 -4 10 -9z m75 -1 c3 -5 2 -10 -4 -10 -5 0 -13 5 -16 10 -3 6 -2 10 4 10
5 0 13 -4 16 -10z m-105 -30 c0 -5 -4 -10 -10 -10 -5 0 -10 5 -10 10 0 6 5 10
10 10 6 0 10 -4 10 -10z m-18 -32 c-9 -9 -15 -9 -24 0 -9 9 -7 12 12 12 19 0
21 -3 12 -12z m-82 -23 c0 -8 -4 -15 -10 -15 -5 0 -7 7 -4 15 4 8 8 15 10 15
2 0 4 -7 4 -15z m120 -39 c0 -8 5 -16 11 -18 7 -2 5 -9 -5 -17 -14 -12 -16
-12 -10 3 3 9 2 16 -4 16 -5 0 -12 7 -16 15 -3 9 0 15 9 15 8 0 15 -6 15 -14z
m-39 -9 c-1 -12 -15 -9 -19 4 -3 6 1 10 8 8 6 -3 11 -8 11 -12z m-41 -7 c0 -5
-7 -10 -15 -10 -8 0 -15 5 -15 10 0 6 7 10 15 10 8 0 15 -4 15 -10z m-105 -51
c-4 -5 -1 -9 5 -9 6 0 8 -5 4 -11 -4 -8 -9 -7 -15 2 -12 19 -11 42 1 34 6 -4
8 -11 5 -16z m365 -19 c0 -5 -4 -10 -10 -10 -5 0 -10 5 -10 10 0 6 5 10 10 10
6 0 10 -4 10 -10z m-140 -80 c0 -5 -4 -10 -10 -10 -5 0 -10 5 -10 10 0 6 5 10
10 10 6 0 10 -4 10 -10z m90 -25 c0 -8 -7 -15 -15 -15 -16 0 -20 12 -8 23 11
12 23 8 23 -8z m-49 -11 c9 -11 7 -14 -9 -14 -11 0 -22 -3 -25 -7 -2 -5 -2 -3
-1 4 2 6 -4 14 -12 17 -8 3 -14 1 -14 -5 0 -6 -4 -7 -10 -4 -13 8 -13 -1 0
-25 7 -13 7 -21 0 -25 -5 -3 -10 3 -10 14 0 14 -5 19 -14 15 -13 -5 -13 -2 -3
19 10 21 19 26 49 25 21 0 43 -7 49 -14z m34 -52 c-3 -3 -11 0 -18 7 -9 10 -8
11 6 5 10 -3 15 -9 12 -12z m-45 -48 c0 -8 -5 -12 -10 -9 -6 4 -8 11 -5 16 9
14 15 11 15 -7z m-80 -24 c0 -5 -5 -10 -11 -10 -5 0 -7 5 -4 10 3 6 8 10 11
10 2 0 4 -4 4 -10z"/>
<path d="M4382 6178 c-18 -18 -14 -38 7 -38 20 0 35 25 25 41 -7 12 -18 11
-32 -3z"/>
<path d="M5361 6295 c-2 -13 -51 -36 -63 -29 -5 3 -15 0 -23 -6 -8 -7 -22 -10
-30 -6 -9 3 -15 0 -15 -9 0 -16 -38 -41 -57 -37 -8 2 -13 -8 -13 -27 0 -16 -6
-32 -12 -34 -8 -3 -5 -6 5 -6 16 -1 18 -7 13 -51 -3 -28 -1 -52 4 -55 6 -4 8
-10 5 -15 -3 -4 11 -4 30 0 38 9 42 5 20 -24 -14 -18 -15 -18 -15 -2 0 10 -5
14 -11 11 -6 -4 -8 -12 -6 -19 3 -6 -4 -12 -14 -12 -18 0 -24 14 -19 45 1 8
-4 12 -13 8 -9 -3 -18 1 -21 10 -4 9 -9 13 -13 9 -9 -9 -11 -113 -1 -128 5 -9
8 -6 8 10 0 12 4 22 9 22 13 0 35 -29 27 -37 -3 -3 -6 0 -6 8 0 11 -2 11 -9 1
-4 -8 -6 -32 -4 -55 2 -23 5 -53 7 -67 1 -14 15 -51 30 -82 16 -32 26 -64 23
-73 -4 -8 -2 -17 2 -19 5 -3 8 -27 7 -54 -2 -54 -27 -101 -57 -109 -10 -3 -19
-10 -19 -16 0 -6 -3 -7 -7 -4 -3 4 -11 3 -17 -3 -8 -6 -12 -3 -12 10 0 10 3
18 6 17 3 -1 6 3 8 8 1 6 -4 10 -10 10 -8 0 -13 -14 -13 -35 0 -29 4 -36 23
-38 27 -4 24 -26 -4 -28 -49 -4 -49 -4 -29 -16 27 -16 54 -17 48 -3 -2 7 3 15
11 18 10 4 13 13 9 24 -7 17 -6 17 11 0 17 -17 17 -19 1 -31 -15 -11 -15 -13
-1 -25 20 -16 21 -32 2 -25 -7 3 -16 -1 -19 -9 -4 -10 0 -13 13 -10 10 3 20 0
24 -5 8 -13 88 10 94 27 2 6 8 9 13 6 5 -4 6 1 3 9 -4 11 0 16 11 16 12 0 15
-5 10 -20 -5 -14 -2 -20 10 -20 12 0 15 6 10 20 -5 14 -2 20 9 20 17 0 56 34
56 48 0 5 7 23 16 41 18 36 24 149 9 155 -5 2 -19 -1 -30 -7 -17 -9 -18 -8 -9
4 21 26 25 73 9 103 -8 16 -18 47 -22 70 -3 22 -13 46 -21 52 -9 7 -13 21 -10
37 5 27 -6 38 -15 15 -3 -7 -6 1 -6 19 -1 17 4 35 10 38 6 4 8 12 6 19 -3 6 4
22 14 35 12 15 19 18 19 9 0 -8 8 -23 19 -34 28 -31 42 -108 24 -134 -8 -11
-10 -20 -5 -20 5 0 12 -28 16 -61 4 -45 12 -67 28 -80 24 -22 32 -23 59 -8 16
8 23 7 33 -7 14 -19 20 -13 30 29 4 15 11 25 17 22 6 -4 7 3 3 21 -5 19 -3 25
4 20 8 -5 11 10 9 49 -2 44 0 54 11 50 15 -5 14 7 -4 49 -6 16 -4 18 9 13 20
-8 20 -12 2 51 -9 29 -13 57 -10 62 3 5 0 12 -6 15 -6 4 -8 17 -5 30 4 14 0
28 -9 35 -8 7 -15 21 -15 31 0 10 -13 31 -30 45 -16 15 -27 30 -25 34 3 4 -9
10 -25 14 -18 3 -30 12 -30 21 0 11 -6 14 -25 9 -15 -4 -25 -2 -25 5 0 6 -9
11 -19 11 -11 0 -22 8 -24 18 -3 9 -5 13 -6 7z m-51 -200 c10 -12 10 -15 -4
-15 -9 0 -16 7 -16 15 0 8 2 15 4 15 2 0 9 -7 16 -15z m10 -50 c10 -12 10 -15
-1 -16 -10 0 -11 -2 -1 -6 6 -2 12 -9 12 -15 0 -6 -7 -8 -15 -4 -8 3 -15 1
-15 -4 0 -6 -3 -10 -7 -10 -5 0 -9 16 -9 35 -1 37 14 46 36 20z m-46 -20 c-6
-16 -24 -21 -24 -7 0 11 11 22 21 22 5 0 6 -7 3 -15z m116 -15 c0 -11 -4 -20
-10 -20 -5 0 -10 9 -10 20 0 11 5 20 10 20 6 0 10 -9 10 -20z m-190 -70 c-19
-13 -30 -13 -30 0 0 6 10 10 23 10 18 0 19 -2 7 -10z m40 -41 c0 -16 -4 -28
-9 -24 -12 7 -33 -30 -23 -39 4 -4 -7 -4 -23 0 -57 14 -55 39 8 71 23 12 43
22 45 22 1 1 2 -13 2 -30z m220 1 c0 -5 -7 -10 -16 -10 -8 0 -12 5 -9 10 3 6
10 10 16 10 5 0 9 -4 9 -10z m-180 -10 c0 -5 -5 -10 -11 -10 -5 0 -7 5 -4 10
3 6 8 10 11 10 2 0 4 -4 4 -10z m-40 -54 c0 -3 -4 -8 -10 -11 -5 -3 -10 -1
-10 4 0 6 5 11 10 11 6 0 10 -2 10 -4z m30 -16 c0 -5 -2 -10 -4 -10 -3 0 -8 5
-11 10 -3 6 -1 10 4 10 6 0 11 -4 11 -10z m87 -112 c-3 -8 -6 -5 -6 6 -1 11 2
17 5 13 3 -3 4 -12 1 -19z m-80 -60 c-3 -7 -5 -2 -5 12 0 14 2 19 5 13 2 -7 2
-19 0 -25z m56 26 c9 -3 13 -13 10 -25 -4 -13 0 -19 11 -19 10 0 15 3 13 8 -3
4 -1 16 3 26 5 16 8 17 12 4 7 -17 -20 -78 -34 -78 -5 0 -6 5 -3 10 3 6 -3 23
-14 39 -28 40 -28 47 2 35z m-133 -283 c0 -6 -4 -13 -10 -16 -5 -3 -10 1 -10
9 0 9 5 16 10 16 6 0 10 -4 10 -9z"/>
<path d="M11050 6269 l-35 -19 50 6 c51 7 73 14 41 14 -9 0 -14 5 -11 10 9 15
-6 11 -45 -11z"/>
<path d="M5687 6213 c-4 -3 -7 -11 -7 -17 0 -6 5 -5 12 2 6 6 9 14 7 17 -3 3
-9 2 -12 -2z"/>
<path d="M5700 6188 c-6 -20 -8 -29 -9 -44 0 -9 -7 -14 -13 -11 -7 2 -12 10
-10 16 1 6 -2 11 -8 11 -15 0 -12 -33 5 -56 8 -10 15 -15 15 -10 0 6 7 1 15
-10 11 -15 15 -16 16 -4 1 8 1 19 0 23 -1 5 3 6 9 2 5 -3 10 2 10 12 -1 20
-27 82 -30 71z"/>
<path d="M11058 6179 c-20 -11 -24 -39 -6 -39 6 0 8 3 5 7 -4 3 0 15 10 25 18
20 16 22 -9 7z"/>
<path d="M11923 6147 c6 -13 17 -24 24 -24 9 0 5 9 -9 24 -12 13 -23 23 -24
23 -1 0 3 -10 9 -23z"/>
<path d="M11975 6111 c7 -12 -31 -25 -45 -16 -5 3 -10 1 -10 -4 0 -6 18 -11
39 -11 22 0 52 -5 67 -10 41 -16 37 -8 -13 22 -24 16 -42 24 -38 19z"/>
<path d="M4670 6100 c0 -5 4 -10 9 -10 6 0 13 5 16 10 3 6 -1 10 -9 10 -9 0
-16 -4 -16 -10z"/>
<path d="M1614 6084 c16 -41 84 -130 138 -178 124 -112 262 -161 433 -154 211
10 394 119 485 289 l31 59 -546 0 c-494 0 -547 -2 -541 -16z m276 -56 c32 -52
28 -58 -44 -58 -63 0 -66 1 -92 36 -34 44 -24 54 59 54 54 0 58 -2 77 -32z
m240 -13 l0 -35 -70 0 c-67 0 -70 1 -85 30 -8 16 -15 31 -15 35 0 3 38 5 85 5
l85 0 0 -35z m217 3 c-13 -32 -15 -33 -85 -36 l-72 -3 0 36 0 35 85 0 85 0
-13 -32z m243 25 c0 -3 -11 -21 -26 -40 -24 -31 -28 -33 -90 -33 -35 0 -64 4
-64 9 0 4 5 22 11 40 l11 31 79 0 c43 0 79 -3 79 -7z m-601 -158 c41 -47 39
-56 -6 -43 -46 12 -123 55 -123 68 0 6 22 10 49 10 43 0 52 -4 80 -35z m139
-12 c2 -24 0 -43 -5 -43 -10 0 -83 72 -83 83 0 4 19 7 43 5 42 -3 42 -3 45
-45z m146 40 c7 -7 -62 -83 -76 -83 -10 0 -11 74 -1 83 8 9 68 9 77 0z m186
-2 c0 -23 -151 -90 -159 -69 -2 5 12 25 30 44 28 29 39 34 81 34 26 0 48 -4
48 -9z"/>
<path d="M11858 6083 c12 -2 30 -2 40 0 9 3 -1 5 -23 4 -22 0 -30 -2 -17 -4z"/>
<path d="M4037 6060 c-3 -8 -8 -35 -11 -60 -2 -25 -8 -56 -12 -69 -7 -22 7
-41 31 -41 6 0 3 5 -5 10 -8 5 -10 10 -3 10 6 0 9 9 6 21 -5 16 -2 20 8 17 8
-3 12 -12 10 -19 -2 -8 -3 -22 -3 -31 0 -10 -9 -25 -21 -34 l-22 -16 23 7 c12
3 22 2 22 -3 0 -14 -26 -33 -34 -25 -4 4 -4 0 0 -10 3 -9 2 -17 -3 -17 -12 0
-1 -87 21 -170 33 -123 145 -326 173 -315 10 3 13 1 10 -9 -3 -7 1 -23 9 -35
17 -24 46 -29 38 -6 -4 9 0 15 10 15 12 0 14 -7 10 -28 -6 -28 -5 -29 40 -29
25 0 46 4 46 8 0 5 -7 6 -15 3 -11 -5 -13 -2 -9 10 4 12 0 16 -15 16 -13 0
-21 6 -21 16 0 20 -79 104 -98 104 -9 0 -13 7 -9 19 3 13 1 18 -8 14 -9 -3
-12 2 -9 14 6 22 -49 129 -65 126 -6 -2 -11 1 -11 7 0 6 4 10 9 10 5 0 3 20
-5 45 -12 43 -26 114 -38 194 -2 18 -9 38 -15 44 -7 7 -7 16 0 29 5 10 7 23 3
29 -4 6 -1 15 6 19 17 11 2 103 -16 96 -8 -3 -14 5 -16 22 -3 19 -6 22 -11 12z
m137 -652 c-9 -15 -22 -8 -19 10 2 9 4 19 4 22 1 3 5 -2 10 -10 6 -8 7 -18 5
-22z m96 -102 c0 -3 -4 -8 -10 -11 -5 -3 -10 -1 -10 4 0 6 5 11 10 11 6 0 10
-2 10 -4z"/>
<path d="M5676 6043 c9 -39 19 -47 41 -34 17 10 16 10 -5 11 -13 0 -22 6 -21
13 3 23 -1 37 -11 37 -6 0 -8 -11 -4 -27z"/>
<path d="M11737 6005 c3 -27 7 -52 9 -54 8 -9 2 65 -6 84 -6 13 -7 2 -3 -30z"/>
<path d="M4660 6000 c-6 -11 -7 -20 -2 -20 10 0 32 21 32 32 0 16 -19 8 -30
-12z"/>
<path d="M5740 6001 c-6 -12 -7 -21 -1 -21 10 0 24 30 17 37 -2 3 -9 -5 -16
-16z"/>
<path d="M11028 5973 c7 -3 16 -2 19 1 4 3 -2 6 -13 5 -11 0 -14 -3 -6 -6z"/>
<path d="M5742 5940 c-6 -11 -18 -17 -26 -14 -22 8 -25 -5 -27 -124 -1 -69 -5
-112 -11 -112 -6 0 -8 -14 -5 -35 4 -23 1 -40 -9 -49 -9 -9 -10 -17 -4 -21 5
-3 10 -2 10 4 0 6 6 8 14 5 12 -4 11 -9 -5 -25 -13 -13 -18 -27 -14 -40 4 -10
2 -19 -4 -19 -5 0 -11 12 -13 28 -3 24 -8 19 -38 -43 -19 -38 -48 -85 -65
-104 -16 -19 -46 -53 -65 -74 -58 -67 -175 -153 -254 -187 -42 -18 -73 -37
-70 -41 2 -4 -1 -11 -7 -15 -6 -3 -14 -2 -18 4 -5 8 -23 7 -61 -3 -30 -8 -67
-15 -82 -15 -16 0 -28 -4 -28 -9 0 -4 -12 -6 -27 -3 -21 4 -25 2 -20 -11 4
-12 2 -14 -11 -10 -9 4 -23 13 -30 20 -8 8 -20 9 -35 4 -12 -5 -29 -5 -37 0
-8 5 -53 17 -100 29 -86 20 -194 67 -263 115 -33 21 -41 23 -60 13 -12 -7 -25
-11 -29 -10 -17 4 -7 -16 18 -39 18 -16 28 -20 31 -11 3 6 9 12 15 12 7 0 6
-5 -1 -14 -9 -11 -6 -18 19 -36 37 -26 200 -94 250 -104 19 -4 43 -10 54 -13
11 -3 16 -1 12 5 -3 6 6 5 21 -3 16 -7 43 -11 61 -8 26 4 31 9 27 23 -3 10 -1
21 5 25 9 6 14 -10 13 -43 -1 -23 234 1 272 28 6 4 35 15 65 24 118 38 263
141 349 249 49 63 63 101 39 109 -7 3 -8 10 -4 17 7 10 10 10 16 1 4 -7 13 -9
19 -6 6 4 9 12 5 17 -3 5 0 8 8 7 8 -2 12 6 11 23 -1 19 3 26 15 25 9 0 16 5
15 12 -2 6 1 12 6 12 5 0 13 15 16 33 4 17 11 37 15 42 30 40 62 303 43 352
-8 22 -9 22 -21 3z m-175 -562 c-3 -8 -6 -5 -6 6 -1 11 2 17 5 13 3 -3 4 -12
1 -19z m-727 -358 c0 -5 -2 -10 -4 -10 -3 0 -8 5 -11 10 -3 6 -1 10 4 10 6 0
11 -4 11 -10z"/>
<path d="M11710 5920 c-12 -8 -10 -10 8 -10 13 0 20 4 17 10 -7 12 -6 12 -25
0z"/>
<path d="M11790 5910 c-13 -9 -13 -11 0 -20 29 -19 58 -7 39 17 -13 15 -19 16
-39 3z m30 -10 c0 -5 -2 -10 -4 -10 -3 0 -8 5 -11 10 -3 6 -1 10 4 10 6 0 11
-4 11 -10z"/>
<path d="M11655 5884 c-13 -10 -15 -14 -4 -14 20 0 43 16 32 23 -4 3 -17 -1
-28 -9z"/>
<path d="M11709 5852 c-11 -14 -11 -15 1 -4 17 14 34 16 25 2 -9 -14 1 -12 13
3 8 10 6 13 -8 14 -10 1 -24 -6 -31 -15z"/>
<path d="M11895 5852 c-3 -4 9 -11 27 -18 39 -13 52 -56 21 -69 -31 -13 -83
-23 -79 -16 3 4 1 13 -5 21 -5 10 -9 11 -9 3 0 -23 -29 -1 -35 27 l-6 28 -33
-21 c-19 -12 -29 -25 -23 -29 6 -3 18 4 28 15 19 22 20 21 23 -22 1 -9 38 -31
86 -52 97 -43 112 -47 79 -20 -21 16 -21 21 -10 49 18 44 11 73 -26 93 -17 10
-34 15 -38 11z"/>
<path d="M11630 5820 c-8 -5 -10 -10 -5 -10 6 0 17 5 25 10 8 5 11 10 5 10 -5
0 -17 -5 -25 -10z"/>
<path d="M8471 5804 c-7 -9 -16 -12 -20 -7 -7 9 -191 13 -191 4 0 -4 10 -8 23
-8 42 -4 68 -14 65 -26 -5 -13 -74 -38 -308 -111 -151 -48 -555 -204 -597
-232 -55 -35 -4 -22 184 49 256 97 533 179 656 193 90 11 75 -12 -58 -86 -186
-102 -545 -373 -524 -395 3 -2 38 23 79 56 124 100 288 204 420 268 141 68
300 124 324 115 9 -3 27 -24 40 -46 27 -45 24 -75 -12 -125 -53 -76 -67 -203
-31 -297 55 -149 215 -223 423 -198 127 16 243 15 300 -2 26 -8 90 -38 144
-67 121 -67 253 -195 322 -312 25 -42 48 -77 52 -77 11 0 -12 72 -45 138 -45
90 -134 198 -221 266 -42 33 -76 63 -76 68 0 31 97 14 191 -33 62 -31 164
-119 174 -150 4 -10 11 -19 16 -19 16 0 -31 78 -79 131 -58 65 -143 119 -222
142 -80 23 -301 26 -491 7 -99 -10 -142 -10 -194 -1 -85 15 -114 30 -157 81
-85 98 -76 232 21 329 50 50 97 63 221 63 165 -1 288 -27 314 -67 10 -15 39
-31 83 -45 37 -13 84 -31 104 -41 l36 -18 14 27 c7 15 15 30 17 33 1 4 -9 10
-23 13 -14 4 -62 41 -108 83 -54 50 -106 87 -152 109 -82 39 -223 81 -297 89
-42 4 -31 -1 54 -24 58 -16 128 -41 155 -55 l48 -25 -110 7 c-116 7 -136 7
-281 3 -140 -4 -188 25 -228 140 -23 67 -33 77 -55 53z"/>
<path d="M8098 5803 c7 -3 16 -2 19 1 4 3 -2 6 -13 5 -11 0 -14 -3 -6 -6z"/>
<path d="M8198 5803 c12 -2 30 -2 40 0 9 3 -1 5 -23 4 -22 0 -30 -2 -17 -4z"/>
<path d="M11665 5800 c-3 -6 1 -7 9 -4 18 7 21 14 7 14 -6 0 -13 -4 -16 -10z"/>
<path d="M11748 5744 c35 -17 52 -31 52 -44 0 -13 14 -23 50 -35 29 -10 50
-23 50 -31 0 -19 -17 -17 -69 7 -51 22 -71 11 -46 -27 12 -19 12 -23 0 -28 -8
-3 -17 -1 -20 5 -12 18 -25 -2 -25 -38 0 -32 -2 -35 -25 -31 -14 3 -25 1 -25
-5 0 -5 -9 -7 -20 -4 -11 3 -20 1 -20 -4 0 -13 3 -13 349 31 335 43 341 45
341 97 0 28 -41 72 -67 74 -52 4 -75 -15 -62 -48 8 -23 33 -31 43 -14 3 5 -2
8 -12 7 -11 -1 -17 6 -17 19 0 26 46 33 69 10 20 -21 20 -39 0 -59 -23 -24
-79 -19 -174 13 -108 36 -117 39 -107 34 13 -8 7 -23 -8 -23 -9 0 -29 7 -46
15 -16 9 -43 17 -58 18 -16 1 -27 5 -25 8 2 3 -33 21 -78 40 -101 42 -120 47
-50 13z m85 -48 c4 -10 1 -13 -8 -9 -8 3 -12 9 -9 14 7 12 11 11 17 -5z m-3
-72 c0 -2 -9 0 -20 6 -11 6 -20 13 -20 16 0 2 9 0 20 -6 11 -6 20 -13 20 -16z"/>
<path d="M10978 5733 c7 -3 16 -2 19 1 4 3 -2 6 -13 5 -11 0 -14 -3 -6 -6z"/>
<path d="M10918 5653 c6 -2 18 -2 25 0 6 3 1 5 -13 5 -14 0 -19 -2 -12 -5z"/>
<path d="M11500 5630 c-9 -6 -10 -10 -3 -10 6 0 15 5 18 10 8 12 4 12 -15 0z"/>
<path d="M11705 5617 c-4 -10 -5 -21 -1 -24 10 -10 18 4 13 24 -4 17 -4 17
-12 0z"/>
<path d="M5120 5590 c0 -5 5 -10 10 -10 6 0 10 5 10 10 0 6 -4 10 -10 10 -5 0
-10 -4 -10 -10z"/>
<path d="M1414 5537 c-3 -8 -4 -129 -2 -269 3 -290 1 -282 88 -321 120 -54
535 -88 847 -69 200 12 394 41 462 68 81 32 81 31 81 335 l0 269 -735 0 c-608
0 -737 -2 -741 -13z m456 -287 c5 0 12 5 15 10 3 6 11 10 17 10 6 0 5 -6 -3
-16 -10 -13 -10 -20 5 -45 18 -30 8 -40 -14 -14 -16 20 -27 19 -33 -2 -3 -10
-4 16 -4 57 0 41 2 58 4 38 2 -21 8 -38 13 -38z m218 22 c29 4 42 -12 42 -53
0 -24 -4 -38 -10 -34 -5 3 -10 19 -10 34 0 15 -3 31 -7 34 -12 13 -33 -16 -33
-45 0 -17 -4 -27 -10 -23 -12 7 -14 118 -2 129 4 4 8 -4 10 -19 2 -18 9 -25
20 -23z m-487 -12 c24 0 29 4 29 25 0 14 5 25 10 25 6 0 10 -28 10 -65 0 -37
-4 -65 -10 -65 -5 0 -10 14 -10 31 0 27 -3 30 -27 27 -22 -2 -29 -10 -34 -33
-4 -19 -7 -4 -6 40 0 39 2 58 4 43 4 -23 9 -28 34 -28z m439 40 c0 -5 -7 -10
-15 -10 -12 0 -15 -13 -15 -55 0 -30 -4 -55 -10 -55 -5 0 -10 25 -10 55 0 48
-2 55 -20 55 -11 0 -20 5 -20 10 0 6 20 10 45 10 25 0 45 -4 45 -10z m324 -12
c14 -23 -3 -52 -33 -56 -15 -2 -21 -10 -21 -28 0 -13 -4 -24 -10 -24 -6 0 -10
29 -10 66 l0 65 31 -3 c18 -2 37 -11 43 -20z m46 -37 c0 -33 -4 -63 -10 -66
-6 -4 -10 18 -10 59 0 37 4 66 10 66 6 0 10 -26 10 -59z m339 11 c-13 -5 -11
-56 4 -71 10 -10 8 -12 -8 -9 -15 2 -21 14 -26 48 -8 60 -2 76 21 53 9 -10 13
-19 9 -21z m-1009 -43 c0 -39 -1 -40 -32 -37 -41 4 -45 36 -8 55 l25 13 -23 6
c-17 5 -20 9 -11 15 25 15 49 -9 49 -52z m70 41 c-18 -4 -26 -14 -28 -33 -2
-15 1 -28 7 -28 26 -3 30 -4 38 -12 4 -5 -5 -7 -21 -5 -35 4 -51 26 -42 61 6
26 29 37 56 28 10 -3 7 -7 -10 -11z m420 -20 c0 -16 -7 -20 -30 -20 -16 0 -30
-4 -30 -9 0 -12 29 -23 41 -15 5 3 9 0 9 -5 0 -15 -43 -14 -58 1 -33 33 10 99
50 77 10 -5 18 -19 18 -29z m254 24 c9 -8 16 -31 16 -50 0 -32 -2 -34 -34 -34
-19 0 -36 6 -39 13 -6 18 11 47 28 47 8 0 15 5 15 10 0 6 -10 10 -22 10 -19 0
-20 2 -8 10 20 13 26 12 44 -6z m116 -44 c0 -51 -18 -52 -22 -2 -2 25 -8 37
-18 37 -10 0 -16 -12 -18 -37 -4 -53 -22 -48 -22 6 0 38 3 45 23 48 40 7 57
-9 57 -52z m84 41 c22 -24 13 -41 -20 -41 -23 0 -35 -19 -14 -21 6 -1 14 -2
19 -3 29 -4 20 -17 -9 -14 -32 3 -35 6 -38 38 -3 24 2 38 14 47 23 17 28 17
48 -6z"/>
<path d="M2310 5269 c0 -25 33 -22 38 4 2 12 -3 17 -17 17 -15 0 -21 -6 -21
-21z"/>
<path d="M1690 5204 c0 -9 5 -14 12 -12 18 6 21 28 4 28 -9 0 -16 -7 -16 -16z"/>
<path d="M2175 5250 c-3 -5 3 -10 14 -10 12 0 21 5 21 10 0 6 -6 10 -14 10 -8
0 -18 -4 -21 -10z"/>
<path d="M2445 5211 c-10 -17 12 -21 25 -6 10 12 10 15 -3 15 -9 0 -18 -4 -22
-9z"/>
<path d="M2645 5250 c-3 -5 3 -10 15 -10 12 0 18 5 15 10 -3 6 -10 10 -15 10
-5 0 -12 -4 -15 -10z"/>
<path d="M10902 5530 c0 -14 2 -19 5 -12 2 6 2 18 0 25 -3 6 -5 1 -5 -13z"/>
<path d="M11593 5493 c9 -2 25 -2 35 0 9 3 1 5 -18 5 -19 0 -27 -2 -17 -5z"/>
<path d="M12153 5483 c9 -11 17 -28 17 -38 0 -14 3 -16 11 -8 19 19 6 58 -21
62 -24 3 -24 2 -7 -16z"/>
<path d="M11523 5483 c9 -2 23 -2 30 0 6 3 -1 5 -18 5 -16 0 -22 -2 -12 -5z"/>
<path d="M11443 5473 c9 -2 23 -2 30 0 6 3 -1 5 -18 5 -16 0 -22 -2 -12 -5z"/>
<path d="M11992 5470 c17 -11 53 -9 64 3 4 4 -13 7 -37 7 -33 -1 -40 -3 -27
-10z"/>
<path d="M11368 5463 c6 -2 18 -2 25 0 6 3 1 5 -13 5 -14 0 -19 -2 -12 -5z"/>
<path d="M12088 5459 c-9 -22 3 -154 13 -137 4 8 5 45 1 83 -4 39 -10 63 -14
54z"/>
<path d="M12405 5450 c-3 -5 -1 -18 4 -28 5 -10 11 -41 13 -70 2 -29 7 -47 12
-42 5 5 5 38 1 74 -6 64 -17 87 -30 66z"/>
<path d="M12477 5453 c-4 -3 -2 -12 4 -19 6 -8 9 -30 7 -50 -4 -32 -3 -34 9
-18 26 36 8 116 -20 87z"/>
<path d="M12030 5431 c-5 -11 -10 -25 -10 -32 0 -6 -8 -18 -17 -25 -17 -12
-17 -13 3 -14 25 0 37 -23 21 -39 -8 -8 -8 -11 0 -11 6 0 14 -8 16 -17 4 -15
11 25 9 48 -1 3 -2 29 -3 57 -2 29 -4 52 -5 52 -2 0 -8 -9 -14 -19z"/>
<path d="M12297 5428 c17 -8 23 -23 28 -69 6 -51 19 -80 30 -68 7 8 -19 135
-29 141 -6 4 -20 7 -31 7 -19 0 -19 -1 2 -11z"/>
<path d="M10908 5403 c6 -2 18 -2 25 0 6 3 1 5 -13 5 -14 0 -19 -2 -12 -5z"/>
<path d="M12184 5377 c3 -12 5 -36 5 -54 1 -25 5 -31 16 -27 25 10 16 88 -11
98 -10 4 -13 -1 -10 -17z"/>
<path d="M11668 5369 c-3 -8 -1 -27 4 -44 4 -16 8 -46 8 -66 0 -24 5 -39 16
-43 23 -9 24 -8 9 22 -8 15 -15 48 -16 74 -3 52 -13 80 -21 57z"/>
<path d="M11806 5355 c10 -8 25 -15 33 -15 11 0 9 4 -5 15 -10 8 -25 15 -33
15 -11 0 -9 -4 5 -15z"/>
<path d="M11775 5298 c9 -73 11 -78 37 -78 22 1 22 1 4 15 -11 9 -20 31 -23
60 -3 25 -10 48 -15 51 -5 3 -6 -16 -3 -48z"/>
<path d="M12251 5330 c-1 -32 13 -55 29 -45 8 5 8 11 -3 23 -8 10 -17 24 -20
32 -3 9 -6 5 -6 -10z"/>
<path d="M11567 5333 c22 -4 29 -21 35 -97 2 -16 8 -31 15 -33 9 -3 10 4 2 29
-5 18 -9 50 -9 70 0 36 -1 38 -32 37 -23 -1 -26 -3 -11 -6z"/>
<path d="M11458 5313 c7 -3 16 -2 19 1 4 3 -2 6 -13 5 -11 0 -14 -3 -6 -6z"/>
<path d="M11413 5248 c2 -46 6 -58 20 -62 13 -3 15 -1 8 8 -5 6 -14 34 -20 61
l-9 50 1 -57z"/>
<path d="M12095 5283 c-42 -10 -38 -23 7 -23 48 0 71 13 42 24 -17 6 -18 6
-49 -1z"/>
<path d="M10431 5267 c-19 -7 -36 -18 -39 -25 -3 -11 0 -12 16 -3 31 16 60 13
66 -6 2 -10 8 -45 11 -78 6 -50 9 -56 16 -36 5 13 8 46 7 74 -3 50 -2 51 26
54 16 1 35 8 42 15 11 11 2 13 -49 15 -34 0 -77 -4 -96 -10z"/>
<path d="M10646 5271 c-4 -5 -3 -16 0 -24 3 -8 0 -18 -6 -22 -9 -6 -9 -9 -1
-15 7 -4 15 -36 19 -71 4 -35 12 -63 17 -61 12 2 12 3 1 115 -7 80 -16 102
-30 78z"/>
<path d="M11302 5255 c0 -16 2 -22 5 -12 2 9 2 23 0 30 -3 6 -5 -1 -5 -18z"/>
<path d="M10830 5240 c0 -5 10 -15 23 -21 22 -12 22 -12 3 10 -21 23 -26 26
-26 11z"/>
<path d="M11525 5225 c7 -33 20 -51 28 -38 2 4 -4 22 -15 38 l-20 30 7 -30z"/>
<path d="M10726 5218 c5 -7 13 -44 20 -83 l11 -70 2 57 c1 61 -12 108 -29 108
-6 0 -8 -5 -4 -12z"/>
<path d="M10799 5225 c-9 -8 1 -87 12 -99 11 -12 11 13 1 67 -4 21 -10 36 -13
32z"/>
<path d="M10418 5194 c-5 -4 -8 -27 -8 -50 0 -31 7 -51 24 -71 21 -24 31 -28
76 -27 39 0 56 6 73 23 l22 23 -33 -17 c-62 -31 -138 16 -144 88 -2 22 -6 35
-10 31z"/>
<path d="M11310 5186 c0 -8 5 -18 10 -21 6 -3 10 1 10 9 0 8 -4 18 -10 21 -5
3 -10 -1 -10 -9z"/>
<path d="M11042 4748 c-17 -17 -17 -15 38 -144 28 -64 50 -120 50 -125 0 -4
-10 -11 -22 -15 -33 -10 -145 -81 -195 -122 -65 -54 -158 -179 -196 -263 -31
-69 -64 -185 -55 -195 4 -3 108 -15 253 -29 33 -3 125 -12 205 -20 80 -8 352
-35 605 -59 253 -25 482 -49 509 -52 l49 -6 -6 93 c-5 88 -22 158 -62 256 -16
39 -20 42 -63 48 -26 3 -62 7 -80 10 -30 4 -35 0 -63 -45 -74 -121 -183 -119
-254 5 -13 22 -26 60 -29 85 -6 42 -10 47 -58 70 -126 61 -268 170 -321 248
-30 43 -24 42 -132 17 -28 -6 -31 -4 -44 30 -24 68 -100 225 -109 225 -4 0
-13 -5 -20 -12z m153 -503 c30 -30 32 -64 4 -99 -22 -28 -73 -36 -108 -16 -23
12 -36 73 -21 100 23 44 89 52 125 15z"/>
<path d="M11993 4592 c-26 -37 -61 -87 -76 -111 -33 -50 -24 -50 -172 4 -80
29 -125 38 -227 47 -70 7 -130 9 -134 6 -23 -23 159 -176 285 -240 100 -50
276 -105 391 -122 52 -8 97 -13 98 -11 15 15 -169 205 -215 222 -7 3 -13 10
-13 15 0 5 34 58 75 118 41 60 75 111 75 114 0 3 -9 10 -19 16 -17 9 -26 1
-68 -58z"/>
<path d="M3221 4283 c-17 -21 -31 -47 -31 -58 0 -11 -11 -204 -25 -430 -13
-225 -33 -565 -44 -755 -11 -190 -23 -375 -26 -411 -6 -64 -5 -67 27 -105 30
-36 38 -40 83 -42 28 -1 86 -5 130 -8 44 -2 343 -20 665 -39 322 -19 710 -42
863 -51 276 -17 279 -17 305 3 15 11 33 31 39 44 9 16 29 302 61 859 l48 834
-31 41 -31 40 -949 57 c-523 31 -973 57 -1002 57 -48 1 -54 -2 -82 -36z m1215
-89 c455 -94 757 -532 679 -984 -59 -339 -284 -596 -611 -696 -47 -14 -78 -4
-56 18 10 10 15 10 22 -2 9 -14 11 -12 9 7 0 3 26 16 58 28 111 42 231 113
292 173 8 7 24 20 37 29 13 8 21 20 17 26 -3 6 -1 7 5 3 6 -3 23 10 39 29 15
20 36 46 47 58 28 33 87 155 76 159 -5 2 2 46 16 98 70 267 -3 558 -188 756
-111 119 -258 209 -403 248 -94 26 -264 31 -366 12 -47 -9 -105 -16 -130 -15
l-44 1 44 20 c104 48 310 62 457 32z m-646 -54 c12 -8 11 -10 -7 -10 -25 0
-31 -15 -10 -23 6 -2 9 -8 4 -13 -4 -4 -15 -1 -23 8 -14 14 -14 18 -3 32 17
18 19 19 39 6z m370 -35 c-12 -15 -30 -12 -30 6 0 5 10 9 21 9 18 0 19 -2 9
-15z m274 -29 c-3 -8 -12 -12 -20 -9 -21 8 -17 23 6 23 13 0 18 -5 14 -14z
m-643 -6 c5 0 9 -6 9 -14 0 -8 8 -17 18 -19 13 -4 13 -5 -4 -6 -12 0 -27 -7
-33 -15 -7 -8 -21 -12 -31 -9 -14 4 -20 0 -20 -10 0 -9 -22 -38 -48 -64 -167
-168 -250 -385 -239 -626 5 -126 31 -219 92 -341 67 -132 147 -219 282 -307
43 -28 81 -56 85 -62 6 -9 8 -9 8 1 0 7 5 10 10 7 6 -4 7 -11 4 -17 -4 -6 0
-14 7 -19 19 -11 4 -22 -20 -14 -12 3 -21 13 -21 21 0 9 -5 12 -11 8 -10 -6
-57 12 -69 27 -3 3 -15 11 -27 18 -81 42 -219 191 -280 301 -145 263 -136 610
23 867 52 85 196 239 212 229 13 -8 26 30 16 46 -5 8 -2 9 10 5 10 -4 22 -7
27 -7z m39 -60 c0 -5 -7 -10 -15 -10 -8 0 -15 5 -15 10 0 6 7 10 15 10 8 0 15
-4 15 -10z m550 -51 c0 -20 31 -30 54 -17 10 6 16 5 16 -1 0 -5 20 -21 43 -34
94 -55 164 -168 174 -278 l6 -59 -54 0 c-51 0 -198 47 -223 71 -5 5 4 3 21 -3
92 -35 149 87 61 130 -35 16 -73 6 -99 -26 -20 -26 -20 -35 -3 -77 7 -18 6
-18 -20 3 -30 23 -70 29 -81 12 -14 -22 -23 -8 -18 29 7 48 -23 81 -74 81 -38
0 -83 -37 -83 -68 0 -24 37 -72 56 -72 32 0 11 -17 -38 -31 -35 -10 -79 -14
-127 -11 l-73 4 6 46 c9 66 52 149 103 198 57 55 155 105 192 98 20 -4 30 -1
34 10 4 11 19 16 47 16 28 0 43 5 47 16 6 15 8 15 20 -2 7 -10 13 -25 13 -35z
m-553 25 c-3 -3 -12 -4 -19 -1 -8 3 -5 6 6 6 11 1 17 -2 13 -5z m-45 -261 c25
-23 32 -67 14 -101 l-16 -30 66 -41 c36 -23 67 -41 70 -41 3 0 4 17 2 38 -2
30 0 37 15 36 9 0 40 -1 68 -2 l51 -2 -7 -74 c-6 -62 -3 -84 16 -146 26 -81
62 -123 144 -171 57 -33 97 -36 155 -13 l40 16 99 -63 c253 -163 232 -152 255
-131 34 31 64 33 93 8 51 -44 24 -126 -42 -126 l-31 0 4 -57 c3 -52 1 -61 -21
-82 -36 -33 -73 -23 -93 25 -12 28 -13 43 -4 67 8 24 7 34 -2 43 -7 6 -85 57
-173 112 -88 56 -234 149 -325 208 -244 158 -413 265 -427 271 -7 3 -20 -2
-28 -11 -21 -21 -59 -30 -91 -22 -30 8 -58 66 -48 99 10 34 45 67 71 67 22 0
23 3 17 35 -10 53 2 84 39 100 35 15 62 11 89 -12z m1139 -103 c10 -6 19 -15
19 -21 0 -6 -4 -8 -9 -4 -5 3 -12 1 -16 -5 -3 -5 3 -10 14 -10 17 0 21 -6 21
-30 0 -17 -7 -44 -15 -60 -15 -30 -15 -30 12 -31 l28 -1 -25 -8 -25 -7 25 -11
c17 -7 19 -11 8 -11 -14 -1 -15 -6 -8 -31 7 -25 6 -30 -8 -30 -13 0 -13 -2 4
-15 19 -14 19 -14 -1 -16 -17 -1 -16 -2 5 -9 18 -6 20 -8 7 -9 -27 -1 -77 27
-77 44 0 8 -5 15 -12 15 -13 0 -143 -53 -308 -124 -58 -25 -110 -46 -117 -46
-17 0 -16 15 2 30 8 6 37 53 65 103 51 91 51 92 44 156 l-7 64 33 -6 c18 -4
45 -7 60 -7 l28 0 -14 -57 c-7 -32 -13 -61 -14 -65 0 -6 166 58 179 69 2 1 -1
15 -8 29 -14 32 1 88 27 104 22 13 59 13 83 0z m95 -185 c16 -39 11 -76 -14
-99 -16 -13 -17 -9 -17 60 0 41 4 74 8 74 4 0 15 -16 23 -35z m-820 -287 c29
-18 53 -35 54 -38 0 -3 -96 -46 -213 -97 -145 -63 -211 -95 -208 -105 2 -7 6
-30 9 -51 9 -77 -81 -120 -127 -61 -22 28 -28 88 -11 99 17 11 11 24 -15 31
-49 12 -79 77 -59 129 7 18 55 45 79 45 9 0 31 -14 48 -31 l31 -31 60 25 c34
14 106 46 161 71 55 25 108 46 118 46 11 0 43 -15 73 -32z m-461 -538 c3 -5 1
-10 -4 -10 -6 0 -11 5 -11 10 0 6 2 10 4 10 3 0 8 -4 11 -10z m-25 -30 c0 -5
-2 -10 -4 -10 -3 0 -8 5 -11 10 -3 6 -1 10 4 10 6 0 11 -4 11 -10z m577 -6
c-3 -3 -12 -4 -19 -1 -8 3 -5 6 6 6 11 1 17 -2 13 -5z m-259 -32 c3 -16 -2
-22 -17 -22 -24 0 -35 15 -27 36 9 23 40 13 44 -14z m154 1 c41 1 63 -2 66
-11 2 -6 15 -12 28 -12 13 0 24 -5 24 -11 0 -20 45 -4 57 21 9 18 13 20 13 8
0 -10 6 -19 13 -20 6 0 17 -2 22 -2 6 -1 11 -6 13 -11 6 -18 -72 -27 -188 -20
-113 6 -215 22 -160 24 25 1 65 21 43 21 -7 0 -9 9 -5 23 5 16 7 18 10 5 2
-13 15 -16 64 -15z m103 7 c-3 -5 -10 -10 -16 -10 -5 0 -9 5 -9 10 0 6 7 10
16 10 8 0 12 -4 9 -10z"/>
<path d="M4694 2775 c-8 -19 3 -35 26 -35 19 0 30 17 23 38 -6 17 -42 15 -49
-3z"/>
<path d="M4910 3560 c0 -5 7 -10 15 -10 8 0 15 5 15 10 0 6 -7 10 -15 10 -8 0
-15 -4 -15 -10z"/>
<path d="M4910 3536 c0 -2 7 -6 15 -10 8 -3 15 -1 15 4 0 6 -7 10 -15 10 -8 0
-15 -2 -15 -4z"/>
<path d="M4910 3499 c0 -5 5 -7 10 -4 6 3 10 8 10 11 0 2 -4 4 -10 4 -5 0 -10
-5 -10 -11z"/>
<path d="M1723 4171 c-81 -59 -113 -124 -113 -227 0 -70 7 -76 58 -50 72 38
124 132 123 227 0 90 -7 94 -68 50z m-9 -78 c-24 -43 -52 -97 -60 -120 -9 -24
-21 -43 -25 -43 -23 0 4 126 36 171 23 30 71 69 87 69 3 0 -14 -35 -38 -77z"/>
<path d="M8707 4085 c-225 -38 -421 -140 -588 -305 -311 -309 -396 -804 -205
-1194 76 -155 188 -296 306 -385 203 -153 406 -222 652 -222 240 0 428 60 622
200 154 111 254 232 336 404 120 251 137 529 49 792 -73 218 -238 431 -428
553 -218 140 -496 199 -744 157z m313 -50 c363 -55 661 -291 794 -628 101
-256 87 -574 -37 -822 -171 -342 -516 -555 -902 -555 -271 0 -508 96 -703 284
-150 145 -249 327 -293 541 -18 88 -15 294 5 390 87 400 417 722 806 785 41 6
82 13 90 15 41 8 155 3 240 -10z"/>
<path d="M8888 3999 c-10 -5 -18 -21 -18 -34 0 -19 10 -30 41 -45 60 -31 39
-58 -28 -36 -17 5 -23 3 -23 -7 0 -34 93 -39 110 -6 16 29 7 46 -36 66 -45 22
-45 38 1 37 40 -1 48 20 13 30 -31 8 -40 7 -60 -5z"/>
<path d="M8696 3975 c-35 -32 -35 -77 0 -112 21 -21 32 -24 62 -19 70 11 96
83 47 131 -31 32 -74 32 -109 0z m92 -17 c7 -7 12 -24 12 -38 0 -14 -5 -31
-12 -38 -7 -7 -24 -12 -38 -12 -14 0 -31 5 -38 12 -7 7 -12 24 -12 38 0 14 5
31 12 38 7 7 24 12 38 12 14 0 31 -5 38 -12z"/>
<path d="M9030 3958 c-26 -28 -27 -89 -1 -112 20 -18 69 -24 90 -12 20 13 1
26 -28 20 -23 -5 -32 -1 -45 19 -35 53 18 100 74 65 27 -17 37 -2 15 22 -25
27 -78 26 -105 -2z"/>
<path d="M8585 3937 c-8 -20 -15 -41 -15 -47 0 -6 -18 -1 -40 11 -22 12 -43
19 -47 16 -7 -7 20 -101 36 -126 5 -7 14 -10 20 -7 8 5 6 18 -4 43 -18 42 -13
53 13 30 26 -24 31 -22 44 15 l11 32 19 -44 c12 -29 22 -40 29 -33 6 6 2 29
-12 69 -30 79 -36 84 -54 41z"/>
<path d="M9204 3919 c-23 -12 -44 -49 -44 -78 0 -32 46 -71 83 -71 94 0 105
140 12 155 -16 2 -40 0 -51 -6z m67 -29 c22 -12 26 -59 7 -78 -7 -7 -24 -12
-38 -12 -48 0 -67 45 -33 82 18 20 36 23 64 8z"/>
<path d="M9362 3808 c-34 -92 -35 -98 -17 -98 9 0 34 9 57 21 35 18 40 19 34
4 -11 -29 -19 -95 -11 -95 18 0 125 74 125 87 0 11 -11 8 -45 -11 -48 -29 -52
-25 -35 33 14 49 4 55 -47 26 l-45 -25 7 33 c4 17 9 42 12 55 10 43 -16 21
-35 -30z"/>
<path d="M8305 3817 c5 -25 2 -37 -14 -51 -28 -26 -26 -32 9 -40 19 -3 34 -15
42 -31 14 -31 22 -32 36 -1 8 17 22 27 47 32 l36 6 -23 25 c-16 18 -22 33 -19
60 l3 35 -30 -17 c-27 -17 -31 -17 -53 -1 -34 23 -41 20 -34 -17z"/>
<path d="M8715 3796 c-154 -36 -272 -101 -386 -215 -147 -147 -216 -303 -226
-511 -8 -169 30 -312 119 -451 144 -224 378 -351 648 -352 138 -1 221 17 335
72 454 220 586 800 270 1184 -102 123 -214 200 -370 253 -66 22 -101 27 -205
30 -82 3 -145 -1 -185 -10z m145 -57 c0 -21 -4 -39 -10 -39 -5 0 -10 13 -10
29 0 16 -6 32 -12 34 -10 4 -10 8 2 16 21 15 30 4 30 -40z m83 30 c5 -9 7 -28
3 -42 -5 -20 -13 -27 -31 -27 -36 0 -51 34 -30 66 18 27 42 28 58 3z m-137
-13 c9 -36 1 -60 -19 -64 -26 -5 -47 16 -47 48 0 33 7 40 36 40 17 0 25 -7 30
-24z m227 3 c5 -9 7 -28 3 -42 -5 -22 -12 -27 -36 -27 -37 0 -49 31 -25 66 18
27 42 28 58 3z m-313 -24 c12 -31 4 -52 -23 -61 -24 -8 -47 18 -47 51 0 28 8
35 37 35 16 0 27 -8 33 -25z m438 -30 c6 -47 -47 -75 -68 -36 -16 32 7 73 39
69 20 -2 27 -9 29 -33z m-530 13 c16 -16 15 -53 -2 -67 -29 -24 -73 20 -61 60
7 22 45 25 63 7z m585 -14 c8 -8 -24 -74 -36 -74 -5 0 -6 8 -1 18 4 9 7 27 7
40 -1 20 16 30 30 16z m-659 -40 c9 -20 14 -39 10 -43 -4 -3 -9 0 -12 8 -2 7
-13 22 -24 33 -10 10 -16 23 -13 28 11 18 21 11 39 -26z m724 4 c18 -18 15
-42 -7 -62 -42 -38 -86 18 -45 58 19 19 36 20 52 4z m-774 -17 c10 -11 16 -30
14 -43 -2 -18 -9 -23 -33 -23 -23 0 -32 6 -39 27 -17 48 25 76 58 39z m513 4
c169 -40 318 -150 410 -305 12 -19 33 -70 48 -113 98 -292 -30 -611 -305 -760
-93 -51 -176 -70 -295 -70 -182 0 -318 55 -446 183 -81 80 -113 131 -156 244
-25 64 -27 84 -27 201 0 115 3 138 26 203 95 265 325 430 598 431 47 1 113 -6
147 -14z m327 -31 c32 -12 9 -84 -28 -84 -16 0 -36 21 -36 39 0 16 28 51 41
51 4 0 14 -3 23 -6z m-926 -84 c5 -30 -11 -44 -42 -36 -34 8 -47 53 -21 73 16
11 22 11 39 -1 12 -7 23 -23 24 -36z m1010 -6 c2 -11 -6 -28 -17 -38 -39 -36
-92 5 -56 44 24 27 69 24 73 -6z m-1083 -30 c14 -9 25 -23 25 -31 0 -11 -6
-10 -26 6 -15 11 -30 18 -35 15 -5 -3 -9 2 -9 10 0 20 14 20 45 0z m1125 -13
c0 -11 -62 -62 -68 -56 -3 2 6 17 19 34 23 29 49 41 49 22z m-1150 -31 c14
-10 21 -22 17 -26 -4 -4 -13 -2 -19 4 -7 7 -20 12 -30 12 -10 0 -18 7 -18 15
0 20 20 19 50 -5z m1189 -24 c26 -32 -33 -82 -64 -56 -18 15 -19 42 -3 58 16
16 53 15 67 -2z m-1214 -21 c22 -18 26 -24 13 -25 -9 0 -20 5 -23 10 -3 6 -15
10 -26 10 -10 0 -19 7 -19 15 0 22 21 18 55 -10z m-20 -45 c32 -36 -4 -73 -51
-52 -23 11 -33 49 -17 65 13 14 50 7 68 -13z m1267 -5 c1 -13 -61 -49 -70 -40
-4 3 2 13 13 20 11 8 25 19 30 24 12 12 26 9 27 -4z m-1311 -65 c23 -13 26
-58 4 -66 -43 -17 -92 29 -65 61 15 18 34 19 61 5z m1357 -41 c4 -32 -37 -55
-69 -39 -41 22 -14 73 36 68 24 -2 31 -8 33 -29z m-1358 -59 c0 -4 -18 -7 -40
-6 -30 0 -40 5 -40 17 0 15 5 16 40 7 22 -6 40 -14 40 -18z m1375 -1 c9 -14 2
-19 -39 -29 -21 -4 -39 -4 -42 1 -3 5 8 12 25 15 17 4 31 10 31 15 0 13 17 11
25 -2z m-1395 -44 c23 -28 8 -50 -35 -50 -41 0 -54 17 -41 51 7 18 60 18 76
-1z m1391 -5 c36 -20 17 -70 -26 -70 -45 0 -62 54 -22 70 29 11 26 11 48 0z
m-7 -86 c28 -11 38 -41 20 -58 -21 -22 -61 -20 -74 3 -13 25 -13 27 6 45 17
18 24 19 48 10z m-1384 -34 c0 -5 -11 -10 -24 -10 -13 0 -31 -3 -40 -6 -11 -4
-16 -1 -16 10 0 12 10 16 40 16 22 0 40 -4 40 -10z m0 -39 c0 -5 -11 -12 -24
-15 -13 -3 -31 -9 -40 -12 -10 -4 -16 -1 -16 9 0 10 12 17 33 20 17 2 35 5 40
5 4 1 7 -2 7 -7z m1391 -21 c36 -20 17 -70 -26 -70 -25 0 -45 18 -45 40 0 35
34 49 71 30z m-1381 -30 c0 -5 -9 -10 -19 -10 -11 0 -26 -7 -34 -15 -13 -13
-17 -13 -27 0 -10 12 -9 16 1 19 8 2 21 7 29 9 26 9 50 7 50 -3z m5 -50 c-3
-5 -15 -10 -26 -10 -11 0 -22 -7 -25 -15 -5 -12 -10 -13 -20 -4 -20 17 -17 27
9 32 43 8 68 7 62 -3z m1375 -27 c0 -12 -7 -14 -37 -8 -52 9 -70 29 -20 22 22
-3 37 -2 37 4 0 6 5 7 10 4 6 -3 10 -13 10 -22z m-1352 -40 c5 -31 -39 -59
-67 -43 -43 22 -17 73 34 68 22 -2 31 -9 33 -25z m1313 5 c19 0 29 -4 29 -14
0 -17 -16 -18 -58 -3 -18 6 -29 15 -26 20 3 5 10 6 16 3 6 -4 24 -7 39 -6z
m-10 -46 c40 -33 3 -76 -47 -54 -26 12 -32 40 -12 60 17 17 32 15 59 -6z
m-1273 -41 c7 -46 -57 -70 -78 -30 -9 17 -8 25 6 40 25 28 68 22 72 -10z m3
-71 c-18 -17 -37 -27 -43 -24 -7 5 0 16 18 31 43 34 65 29 25 -7z m1193 14
c26 -10 40 -43 25 -60 -24 -29 -79 -11 -79 26 0 16 18 40 31 40 4 0 15 -3 23
-6z m-1126 -66 c3 -22 -2 -30 -22 -39 -33 -15 -56 -5 -56 24 0 31 19 48 50 45
19 -2 26 -10 28 -30z m1084 -15 c37 -34 9 -86 -36 -65 -29 13 -39 47 -19 67
19 19 32 19 55 -2z m-1022 -42 c0 -5 -7 -14 -15 -21 -8 -7 -15 -19 -15 -26 0
-8 -6 -14 -13 -14 -27 0 -27 14 0 42 27 28 43 35 43 19z m968 -38 c16 -6 19
-12 12 -23 -8 -12 -14 -10 -39 14 -17 16 -28 34 -24 39 4 6 11 3 18 -6 6 -9
21 -20 33 -24z m-954 -25 c-11 -11 -18 -22 -16 -24 3 -5 -6 -6 -18 -2 -5 2 3
18 17 37 16 20 29 29 31 22 2 -7 -4 -21 -14 -33z m916 2 c16 -30 3 -60 -25
-60 -31 0 -58 36 -44 62 13 24 55 23 69 -2z m-832 -31 c4 -34 -32 -68 -56 -53
-24 16 -27 42 -6 65 25 27 58 21 62 -12z m752 -13 c20 -25 8 -61 -20 -64 -30
-3 -54 29 -45 59 8 23 47 26 65 5z m-670 -34 c0 -54 -72 -73 -78 -20 -4 34 32
62 60 47 10 -5 18 -18 18 -27z m588 -4 c19 -19 14 -56 -8 -68 -15 -8 -24 -6
-40 10 -21 21 -23 29 -14 54 7 19 45 21 62 4z m-518 -12 c28 -35 -11 -93 -47
-70 -24 15 -28 48 -8 68 20 20 39 20 55 2z m92 -30 c13 -18 9 -35 -12 -56 -26
-26 -60 -12 -60 25 0 45 48 66 72 31z m348 4 c24 -45 -18 -86 -53 -51 -27 27
-16 71 18 71 14 0 29 -8 35 -20z m-95 -6 c20 -21 16 -63 -8 -78 -15 -9 -22 -7
-38 13 -23 28 -24 45 -3 65 20 20 29 20 49 0z m-215 -18 c0 -13 3 -31 6 -40 4
-11 1 -16 -10 -16 -12 0 -16 10 -16 40 0 22 5 40 10 40 6 0 10 -11 10 -24z
m89 10 c7 -8 11 -27 9 -43 -3 -24 -8 -28 -33 -28 -25 0 -30 4 -33 28 -4 30 12
57 33 57 7 0 18 -6 24 -14z"/>
<path d="M8896 3755 c-8 -21 1 -35 20 -35 10 0 14 8 12 22 -4 27 -23 34 -32
13z"/>
<path d="M8760 3735 c0 -16 6 -25 15 -25 9 0 15 9 15 25 0 16 -6 25 -15 25 -9
0 -15 -9 -15 -25z"/>
<path d="M8986 3745 c-8 -21 1 -35 20 -35 10 0 14 8 12 22 -4 27 -23 34 -32
13z"/>
<path d="M8670 3721 c0 -24 18 -37 31 -24 13 13 1 43 -17 43 -8 0 -14 -9 -14
-19z"/>
<path d="M9107 3700 c-6 -22 7 -35 23 -25 15 9 12 45 -4 45 -7 0 -16 -9 -19
-20z"/>
<path d="M8585 3700 c-7 -12 12 -40 27 -40 13 0 6 43 -9 47 -6 2 -14 -1 -18
-7z"/>
<path d="M9237 3653 c-10 -9 -9 -43 1 -43 12 0 32 23 32 37 0 14 -22 18 -33 6z"/>
<path d="M8464 3637 c-7 -20 3 -37 22 -37 18 0 18 24 -1 40 -12 10 -16 9 -21
-3z"/>
<path d="M8742 3635 c-111 -25 -208 -80 -297 -170 -92 -91 -136 -165 -165
-281 -52 -204 7 -427 153 -573 71 -71 150 -123 232 -151 358 -123 732 91 809
463 29 140 13 259 -54 392 -73 147 -191 248 -360 307 -74 26 -233 33 -318 13z
m438 -145 c11 -11 20 -27 20 -35 0 -13 7 -15 33 -10 45 9 80 -20 80 -65 0 -42
-26 -63 -69 -55 l-32 5 -78 -146 c-44 -81 -85 -148 -91 -150 -39 -12 -45 -15
-41 -19 3 -3 75 2 161 12 155 16 156 16 159 42 4 33 43 54 72 39 40 -21 48
-58 20 -89 -15 -17 -15 -20 10 -49 28 -34 28 -35 20 -67 -12 -45 -83 -34 -105
16 l-12 26 -411 -42 c-226 -23 -412 -42 -413 -43 -1 0 -4 -14 -8 -31 -13 -60
-90 -62 -117 -3 -10 21 -9 31 4 55 16 27 16 29 -2 39 -40 21 -32 102 11 113
29 8 76 -19 83 -47 7 -28 20 -31 89 -19 l38 6 -30 31 c-45 47 -71 112 -71 181
0 83 14 126 60 184 131 165 401 129 481 -64 l23 -55 34 60 33 60 -25 31 c-32
38 -33 73 -4 93 30 21 54 20 78 -4z m-210 -607 c0 -5 -36 -73 -80 -153 l-79
-145 24 -13 c45 -23 47 -87 3 -111 -25 -14 -29 -14 -55 5 -15 12 -29 30 -31
41 -3 19 -6 20 -32 10 -58 -22 -110 46 -75 99 13 21 23 25 52 22 l37 -3 64
120 c36 66 70 123 76 127 15 10 96 10 96 1z"/>
<path d="M8771 3364 c-26 -33 -26 -49 -1 -74 53 -53 136 14 96 75 -23 34 -68
34 -95 -1z"/>
<path d="M8927 3303 c-12 -12 -7 -43 7 -43 17 0 26 -22 26 -65 0 -65 -41 -129
-102 -161 -59 -31 -188 -3 -188 40 0 22 -17 28 -40 16 -30 -16 -24 -32 26 -64
86 -54 165 -55 245 -2 75 50 105 126 87 223 -10 54 -14 63 -33 63 -12 0 -25
-3 -28 -7z"/>
<path d="M8615 3255 c-14 -13 -25 -33 -25 -43 0 -28 32 -52 68 -52 25 0 35 6
47 29 35 70 -35 122 -90 66z"/>
<path d="M9312 3598 c-7 -7 -12 -18 -12 -25 0 -18 29 -16 37 3 8 21 -10 37
-25 22z"/>
<path d="M8364 3555 c-3 -8 -3 -19 1 -25 11 -17 35 -11 35 9 0 23 -29 36 -36
16z"/>
<path d="M9376 3535 c-17 -18 -13 -35 9 -35 16 0 29 30 17 42 -6 6 -16 3 -26
-7z"/>
<path d="M9454 3415 c-4 -9 -3 -19 0 -23 9 -8 42 12 39 24 -4 16 -33 16 -39
-1z"/>
<path d="M8220 3355 c0 -21 28 -31 43 -16 9 9 8 14 -3 21 -22 14 -40 12 -40
-5z"/>
<path d="M8185 3280 c-9 -15 4 -30 26 -30 23 0 26 25 3 34 -21 8 -22 8 -29 -4z"/>
<path d="M9524 3259 c-3 -6 -2 -15 3 -20 13 -13 43 -1 43 17 0 16 -36 19 -46
3z"/>
<path d="M8150 3135 c0 -9 9 -15 25 -15 16 0 25 6 25 15 0 9 -9 15 -25 15 -16
0 -25 -6 -25 -15z"/>
<path d="M9563 3133 c-23 -9 -15 -35 10 -31 12 2 22 9 22 17 0 16 -14 22 -32
14z"/>
<path d="M9561 3041 c-18 -12 -5 -31 20 -31 14 0 19 6 17 17 -4 20 -18 26 -37
14z"/>
<path d="M9555 2950 c-8 -13 3 -30 20 -30 20 0 30 21 14 31 -18 11 -26 11 -34
-1z"/>
<path d="M8185 2820 c-3 -5 -4 -14 -1 -19 9 -13 46 -1 46 15 0 16 -36 19 -45
4z"/>
<path d="M9502 2763 c2 -10 13 -19 26 -21 24 -4 29 7 10 26 -18 18 -40 15 -36
-5z"/>
<path d="M8216 2735 c-6 -17 17 -31 34 -20 5 3 10 13 10 21 0 19 -36 18 -44
-1z"/>
<path d="M9440 2655 c0 -18 24 -30 40 -20 8 5 8 11 -1 21 -15 19 -39 18 -39
-1z"/>
<path d="M8293 2615 c-3 -9 -3 -18 0 -22 10 -10 37 6 37 22 0 20 -29 20 -37 0z"/>
<path d="M9384 2588 c-9 -15 27 -41 40 -28 6 6 5 15 -4 25 -15 18 -26 19 -36
3z"/>
<path d="M9292 2484 c2 -11 11 -20 22 -22 13 -3 17 1 14 14 -2 11 -11 20 -22
22 -13 3 -17 -1 -14 -14z"/>
<path d="M8456 2464 c-3 -9 -4 -20 -1 -24 9 -15 35 1 35 21 0 23 -25 25 -34 3z"/>
<path d="M9212 2433 c5 -26 38 -29 38 -4 0 15 -6 21 -21 21 -14 0 -19 -5 -17
-17z"/>
<path d="M8542 2428 c-7 -7 -12 -18 -12 -25 0 -18 29 -16 37 3 8 21 -10 37
-25 22z"/>
<path d="M9137 2404 c-9 -10 12 -46 24 -39 14 9 11 45 -4 45 -8 0 -17 -3 -20
-6z"/>
<path d="M8613 2384 c-7 -18 11 -39 26 -30 17 11 13 46 -4 46 -9 0 -18 -7 -22
-16z"/>
<path d="M8713 2373 c-15 -5 -17 -39 -4 -47 5 -3 14 1 21 9 14 16 1 44 -17 38z"/>
<path d="M9050 2366 c0 -7 7 -19 15 -26 12 -10 16 -9 21 3 3 9 3 21 -1 27 -9
15 -35 12 -35 -4z"/>
<path d="M8965 2350 c-8 -13 14 -42 26 -34 5 3 9 14 9 25 0 20 -24 26 -35 9z"/>
<path d="M8840 2336 c0 -17 5 -26 16 -26 10 0 14 7 12 22 -5 32 -28 35 -28 4z"/>
<path d="M8170 3703 c0 -4 14 -22 32 -40 l32 -33 -61 0 c-34 0 -64 -3 -66 -7
-8 -13 92 -95 110 -91 15 3 12 8 -14 32 -18 16 -33 32 -33 35 0 3 27 4 60 3
76 -5 78 8 11 66 -46 39 -71 52 -71 35z"/>
<path d="M9563 3609 c-4 -21 -15 -34 -37 -43 l-31 -13 33 -17 c25 -13 32 -23
32 -46 0 -34 23 -41 39 -13 6 12 20 16 46 15 33 -2 36 0 30 15 -15 35 -17 61
-6 67 6 4 11 14 11 22 0 12 -7 14 -31 9 -25 -6 -34 -3 -45 14 -21 29 -33 26
-41 -10z"/>
<path d="M8053 3530 c-47 -19 -57 -87 -18 -125 48 -49 120 -23 131 47 5 30 2
41 -19 62 -27 27 -55 31 -94 16z m71 -36 c19 -18 21 -55 4 -72 -7 -7 -24 -12
-38 -12 -14 0 -31 5 -38 12 -7 7 -12 24 -12 38 0 14 5 31 12 38 17 17 54 15
72 -4z"/>
<path d="M9685 3415 c-55 -21 -60 -26 -58 -51 6 -70 74 -105 126 -64 31 25 35
65 12 110 -9 17 -17 30 -18 29 -1 0 -29 -11 -62 -24z m63 -48 c4 -37 -13 -57
-49 -57 -22 0 -32 6 -39 26 -13 34 -14 32 23 48 45 20 61 16 65 -17z"/>
<path d="M7961 3347 c-6 -8 -14 -28 -17 -45 -5 -25 -1 -36 19 -56 55 -55 142
-16 135 58 -4 43 -21 39 -29 -8 -7 -43 -24 -58 -54 -50 -45 14 -61 58 -30 84
8 7 15 16 15 21 0 14 -26 11 -39 -4z"/>
<path d="M9733 3236 c-28 -6 -54 -14 -57 -17 -10 -10 9 -92 23 -97 11 -4 13 4
8 37 -3 22 -1 41 4 41 5 0 12 1 16 3 4 1 10 -11 13 -27 6 -37 25 -31 25 8 0
16 6 31 12 33 13 5 17 -2 28 -51 4 -21 9 -26 17 -18 16 16 -2 96 -22 98 -8 1
-38 -3 -67 -10z"/>
<path d="M7910 3046 l0 -56 76 0 c56 0 75 3 72 13 -3 6 -17 13 -31 15 -24 3
-27 8 -27 38 0 45 -24 41 -28 -4 -5 -45 -30 -42 -34 5 -5 62 -28 53 -28 -11z"/>
<path d="M9701 3082 c-21 -7 -11 -21 17 -24 23 -2 28 -8 30 -36 4 -42 26 -37
30 7 4 43 26 35 30 -12 2 -24 8 -37 18 -37 10 0 14 13 14 50 0 28 -3 50 -7 51
-24 3 -123 4 -132 1z"/>
<path d="M8040 2917 c0 -34 -4 -47 -14 -47 -8 0 -16 12 -18 27 -5 42 -28 41
-28 -1 0 -25 -4 -36 -15 -36 -8 0 -15 9 -15 19 0 26 -10 51 -21 51 -10 0 -12
-44 -2 -79 6 -22 9 -23 65 -17 33 4 65 9 73 12 17 7 9 83 -11 104 -12 12 -14
8 -14 -33z"/>
<path d="M9693 2850 c-28 -11 -45 -44 -41 -77 5 -41 28 -41 28 -1 0 19 5 39
12 46 18 18 53 14 74 -9 18 -20 18 -22 1 -51 -21 -37 -9 -57 17 -29 24 26 24
78 0 101 -24 23 -62 32 -91 20z"/>
<path d="M8015 2790 c-37 -14 -48 -37 -42 -86 7 -67 15 -70 91 -43 36 12 66
26 66 31 0 28 -36 91 -57 99 -28 10 -31 10 -58 -1z m57 -32 c34 -28 30 -48
-15 -68 -46 -21 -52 -18 -62 21 -5 21 -2 30 16 43 28 19 40 20 61 4z"/>
<path d="M9610 2672 c-37 -38 -40 -79 -6 -111 34 -32 83 -31 113 3 29 34 29
68 1 100 -37 41 -72 43 -108 8z m78 -18 c30 -21 29 -59 -3 -80 -23 -15 -27
-15 -50 0 -29 19 -33 56 -9 80 19 20 34 20 62 0z"/>
<path d="M8155 2600 c-16 -18 -27 -21 -58 -16 l-38 6 16 -30 c14 -27 14 -33 0
-60 l-16 -30 41 0 c29 0 43 -5 52 -20 18 -28 25 -25 32 13 5 25 14 36 39 46
l32 12 -31 16 c-22 11 -34 26 -40 50 l-9 36 -20 -23z"/>
<path d="M9526 2543 c-3 -4 8 -22 26 -40 l32 -33 -63 0 c-76 0 -77 -11 -6 -69
32 -27 53 -37 59 -31 7 7 -2 20 -24 40 l-35 29 63 1 c77 0 80 12 13 68 -53 45
-54 46 -65 35z"/>
<path d="M8248 2394 c-55 -34 -72 -54 -47 -54 7 0 27 10 46 21 19 12 36 19 39
16 3 -3 0 -24 -7 -46 -7 -23 -9 -44 -5 -48 4 -4 26 2 48 15 23 12 43 21 45 19
2 -2 -3 -22 -11 -45 -14 -38 -12 -52 5 -52 10 0 55 138 47 145 -3 4 -25 -3
-48 -15 -23 -12 -44 -20 -46 -18 -2 3 1 20 6 39 21 71 11 74 -72 23z"/>
<path d="M9368 2380 c-13 -23 -24 -30 -48 -30 -35 0 -38 -10 -9 -36 16 -14 20
-27 16 -51 -6 -35 2 -40 32 -21 15 9 25 9 46 0 38 -17 42 -15 37 19 -3 22 2
37 18 54 l23 25 -32 6 c-21 5 -37 16 -47 35 -8 16 -16 29 -17 29 -1 0 -10 -14
-19 -30z"/>
<path d="M8472 2300 c-32 -13 -53 -66 -40 -102 12 -33 35 -48 75 -48 85 0 109
105 34 145 -34 17 -37 17 -69 5z m68 -40 c25 -25 25 -45 -1 -71 -14 -14 -27
-18 -42 -14 -47 14 -57 63 -19 93 22 17 39 15 62 -8z"/>
<path d="M9204 2274 c3 -9 9 -27 12 -41 6 -23 5 -24 -14 -14 -31 16 -41 14
-48 -14 -8 -34 -21 -32 -29 5 -7 30 -21 47 -32 36 -9 -9 40 -136 52 -136 7 0
17 18 24 40 6 22 15 40 19 40 4 0 21 -9 37 -20 53 -35 57 -23 24 65 -12 34
-26 55 -36 55 -10 0 -13 -6 -9 -16z"/>
<path d="M8627 2243 c-15 -14 -5 -23 27 -23 40 0 59 -19 54 -56 -5 -40 -32
-53 -68 -32 -34 19 -52 6 -26 -20 24 -25 85 -21 107 7 28 35 25 85 -7 110 -26
20 -74 28 -87 14z"/>
<path d="M8785 2214 c-25 -25 -15 -57 25 -75 46 -22 47 -45 2 -41 -45 3 -38
-22 7 -26 69 -7 82 50 19 81 -21 10 -38 26 -38 34 0 12 8 14 45 9 48 -8 61 5
26 24 -29 15 -67 12 -86 -6z"/>
<path d="M8940 2210 c-21 -21 -26 -69 -10 -100 15 -28 61 -40 97 -25 54 23 68
73 32 119 -26 33 -88 37 -119 6z m90 -20 c27 -27 25 -56 -5 -76 -39 -26 -75
-6 -75 40 0 53 43 73 80 36z"/>
<path d="M1857 3933 c-18 -5 -18 -6 -1 -24 12 -14 31 -19 66 -19 52 0 53 1 38
31 -11 19 -56 24 -103 12z"/>
<path d="M1981 3909 c9 -17 13 -19 19 -8 11 16 4 29 -16 29 -12 0 -13 -4 -3
-21z"/>
<path d="M1730 3877 c-70 -39 -80 -42 -148 -41 -77 1 -84 -10 -21 -36 26 -11
36 -9 90 15 33 15 63 24 66 21 3 -3 -9 -19 -26 -36 -17 -17 -31 -26 -31 -18 0
10 -3 9 -10 -2 -6 -9 -6 -18 1 -25 7 -7 23 5 50 35 51 57 87 80 124 80 30 0
29 -1 -36 -65 -37 -36 -65 -65 -63 -65 11 0 144 103 144 112 0 16 -40 68 -53
68 -7 0 -46 -19 -87 -43z"/>
<path d="M2014 3889 c-14 -16 -15 -21 -3 -36 7 -10 15 -20 16 -22 1 -2 9 1 17
8 8 6 20 10 27 9 26 -6 18 27 -10 44 -28 15 -30 15 -47 -3z"/>
<path d="M1931 3833 c18 -21 35 -40 37 -43 2 -2 11 1 21 7 17 10 18 9 14 -10
-5 -20 -4 -21 11 -6 16 15 16 18 -4 52 -20 34 -26 37 -68 37 l-46 0 35 -37z"/>
<path d="M1871 3803 c-12 -41 -14 -73 -6 -73 15 0 85 42 85 51 0 11 -50 58
-62 59 -4 0 -12 -17 -17 -37z"/>
<path d="M10710 3818 c-51 -34 -80 -83 -80 -133 0 -78 68 -143 151 -145 21 0
76 -19 132 -45 53 -25 106 -45 117 -45 21 0 201 45 290 73 l45 14 -160 78
c-88 42 -187 90 -220 106 -33 16 -80 46 -105 68 -60 52 -120 62 -170 29z"/>
<path d="M1344 3801 c-83 -48 -134 -148 -134 -261 0 -33 3 -60 8 -60 20 1 30
21 35 77 7 82 48 157 104 193 49 31 123 44 171 31 46 -14 40 -5 -18 24 -64 32
-103 31 -166 -4z"/>
<path d="M1812 3778 c-23 -18 -42 -36 -42 -40 0 -3 15 -8 33 -10 30 -3 33 0
44 37 7 21 11 40 9 42 -1 2 -21 -12 -44 -29z"/>
<path d="M2020 3770 c0 -5 5 -10 10 -10 6 0 10 5 10 10 0 6 -4 10 -10 10 -5 0
-10 -4 -10 -10z"/>
<path d="M1575 3760 c3 -6 12 -10 19 -10 8 0 19 -6 25 -14 17 -20 -16 -133
-50 -171 -15 -16 -38 -42 -50 -56 -13 -14 -31 -29 -39 -32 -8 -3 -2 -6 15 -6
21 -1 26 -4 18 -12 -8 -8 -34 -8 -97 0 -112 15 -196 0 -196 -36 0 -34 44 -146
81 -209 48 -80 168 -205 229 -238 51 -28 106 -32 153 -12 12 6 17 4 17 -8 0
-9 7 -16 15 -16 9 0 18 -7 21 -15 7 -17 34 -21 34 -4 0 6 7 3 16 -5 26 -27 70
-14 58 17 -3 10 -1 17 5 17 6 0 11 -6 11 -14 0 -8 5 -18 10 -21 18 -11 50 6
50 25 0 13 5 17 15 14 18 -7 47 14 39 27 -3 5 2 12 10 15 9 3 16 14 16 24 0
13 11 19 39 24 46 7 89 51 129 133 23 46 24 55 12 63 -13 8 -13 10 2 10 18 0
33 33 22 51 -3 6 -2 14 3 18 6 3 14 25 18 49 7 41 6 42 -21 42 -26 0 -27 0 -9
-20 10 -11 13 -20 7 -20 -7 0 -12 -8 -12 -17 0 -13 -4 -11 -13 7 -7 14 -19 26
-28 28 -12 2 -15 -10 -14 -68 1 -49 -2 -70 -11 -70 -16 0 -27 -31 -14 -44 5
-5 10 -15 10 -20 0 -6 -7 -2 -15 8 -14 18 -16 18 -72 1 -32 -10 -70 -24 -86
-32 -18 -9 -37 -11 -59 -5 -42 10 -48 30 -8 24 16 -2 30 0 30 5 0 6 25 30 55
54 33 27 53 49 50 58 -3 9 0 11 10 7 21 -8 19 11 -6 51 l-22 35 -29 -31 c-41
-44 -56 -38 -19 8 17 21 31 46 31 54 0 16 -60 42 -69 30 -3 -5 -13 -13 -21
-20 -13 -10 -15 -4 -17 35 -2 42 -1 44 8 20 10 -26 12 -27 34 -12 19 13 23 13
28 0 6 -15 75 -42 84 -32 12 11 -40 56 -58 51 -14 -5 -16 -1 -12 14 3 13 0 23
-10 27 -9 3 -24 18 -33 32 -16 25 -16 26 -1 13 20 -16 30 -12 18 8 -14 22 -51
3 -52 -27 -2 -25 -2 -25 -6 -4 -5 24 -12 25 -70 6 -13 -4 -11 0 7 14 13 11 27
19 30 17 3 -2 12 0 19 4 10 7 10 18 -2 57 -13 46 -16 49 -49 50 -19 1 -41 5
-48 9 -7 4 -16 2 -22 -6 -7 -11 -11 -11 -15 -1 -2 6 -14 12 -24 12 -11 0 -33
7 -49 15 -49 25 -82 36 -75 25z m90 -60 c4 -13 -1 -30 -14 -46 -22 -29 -26
-20 -15 35 7 35 20 40 29 11z m88 -28 c-10 -10 -20 -14 -22 -9 -2 5 3 13 10
18 24 15 30 10 12 -9z m-13 -130 c0 -4 -15 -13 -32 -21 -18 -7 -62 -41 -97
-75 -35 -33 -59 -52 -53 -41 6 11 19 29 31 39 25 22 18 40 -10 26 -10 -6 -19
-7 -19 -2 0 4 39 24 88 44 48 19 88 36 90 37 1 0 2 -2 2 -7z m-362 -93 c26 -7
50 -14 54 -18 4 -3 -19 -35 -51 -71 -67 -74 -78 -73 -105 7 -21 61 -20 72 7
83 30 12 41 12 95 -1z m450 -73 c-2 -1 -12 -8 -22 -16 -18 -14 -18 -14 -6 7 8
12 18 19 23 16 4 -3 7 -6 5 -7z m157 -56 c3 -6 -1 -7 -9 -4 -18 7 -21 14 -7
14 6 0 13 -4 16 -10z m-225 -3 c0 -2 -15 -16 -32 -33 l-33 -29 29 33 c28 30
36 37 36 29z m119 -37 c-31 -38 -39 -46 -39 -35 0 6 61 75 67 75 2 0 -11 -18
-28 -40z m-132 -125 c17 12 23 12 23 3 -1 -30 -47 -47 -148 -54 -94 -6 -102
-5 -132 16 -30 22 -60 73 -60 103 0 10 41 0 147 -35 136 -45 148 -47 170 -33z
m154 -136 c-17 -14 -27 -17 -35 -9 -15 15 -36 12 -36 -6 0 -19 -51 -16 -58 4
-6 18 35 31 98 31 l55 0 -24 -20z"/>
<path d="M1930 3744 l-45 -23 40 0 c29 -1 43 4 52 19 18 28 4 30 -47 4z"/>
<path d="M1997 3736 c-6 -15 1 -26 15 -26 4 0 8 9 8 20 0 23 -15 27 -23 6z"/>
<path d="M1863 3683 c3 -10 8 -30 11 -45 10 -45 38 -29 56 31 9 31 9 31 -31
31 -34 0 -40 -3 -36 -17z"/>
<path d="M1941 3670 c-15 -45 -14 -49 9 -43 29 8 33 19 17 49 l-14 27 -12 -33z"/>
<path d="M12044 3671 c-21 -16 -59 -33 -84 -39 -58 -12 -992 -247 -1085 -272
-49 -13 -88 -17 -133 -13 -55 5 -67 3 -102 -21 -65 -43 -77 -127 -30 -204 43
-70 160 -83 217 -24 12 13 54 27 123 42 101 21 280 65 690 172 335 87 400 100
473 98 57 -1 74 2 102 21 45 31 65 68 65 121 0 122 -137 191 -236 119z"/>
<path d="M1988 3665 c5 -26 16 -32 27 -15 7 11 -11 40 -25 40 -4 0 -5 -11 -2
-25z"/>
<path d="M1990 3601 c0 -20 27 -48 36 -38 4 3 4 18 0 32 -7 29 -36 34 -36 6z"/>
<path d="M1946 3578 c11 -39 26 -52 36 -33 13 23 0 55 -23 55 -16 0 -19 -4
-13 -22z"/>
<path d="M2025 3530 c-4 -6 -10 -8 -15 -5 -5 3 -11 2 -14 -3 -5 -8 75 -82 88
-82 14 0 4 43 -16 70 -23 32 -33 36 -43 20z"/>
<path d="M1411 3494 c0 -11 3 -14 6 -6 3 7 2 16 -1 19 -3 4 -6 -2 -5 -13z"/>
<path d="M2110 3436 c0 -16 37 -32 48 -21 7 7 -25 35 -40 35 -4 0 -8 -6 -8
-14z"/>
<path d="M2014 3416 c-7 -19 25 -86 42 -86 15 0 31 68 18 80 -20 18 -54 21
-60 6z"/>
<path d="M2097 3390 c-3 -11 -2 -20 3 -20 12 0 31 26 23 33 -11 12 -21 7 -26
-13z"/>
<path d="M2356 3361 c-19 -20 -30 -43 -33 -74 -5 -42 -13 -52 -219 -251 -117
-113 -220 -206 -228 -206 -8 0 -125 38 -261 84 -165 57 -258 94 -282 113 -70
55 -78 60 -71 41 5 -13 -1 -20 -28 -28 -47 -16 -64 -1 -40 34 9 15 13 26 8 26
-17 0 -32 -25 -32 -54 0 -17 -7 -40 -15 -50 -37 -49 -6 -82 86 -88 45 -4 145
-31 308 -84 132 -43 241 -81 241 -84 0 -9 -176 -178 -228 -220 -36 -28 -53
-35 -93 -36 -67 -1 -93 -25 -86 -78 3 -21 15 -48 26 -59 17 -18 24 -19 46 -9
24 11 25 10 25 -18 0 -31 22 -50 59 -50 26 0 51 38 58 88 5 35 23 57 159 193
l154 154 138 -46 c249 -85 304 -108 297 -129 -8 -26 44 -52 93 -48 33 3 38 7
50 43 7 22 19 47 27 56 18 19 20 75 3 86 -7 4 -60 10 -118 14 -90 4 -126 12
-254 54 l-149 50 119 113 c192 184 251 232 283 232 23 0 31 7 46 39 10 23 16
53 13 71 -3 17 -1 33 4 36 15 10 8 61 -13 88 -27 34 -59 33 -93 -3z m49 -18
c-4 -10 -12 -31 -17 -46 -6 -15 -15 -26 -22 -24 -18 6 -19 36 -2 62 19 29 52
35 41 8z m6 -150 c-8 -15 -10 -15 -11 -2 0 17 10 32 18 25 2 -3 -1 -13 -7 -23z
m-806 -295 c50 -17 92 -33 95 -36 12 -11 -84 13 -200 50 -143 46 -147 48 -129
58 7 5 40 -2 78 -16 36 -14 107 -39 156 -56z m-385 68 c0 -2 -7 -6 -15 -10 -8
-3 -15 -1 -15 4 0 6 7 10 15 10 8 0 15 -2 15 -4z m625 -232 c-144 -139 -316
-291 -357 -318 -28 -18 -79 -19 -85 -1 -7 23 24 45 71 50 58 7 64 12 220 158
65 62 148 140 185 174 36 34 73 62 81 62 8 0 -43 -56 -115 -125z m629 -83 c3
-5 -5 -12 -18 -15 -13 -3 -30 -8 -38 -11 -7 -3 -20 0 -28 5 -13 9 -13 11 0 20
19 12 77 13 84 1z"/>
<path d="M11672 3275 c-89 -23 -165 -44 -168 -48 -3 -3 45 -30 108 -60 293
-141 335 -163 367 -194 46 -44 88 -57 143 -43 72 20 108 67 108 142 0 80 -66
148 -143 148 -39 0 -48 3 -177 62 l-75 34 -163 -41z"/>
<path d="M10947 2923 c-4 -38 -6 -81 -6 -98 2 -25 3 -24 8 10 5 34 10 40 33
43 23 3 30 -3 47 -37 12 -22 26 -43 32 -46 6 -4 1 12 -11 36 -22 42 -22 42 -3
58 11 9 23 23 26 32 6 19 -18 59 -36 59 -7 0 -4 -5 6 -11 20 -12 23 -49 5 -67
-7 -7 -29 -12 -51 -12 l-38 0 3 42 c2 35 7 43 28 49 24 7 23 7 -6 8 l-31 1 -6
-67z"/>
<path d="M11171 2934 c-21 -26 -28 -84 -15 -119 9 -22 57 -45 94 -45 19 0 40
9 55 25 51 50 23 167 -38 164 l-22 -2 22 -4 c55 -11 73 -104 28 -148 -69 -70
-166 15 -124 109 6 13 21 29 33 34 16 8 17 11 4 11 -9 1 -26 -11 -37 -25z"/>
<path d="M11443 2916 c-24 -21 -28 -32 -28 -76 0 -42 4 -55 24 -71 13 -10 33
-18 45 -18 l21 2 -21 4 c-34 7 -56 39 -58 83 -1 47 25 78 75 90 l34 8 -32 1
c-20 1 -42 -8 -60 -23z"/>
<path d="M11561 2911 c19 -15 24 -29 24 -66 0 -39 -5 -51 -28 -71 -16 -14 -22
-24 -14 -24 24 0 49 38 54 82 4 34 0 49 -17 71 -12 15 -26 27 -32 27 -6 0 0
-9 13 -19z"/>
<path d="M11700 2912 c22 -5 35 -13 34 -22 0 -8 -3 -49 -7 -90 -3 -44 -2 -65
3 -50 4 14 9 43 9 65 2 70 10 85 44 85 52 0 25 7 -48 13 -38 3 -54 2 -35 -1z"/>
<path d="M12742 2508 c-6 -53 -12 -168 -12 -255 1 -135 3 -164 20 -198 11 -22
19 -47 20 -56 0 -9 11 -32 23 -51 13 -19 27 -47 31 -62 14 -58 13 -17 -5 102
-19 133 -44 368 -57 522 l-7 95 -13 -97z"/>
<path d="M397 2315 c-7 -127 -42 -431 -53 -469 -4 -11 -2 -16 4 -12 5 3 12 23
16 45 4 27 12 42 25 46 28 9 35 113 25 337 l-9 183 -8 -130z"/>
<path d="M10460 1845 c-1528 -359 -1665 -393 -1662 -411 10 -70 221 -939 228
-938 60 10 3311 779 3318 785 8 7 -197 916 -213 945 -4 7 -565 -121 -1671
-381z m-408 -166 c107 -22 209 -111 241 -209 21 -65 22 -159 2 -206 -13 -31
-19 -35 -37 -30 -13 3 -51 9 -85 13 -60 6 -62 7 -57 29 4 15 2 24 -5 24 -6 0
-11 17 -11 39 0 32 6 43 35 65 51 40 43 66 -21 66 -17 0 -29 10 -43 38 -31 60
-36 62 -125 41 -44 -11 -85 -24 -93 -30 -8 -7 -13 -32 -13 -64 0 -46 -3 -53
-26 -64 -35 -16 -27 -43 16 -54 26 -6 40 -18 56 -47 15 -26 18 -40 10 -43 -7
-3 -5 -11 7 -25 18 -20 18 -21 -11 -36 -16 -8 -43 -31 -61 -51 -31 -36 -33
-36 -57 -20 -72 47 -119 160 -112 269 9 141 103 253 241 291 65 17 83 18 149
4z m1954 -81 l7 -40 38 6 c37 6 38 5 48 -31 11 -40 3 -53 -32 -53 -25 0 -29
-18 -14 -75 12 -49 13 -50 51 -50 36 0 40 -3 48 -34 5 -18 7 -35 5 -38 -10 -9
-114 -33 -148 -33 -48 0 -64 20 -87 110 -18 74 -19 75 -50 72 -28 -3 -32 0
-41 35 -11 40 -4 53 32 53 19 0 21 11 8 57 -7 23 -6 35 2 40 17 10 111 31 119
26 5 -2 11 -22 14 -45z m-217 -123 c32 -16 44 -42 66 -137 8 -37 19 -78 25
-92 8 -23 6 -25 -53 -39 -41 -11 -65 -13 -73 -6 -8 7 -15 6 -19 -2 -11 -17
-87 -48 -146 -59 -91 -17 -149 18 -149 90 0 47 39 76 151 110 54 17 101 34
103 39 3 5 -1 14 -9 21 -21 17 -80 4 -108 -24 -19 -20 -91 -46 -126 -46 -16 0
-13 42 5 68 20 30 61 49 147 72 88 23 149 25 186 5z m-659 -85 c12 -59 22 -71
36 -49 12 20 88 49 131 49 71 0 98 -34 128 -159 14 -58 22 -108 18 -112 -11
-10 -113 -30 -122 -24 -5 2 -14 32 -20 66 -21 105 -45 134 -90 109 -38 -20
-42 -43 -24 -125 9 -41 14 -78 11 -81 -8 -7 -119 -36 -123 -32 -2 2 -23 87
-48 191 -31 132 -41 190 -33 196 10 8 81 27 112 30 6 1 17 -26 24 -59z m-486
-145 c10 -47 22 -87 25 -90 4 -2 22 21 41 50 34 53 35 54 115 72 44 10 81 15
83 12 2 -4 -18 -35 -45 -69 -29 -38 -43 -64 -37 -68 40 -26 164 -126 164 -133
0 -4 -37 -16 -82 -27 l-83 -19 -46 38 c-43 36 -48 37 -60 22 -8 -9 -14 -32
-14 -52 0 -34 -1 -35 -59 -49 -66 -17 -71 -14 -81 50 -7 42 -25 42 -25 1 0
-39 -65 -98 -130 -118 -30 -9 -86 -19 -125 -22 -114 -7 -169 36 -181 144 -5
40 -2 54 18 83 44 65 205 121 302 104 39 -6 106 -58 106 -82 0 -5 -30 -17 -67
-25 -59 -13 -70 -13 -84 -1 -22 20 -83 17 -110 -4 -28 -23 -30 -73 -4 -102 33
-37 117 -22 134 24 7 16 23 25 61 34 28 7 60 12 71 12 10 0 19 3 19 6 0 3 -14
65 -30 136 -17 72 -29 132 -28 133 7 6 86 23 108 24 24 1 27 -4 44 -84z
m-1006 -332 c23 -98 42 -185 42 -194 0 -12 -17 -20 -60 -29 -33 -7 -63 -10
-66 -7 -9 9 -93 371 -87 377 6 7 84 28 109 29 18 1 24 -16 62 -176z m413 141
c18 -18 83 -233 73 -243 -10 -11 -120 -29 -128 -21 -5 5 -22 -1 -40 -15 -37
-28 -156 -59 -196 -50 -41 9 -74 49 -74 90 0 58 35 82 182 125 68 20 89 38 61
55 -19 12 -81 -6 -103 -29 -19 -21 -91 -46 -132 -46 -13 0 -15 6 -9 28 13 55
54 82 168 113 89 24 170 21 198 -7z m-873 -127 c13 -53 16 -57 31 -43 51 46
173 61 224 27 86 -56 97 -183 22 -249 -43 -38 -133 -61 -176 -45 -23 9 -29 8
-29 -2 0 -8 -21 -18 -50 -24 -68 -15 -78 -14 -84 7 -22 72 -83 358 -78 364 9
8 92 27 112 24 9 0 20 -23 28 -59z"/>
<path d="M11645 1293 c-57 -20 -71 -36 -50 -57 29 -29 117 8 123 53 4 25 -13
26 -73 4z"/>
<path d="M9883 879 c-54 -21 -64 -37 -39 -58 34 -28 143 34 121 69 -9 14 -22
12 -82 -11z"/>
<path d="M9252 818 c-29 -15 -39 -55 -21 -87 11 -20 24 -27 56 -29 34 -3 44 1
62 24 48 62 -22 128 -97 92z"/>
<path d="M2996 1976 c-187 -109 -196 -120 -196 -233 0 -41 -4 -73 -10 -73 -5
0 -24 9 -42 20 -72 44 -159 13 -224 -81 -22 -32 -29 -55 -32 -105 l-4 -64
-625 0 c-685 0 -670 1 -706 -59 -15 -25 -17 -61 -17 -273 1 -263 3 -274 56
-309 28 -18 53 -19 662 -19 l632 0 0 -44 c0 -60 12 -88 62 -147 82 -96 125
-101 248 -29 94 56 116 79 126 127 5 29 20 41 125 104 66 39 127 73 137 75 20
5 252 -133 262 -156 41 -90 45 -95 135 -147 126 -75 168 -71 253 21 45 49 51
65 56 141 l2 50 612 5 c600 5 611 5 639 26 50 38 53 51 53 304 0 253 -3 266
-53 304 -28 21 -39 21 -640 26 l-612 5 -5 70 c-6 84 -10 91 -79 150 -44 38
-59 45 -94 45 -24 0 -56 -9 -75 -20 -18 -11 -37 -20 -42 -20 -6 0 -10 32 -10
73 0 112 -11 127 -165 215 -71 40 -146 82 -165 93 -63 35 -91 27 -264 -75z
m91 -288 l103 -63 0 -122 c0 -74 -4 -123 -10 -123 -5 0 -34 16 -65 35 -81 52
-85 53 -85 13 0 -31 5 -36 80 -81 l80 -48 0 -45 c0 -24 -2 -44 -5 -44 -2 0
-31 17 -64 38 -32 20 -93 58 -135 84 l-76 47 0 121 c0 83 3 120 11 120 7 0 40
-18 75 -40 35 -22 66 -40 69 -40 3 0 5 15 5 33 0 28 -6 36 -52 64 -99 60 -111
73 -103 116 l7 37 32 -20 c17 -11 77 -48 133 -82z m-337 -279 l5 -41 169 -102
c92 -57 167 -107 166 -112 -1 -5 -14 -17 -28 -26 -26 -16 -29 -16 -76 13 -81
51 -220 129 -228 129 -4 0 -8 -13 -8 -30 0 -16 -2 -30 -5 -30 -3 0 -23 11 -45
25 -49 31 -58 31 -62 3 -3 -22 -7 -23 -83 -22 -107 1 -168 13 -161 31 4 11 0
10 -24 -2 -21 -11 -30 -23 -30 -41 l0 -25 150 7 150 7 0 -57 0 -56 -150 0
-150 0 0 -90 0 -90 -60 0 -60 0 0 210 0 210 195 0 195 0 0 25 c0 25 14 33 25
15 13 -22 35 -10 35 19 0 23 -7 34 -30 48 -25 14 -30 24 -30 53 0 20 3 39 6
43 4 3 34 -12 68 -33 56 -36 61 -42 66 -81z m867 69 c16 -15 23 -33 23 -60 0
-21 -4 -38 -8 -38 -20 0 -52 52 -52 85 0 41 5 43 37 13z m-2242 -266 c2 -60 8
-109 15 -117 10 -12 9 -20 -4 -41 -14 -20 -15 -28 -5 -40 9 -11 9 -18 1 -26
-8 -8 -8 -16 -2 -23 6 -8 5 -21 -3 -39 -11 -25 -16 -26 -67 -24 l-55 3 -3 195
c-1 107 0 200 3 208 3 9 21 12 61 10 l55 -3 4 -103z m180 78 c0 -20 7 -26 30
-30 24 -4 31 -11 33 -33 3 -23 8 -27 33 -27 l30 0 -3 -87 -3 -88 -30 -5 c-23
-4 -30 -10 -30 -30 0 -20 -6 -26 -30 -30 -24 -4 -30 -10 -30 -30 0 -24 -3 -25
-75 -28 l-76 -3 1 73 c1 85 7 100 39 92 34 -8 59 21 52 59 -8 38 -23 57 -46
57 -25 0 -32 25 -24 87 l6 54 62 -3 c58 -3 61 -4 61 -28z m605 -30 l0 -60
-107 -2 c-132 -2 -126 -2 -160 6 l-28 6 23 -20 c27 -22 53 -28 177 -38 88 -7
90 -8 93 -34 5 -38 -24 -49 -121 -48 -107 2 -143 -2 -158 -17 -7 -7 -11 -15
-8 -17 4 -4 167 -13 262 -15 26 -1 27 -2 27 -61 l0 -60 -210 0 -210 0 0 210 0
210 210 0 210 0 0 -60z m1892 33 c2 -22 9 -29 33 -33 29 -5 30 -7 30 -55 l0
-50 -40 -3 c-22 -2 -44 -8 -50 -13 -5 -5 -38 -9 -75 -9 -137 0 -147 -23 -17
-38 171 -20 182 -23 185 -56 6 -50 -5 -74 -36 -78 -21 -2 -28 -9 -30 -31 l-3
-28 -117 3 -117 3 -3 27 c-3 21 -9 27 -30 30 -21 2 -28 9 -30 30 -3 21 -9 27
-30 30 -27 3 -27 4 -30 91 l-3 87 30 0 c25 0 30 4 33 27 2 22 9 29 33 34 18 3
29 10 27 19 -8 36 5 40 122 40 l115 0 3 -27z m486 -5 c3 -21 9 -27 30 -30 l27
-3 0 -145 0 -145 -27 -3 c-21 -3 -27 -9 -30 -30 l-3 -27 -147 -3 -147 -3 -3
28 c-2 22 -9 29 -33 33 l-30 5 0 145 1 145 29 5 c24 4 31 11 33 33 l3 28 147
-3 147 -3 3 -27z m242 3 c0 -25 5 -30 27 -33 20 -2 29 -10 33 -28 4 -18 14
-26 32 -28 21 -2 28 -9 30 -30 2 -21 8 -27 28 -27 25 0 25 2 28 88 l3 87 59 0
60 0 0 -210 0 -210 -119 0 c-94 0 -121 3 -131 15 -9 11 -11 44 -8 120 5 96 4
105 -12 105 -16 0 -17 -9 -12 -105 6 -128 2 -135 -79 -135 l-59 0 0 210 0 210
60 0 c60 0 60 0 60 -29z m-1140 -46 c0 -29 -8 -31 -36 -10 -16 13 -17 16 -4
25 25 17 40 11 40 -15z m-225 -275 c80 -50 151 -88 156 -84 5 3 7 14 4 24 -10
33 15 32 73 -2 53 -32 57 -36 60 -76 2 -32 0 -42 -12 -42 -8 0 -18 5 -21 10
-12 20 -25 9 -25 -20 0 -24 7 -35 30 -48 25 -14 30 -23 30 -54 0 -21 -4 -38
-9 -38 -5 0 -34 15 -65 33 -52 30 -56 35 -56 70 0 42 -5 45 -257 196 -68 40
-123 76 -123 79 0 7 49 39 62 41 3 1 72 -40 153 -89z m-761 -81 c26 -30 35
-82 17 -93 -17 -11 -61 54 -61 90 0 42 11 43 44 3z m86 -99 c0 -21 -24 -28
-35 -10 -8 14 3 30 21 30 8 0 14 -9 14 -20z m-88 -57 c20 -19 28 -37 28 -60 0
-40 -8 -41 -43 -5 -18 19 -27 39 -27 60 0 39 6 40 42 5z"/>
<path d="M2640 1465 c0 -8 2 -15 4 -15 2 0 11 -3 20 -6 23 -9 20 9 -4 24 -17
10 -20 10 -20 -3z"/>
<path d="M2700 1357 c0 -69 -12 -85 -40 -52 -14 17 -30 20 -30 6 0 -13 78 -52
85 -42 3 5 2 16 -1 25 -5 13 1 16 27 17 l34 1 -27 10 c-16 5 -29 17 -29 26 -7
89 -19 94 -19 9z"/>
<path d="M2790 1286 c0 -2 7 -7 16 -10 8 -3 12 -2 9 4 -6 10 -25 14 -25 6z"/>
<path d="M4344 1188 c-25 -12 -44 -48 -44 -84 0 -37 51 -84 90 -84 43 0 90 47
90 90 0 65 -75 108 -136 78z m71 -73 c0 -22 -31 -33 -47 -17 -17 17 -1 44 24
40 15 -2 23 -10 23 -23z"/>
<path d="M3262 1009 c2 -6 21 -20 43 -32 22 -12 46 -27 53 -34 6 -6 22 -15 34
-19 12 -3 49 -25 82 -48 34 -22 75 -48 91 -56 24 -13 31 -24 35 -57 4 -34 12
-46 43 -67 45 -31 48 -24 7 16 -24 22 -30 37 -30 68 0 25 -5 40 -12 40 -20 1
23 30 43 30 10 0 20 -6 22 -12 4 -9 6 -8 6 3 1 17 -34 38 -62 37 -12 -1 -16
-7 -11 -20 13 -42 -66 -8 -223 95 -23 15 -45 27 -50 27 -4 0 -19 9 -33 20 -28
22 -44 26 -38 9z"/>
<path d="M6253 1628 c-18 -8 -23 -20 -23 -48 0 -20 -16 -113 -35 -206 -42
-202 -43 -243 -9 -283 6 -7 72 40 79 57 4 9 27 109 51 222 42 200 43 205 26
235 -20 33 -52 41 -89 23z"/>
<path d="M6433 1580 c-21 -9 -43 -38 -43 -59 0 -21 33 -41 69 -41 64 0 96 61
49 94 -25 18 -42 19 -75 6z"/>
<path d="M5910 1525 c-50 -23 -70 -44 -96 -100 -66 -140 14 -275 163 -275 67
0 86 10 118 60 33 53 32 61 -7 49 -18 -5 -54 -9 -81 -9 -38 0 -53 5 -72 25
-14 13 -25 29 -25 35 0 11 2 11 124 -16 l79 -18 18 23 c41 51 7 176 -58 214
-44 25 -120 31 -163 12z m104 -101 c27 -26 19 -37 -21 -30 -21 3 -47 6 -58 6
-19 1 -19 2 4 20 28 24 54 25 75 4z"/>
<path d="M6392 1432 c-7 -5 -15 -33 -18 -63 -3 -30 -11 -79 -19 -109 -25 -103
-26 -126 -9 -169 l16 -40 30 15 c39 20 61 72 88 206 18 92 19 112 8 135 -10
22 -21 29 -48 31 -19 1 -41 -2 -48 -6z"/>
<path d="M6965 1296 c-130 -58 -146 -277 -24 -345 46 -26 124 -37 161 -22 26
10 95 97 85 108 -3 3 -29 0 -57 -7 -76 -18 -150 5 -150 47 0 17 5 16 111 -4
109 -21 119 -15 119 66 0 71 -24 119 -76 148 -45 26 -122 30 -169 9z m125
-107 c7 -11 10 -23 7 -25 -2 -2 -27 1 -55 8 -41 9 -49 14 -41 25 18 21 76 16
89 -8z"/>
<path d="M7673 1269 c-49 -24 -59 -43 -38 -76 23 -34 42 -38 81 -19 61 29 92
18 80 -28 -7 -27 -24 -36 -79 -41 -48 -5 -57 -11 -57 -38 0 -31 10 -42 49 -55
70 -24 93 -75 49 -106 -34 -24 -71 -19 -126 17 -64 44 -82 50 -82 31 0 -10 -7
-13 -22 -10 -13 3 -45 8 -72 11 -27 4 -54 9 -62 12 -8 3 23 35 78 80 49 42 92
82 95 90 3 7 -7 29 -21 48 -23 30 -33 35 -69 36 -23 0 -73 9 -112 19 -68 18
-71 18 -89 0 -37 -36 4 -89 88 -115 17 -5 16 -9 -15 -35 -19 -17 -64 -51 -101
-76 -58 -39 -68 -50 -68 -74 0 -42 -4 -41 263 -97 23 -5 34 1 67 37 28 30 40
38 40 26 0 -57 93 -126 169 -126 47 1 112 31 139 65 46 59 50 159 7 195 -13
11 -11 15 10 32 13 10 30 36 36 58 10 32 9 44 -7 76 -40 81 -140 108 -231 63z"/>
<path d="M6500 1105 c-10 -12 -10 -22 1 -52 l14 -36 115 -23 c63 -13 120 -23
127 -23 19 -1 43 29 43 55 0 31 -16 37 -154 65 -60 11 -115 23 -121 25 -7 3
-18 -2 -25 -11z"/>
<path d="M7983 1100 c-19 -8 -23 -17 -23 -54 0 -25 -9 -84 -20 -131 -11 -47
-20 -96 -20 -109 0 -24 37 -87 55 -93 19 -6 65 84 80 158 21 101 53 124 106
73 l26 -25 32 26 c36 31 38 47 11 85 -26 36 -80 55 -119 42 -25 -9 -30 -7 -40
14 -11 26 -45 31 -88 14z"/>
<path d="M557 508 c-41 -43 -48 -115 -18 -175 11 -21 23 -55 26 -75 4 -21 11
-38 15 -38 4 0 30 -23 57 -51 26 -28 64 -57 83 -65 19 -8 45 -25 58 -37 l24
-22 5551 3 c3054 1 5651 5 5772 8 159 5 224 10 235 19 8 7 33 21 55 30 42 17
136 119 154 168 6 15 18 30 26 33 11 5 15 22 15 68 0 35 -2 65 -5 68 -10 10
-55 -16 -61 -35 -3 -9 -20 -25 -37 -34 -18 -8 -45 -26 -60 -39 -16 -13 -34
-24 -40 -24 -7 0 -39 -13 -73 -29 -123 -58 -189 -63 -794 -57 -566 5 -1760 10
-4385 21 -847 3 -1913 9 -2370 12 -456 4 -954 7 -1105 7 -151 0 -782 -2 -1401
-3 -619 -1 -1179 1 -1244 5 -136 8 -179 23 -280 99 -33 25 -71 51 -85 57 -33
16 -70 49 -70 63 0 6 -6 18 -12 27 -12 14 -15 13 -31 -4z"/>
</g>
</svg>
