<?xml version="1.0" standalone="no"?>
<!DOCTYPE svg PUBLIC "-//W3C//DTD SVG 20010904//EN"
 "http://www.w3.org/TR/2001/REC-SVG-20010904/DTD/svg10.dtd">
<svg version="1.0" xmlns="http://www.w3.org/2000/svg"
 width="484.000000pt" height="484.000000pt" viewBox="0 0 484.000000 484.000000"
 preserveAspectRatio="xMidYMid meet">

<g transform="translate(0.000000,484.000000) scale(0.100000,-0.100000)"
fill="#000000" stroke="none">
<path d="M732 4819 c-45 -3 -86 -9 -89 -13 -11 -11 72 -121 94 -124 36 -5 73
17 102 64 l30 46 -5 -64 -5 -64 173 -12 c95 -6 274 -11 398 -12 123 -1 226 -3
229 -5 2 -3 -65 -5 -150 -5 -242 -1 -630 -18 -672 -30 -32 -9 -42 -20 -68 -72
l-31 -61 36 6 c19 3 36 2 38 -3 5 -15 88 11 98 30 10 19 67 46 77 37 12 -12
-6 -35 -24 -31 -11 3 -29 -6 -46 -24 -26 -27 -28 -33 -21 -81 5 -37 10 -49 16
-39 8 10 9 9 5 -3 -3 -9 -9 -38 -12 -65 -8 -54 3 -55 14 -2 l7 33 12 -33 c6
-18 7 -30 2 -27 -9 6 -11 -5 -14 -72 -1 -11 7 -19 19 -19 11 -1 28 -2 38 -3
21 -1 23 -27 2 -35 -10 -3 -15 1 -16 12 0 14 -2 14 -9 -3 -15 -34 -11 -77 8
-91 16 -13 16 -15 -3 -26 -26 -16 -54 -18 -49 -3 3 6 -5 20 -17 31 -14 12 -19
13 -14 4 6 -12 5 -12 -4 -4 -13 12 -51 7 -51 -6 0 -4 7 -10 15 -14 18 -7 20
-28 3 -25 -27 3 -38 -2 -38 -16 0 -9 9 -15 25 -15 29 0 33 -25 11 -68 -18 -35
-10 -75 17 -87 32 -15 33 -41 2 -47 -14 -3 -28 -1 -31 3 -3 5 0 9 5 9 6 0 11
7 11 16 0 13 -3 14 -14 5 -17 -14 -31 1 -21 22 4 6 -1 3 -9 -7 -9 -11 -16 -14
-16 -7 0 7 -4 9 -10 6 -5 -3 -10 -2 -10 3 0 6 7 12 15 16 21 8 19 38 -5 64
-20 21 -20 22 -3 39 14 14 18 36 19 91 l2 72 -27 -38 c-27 -36 -45 -68 -77
-134 -8 -18 -19 -41 -25 -50 -5 -10 -9 -31 -9 -48 0 -17 -9 -55 -19 -85 -11
-31 -15 -57 -10 -60 15 -10 10 -22 -9 -27 -13 -4 -25 -28 -40 -82 -13 -42 -26
-76 -31 -76 -4 0 -11 29 -14 64 -6 61 -20 103 -41 118 -6 4 -5 12 2 21 7 8 10
22 6 31 -3 9 -1 22 5 29 6 9 10 57 8 129 -1 64 1 114 4 112 4 -2 17 12 30 32
17 28 19 38 9 44 -10 6 -10 8 1 12 7 2 14 18 15 35 1 17 5 45 9 63 6 27 4 32
-8 27 -8 -3 -20 0 -26 6 -8 8 -15 6 -26 -9 -8 -10 -15 -14 -15 -7 0 6 5 15 10
18 6 3 10 26 10 51 0 42 -1 44 -29 44 -16 0 -50 10 -76 21 -37 16 -59 20 -93
15 -34 -4 -50 -2 -62 9 -10 9 -49 20 -86 24 -38 4 -76 10 -84 12 -17 4 -51
-86 -71 -187 -14 -71 -25 -1564 -12 -1564 5 0 14 5 20 11 6 6 17 8 24 3 9 -5
5 -10 -12 -17 -13 -6 -27 -9 -31 -9 -5 1 -8 -107 -8 -241 0 -181 3 -246 13
-256 9 -11 9 -14 0 -18 -19 -7 -19 -1293 0 -1326 12 -22 70 -94 107 -133 19
-20 19 -20 -2 -38 -18 -16 -20 -16 -15 -2 7 17 -58 126 -74 126 -18 0 -20 -72
-5 -160 29 -166 89 -282 201 -388 105 -101 237 -162 375 -176 25 -3 55 -8 68
-12 36 -11 26 9 -36 68 -44 42 -68 57 -99 63 -26 4 -54 18 -75 38 -19 18 -27
27 -19 21 33 -24 61 -35 61 -24 0 5 -21 24 -48 40 -41 27 -43 30 -17 24 17 -4
44 -17 62 -30 17 -13 35 -24 39 -24 21 0 90 -60 135 -117 41 -53 54 -63 80
-63 17 0 41 8 54 18 31 25 102 18 111 -10 5 -16 8 -18 15 -7 6 11 11 11 21 1
14 -14 32 -16 23 -2 -3 6 -2 10 4 10 5 0 13 -5 16 -10 10 -15 71 -12 85 5 8 9
8 15 2 15 -6 0 -12 -5 -14 -12 -7 -19 -38 -1 -38 22 0 22 12 25 41 10 20 -11
24 -4 11 17 -4 6 -16 11 -27 10 -22 -2 -28 26 -12 54 8 14 -1 45 -30 101 -2 4
4 5 13 1 14 -5 16 -3 11 11 -4 10 -7 22 -7 27 0 4 -7 6 -15 3 -20 -8 -36 35
-30 81 3 20 1 34 -4 31 -4 -3 -7 8 -5 25 5 38 -11 70 -31 63 -20 -8 -9 25 13
44 12 9 13 15 4 24 -14 14 -16 42 -3 34 5 -3 12 6 16 21 4 16 2 29 -4 31 -5 2
-7 10 -4 19 4 11 2 14 -5 9 -19 -12 -14 2 17 47 16 23 29 46 29 50 0 5 4 12 8
15 4 4 4 1 0 -5 -4 -7 -4 -13 -1 -13 11 0 50 53 47 63 -1 5 1 6 6 3 5 -3 32
22 61 55 29 33 56 58 59 54 3 -3 18 7 34 21 23 23 28 25 34 11 4 -11 10 -13
17 -7 64 52 78 60 88 54 7 -4 9 -3 5 4 -3 6 -1 14 5 18 8 4 7 9 -2 15 -10 6
-6 9 14 9 17 0 27 5 27 15 0 8 5 15 10 15 13 0 13 -6 0 -30 -14 -26 7 -37 28
-16 12 12 13 16 3 16 -11 0 -11 3 -1 15 13 16 6 50 -9 41 -14 -9 -74 20 -91
43 -8 12 -22 21 -31 21 -10 0 -31 11 -47 25 -31 26 -56 25 -66 -1 -4 -9 -13
-13 -24 -10 -10 4 -46 -9 -85 -29 -38 -20 -73 -33 -78 -29 -5 3 -16 1 -24 -6
-7 -6 -31 -13 -52 -14 -21 -2 -41 -4 -46 -5 -4 -1 -4 -13 -1 -27 5 -20 3 -25
-7 -22 -8 3 -13 14 -12 24 2 16 -6 19 -44 21 -25 1 -50 6 -56 12 -6 6 -23 11
-38 11 -54 0 -120 80 -99 120 7 14 7 20 0 20 -5 0 -10 5 -10 10 0 23 39 8 52
-20 8 -18 21 -30 33 -31 11 -1 36 -3 55 -4 19 -2 40 0 45 5 6 4 27 10 48 13
22 3 53 17 71 30 17 13 45 27 62 31 17 4 47 25 67 47 40 43 42 74 7 114 -10
11 -25 35 -34 53 -9 17 -20 32 -25 32 -5 0 -7 9 -4 20 3 11 0 20 -6 20 -6 0
-11 8 -11 19 0 10 -9 30 -20 44 -11 14 -21 39 -23 56 -2 17 -11 39 -20 49 -10
10 -17 23 -17 28 0 5 -10 18 -22 29 -15 13 -18 20 -10 23 7 2 20 -4 27 -14 8
-11 15 -14 15 -8 0 5 -5 15 -11 21 -6 6 -13 46 -15 89 -3 44 -10 96 -16 116
-6 20 -8 53 -5 72 4 24 1 39 -9 47 -16 13 -19 34 -4 24 18 -11 10 15 -10 35
-12 12 -18 25 -15 30 4 6 0 10 -7 10 -7 1 -1 8 15 16 15 8 27 17 27 20 0 3 -5
2 -10 -1 -14 -8 -13 18 1 32 8 8 8 17 -3 32 -14 19 -14 19 -26 0 -12 -19 -37
-25 -46 -11 -2 4 -7 24 -11 44 -6 33 -4 38 23 52 29 15 30 15 24 -7 -5 -21 -5
-21 12 -4 15 14 21 15 33 5 10 -8 11 -14 4 -16 -17 -6 -13 -22 5 -22 21 0 51
38 59 72 4 16 10 28 13 28 4 0 16 19 27 43 11 23 25 46 32 50 7 4 13 13 13 18
0 6 17 29 38 51 38 41 89 70 130 74 13 2 29 7 35 12 16 12 127 23 127 12 0
-12 57 -33 70 -25 6 4 20 -2 31 -14 18 -19 32 -25 51 -22 5 0 18 -15 30 -34
13 -19 27 -35 31 -35 14 0 127 -121 127 -135 0 -8 13 -23 30 -35 19 -13 29
-29 28 -43 0 -12 11 -48 25 -81 15 -32 27 -67 27 -77 0 -11 4 -19 9 -19 5 0 9
-10 10 -22 9 -143 0 -256 -23 -323 -8 -22 -20 -67 -25 -99 -6 -33 -15 -62 -20
-65 -19 -12 -91 -106 -91 -119 0 -13 -81 -99 -110 -118 -8 -5 -26 -21 -38 -36
-19 -21 -22 -30 -13 -45 6 -10 11 -14 11 -9 0 5 7 3 16 -5 9 -7 32 -12 51 -11
34 3 96 -13 120 -31 6 -4 14 -4 17 1 6 11 77 24 123 22 17 0 38 6 46 15 9 8
21 15 28 15 22 0 77 40 82 60 3 13 14 20 30 20 18 0 28 7 32 23 4 12 19 33 34
47 32 31 61 74 61 94 0 8 13 26 30 39 19 16 25 27 17 30 -7 3 -5 6 5 6 12 1
19 13 24 39 6 32 28 84 72 169 28 53 30 60 21 75 -6 11 -5 19 1 23 6 4 8 10 5
15 -3 5 -1 11 5 15 6 4 8 11 5 16 -4 5 1 9 10 9 13 0 15 7 10 34 -5 26 -3 35
10 40 14 5 16 14 11 50 -4 25 -3 47 2 50 9 6 9 38 -3 116 -3 20 -14 53 -25 75
-11 22 -20 52 -20 67 0 17 -7 31 -16 35 -11 4 -14 14 -11 32 3 15 2 33 -3 41
-5 9 -5 19 2 27 7 9 4 22 -10 45 -11 18 -17 39 -15 45 3 7 -2 16 -11 19 -11 4
-13 14 -10 34 4 15 1 37 -5 48 -7 13 -7 23 -1 27 5 3 1 14 -9 24 -15 15 -17
32 -16 102 2 66 -2 91 -16 115 -13 21 -20 56 -22 105 -2 41 -12 96 -22 122
-15 39 -16 50 -5 57 8 5 11 17 7 31 -5 22 -5 22 7 6 11 -15 13 3 11 115 -2
124 10 226 31 260 5 7 7 23 6 35 -5 34 28 83 55 83 13 0 27 8 30 18 4 9 13 22
21 28 18 13 122 17 136 5 6 -5 22 -11 36 -13 17 -2 26 -10 28 -26 2 -15 9 -22
20 -20 9 2 16 -3 14 -9 -1 -7 4 -13 12 -13 8 0 18 -9 21 -20 4 -11 17 -28 31
-36 14 -10 24 -26 24 -40 0 -13 4 -24 10 -24 12 0 52 -78 46 -89 -3 -5 1 -23
10 -40 9 -18 13 -42 10 -55 -4 -15 0 -28 9 -36 9 -7 13 -21 10 -31 -5 -14 -1
-19 11 -19 16 0 16 -1 -2 -15 -14 -11 -15 -14 -4 -15 12 0 13 -2 1 -9 -9 -6
-10 -11 -2 -15 6 -4 9 -11 6 -16 -3 -5 -1 -11 3 -14 5 -3 3 -29 -4 -57 -9 -36
-10 -56 -4 -64 6 -7 8 -32 5 -55 -3 -23 0 -50 6 -61 8 -16 7 -26 -5 -44 -17
-25 -8 -39 18 -29 10 4 16 1 16 -7 0 -7 -3 -9 -6 -6 -7 7 -44 -30 -44 -44 0
-4 5 -11 11 -15 7 -4 9 -21 6 -40 -3 -19 -2 -34 2 -34 8 0 5 -110 -4 -118 -3
-3 3 -14 12 -25 17 -19 17 -20 1 -14 -21 7 -36 -12 -18 -23 8 -5 9 -17 2 -41
-5 -19 -7 -40 -4 -47 2 -7 -1 -18 -6 -25 -7 -8 -7 -18 -2 -27 12 -19 13 -70 1
-70 -5 0 -9 -17 -9 -37 1 -21 -2 -55 -4 -75 -3 -21 -1 -38 4 -38 5 0 7 -8 4
-18 -9 -29 45 -124 99 -174 42 -38 56 -45 85 -44 40 3 80 24 80 44 0 7 7 15
16 19 17 6 104 180 104 208 0 9 6 29 14 43 8 15 21 61 30 102 15 75 16 83 18
153 0 20 4 37 9 37 5 0 9 11 9 25 0 17 -6 25 -17 25 -14 0 -15 2 -1 18 9 9 19
38 22 65 6 36 14 52 37 69 16 12 29 27 29 34 0 14 28 27 41 18 5 -3 23 4 39
16 17 12 30 16 30 10 0 -6 10 -8 26 -4 18 5 34 0 54 -15 16 -11 34 -21 40 -21
6 0 18 -16 26 -35 8 -19 19 -35 24 -35 6 0 10 -9 10 -19 0 -11 5 -23 11 -27 6
-3 9 -14 6 -24 -3 -12 9 -32 32 -57 40 -42 75 -56 64 -26 -5 14 -3 16 7 6 13
-12 41 -3 112 33 37 20 127 19 134 -1 5 -12 10 -13 20 -4 8 6 11 15 8 20 -3 5
2 6 10 3 11 -4 16 0 16 10 0 9 -4 16 -10 16 -5 0 -10 7 -10 15 0 8 -5 15 -11
15 -6 0 -17 7 -25 15 -12 11 -13 19 -4 36 9 15 15 18 23 10 16 -16 30 -14 23
4 -6 18 5 20 22 3 17 -17 28 -2 12 17 -7 8 -25 15 -41 15 -16 0 -29 4 -29 8 0
11 55 42 75 42 9 0 14 4 11 9 -3 5 3 11 14 14 11 3 18 1 14 -4 -3 -5 2 -9 11
-9 10 0 15 5 12 14 -8 19 112 21 158 2 20 -9 39 -16 43 -18 17 -5 45 -39 37
-45 -4 -5 -10 -3 -12 4 -2 7 -10 10 -18 7 -7 -3 -16 -1 -20 5 -3 6 -17 11 -30
11 -13 0 -26 4 -29 9 -3 5 -15 11 -27 14 -38 10 2 -22 47 -38 31 -11 35 -15
21 -20 -9 -4 -23 -2 -31 4 -17 14 -94 10 -100 -6 -3 -8 3 -12 16 -10 11 1 23
-4 26 -12 2 -8 0 -11 -5 -8 -6 4 -9 -7 -8 -24 2 -33 35 -65 47 -46 7 12 11 4
22 -45 5 -20 13 -28 27 -28 14 0 19 -5 17 -17 -2 -10 -6 -16 -9 -13 -3 3 -13
-1 -22 -9 -9 -7 -24 -11 -32 -7 -20 7 -19 -15 1 -40 14 -18 15 -18 8 6 -6 24
-6 25 10 5 15 -19 17 -19 30 -2 10 13 22 16 46 12 66 -12 190 -92 190 -124 0
-18 19 -44 52 -69 15 -12 17 -10 15 21 -2 20 -11 45 -21 56 -18 20 -18 20 10
18 l29 -2 0 65 c0 44 5 69 14 76 19 15 6 46 -18 42 -26 -4 -81 38 -81 61 0 19
-27 37 -39 26 -3 -3 0 -15 7 -25 12 -21 6 -26 -15 -12 -12 7 -15 72 -4 72 3
-1 17 -7 31 -15 40 -23 48 -17 15 11 -16 14 -30 29 -31 32 -4 35 -71 122 -94
122 -6 0 -8 -6 -4 -12 4 -8 3 -10 -2 -5 -5 5 -9 14 -9 20 0 7 -11 13 -25 15
-19 2 -22 1 -10 -7 12 -8 12 -13 2 -23 -9 -9 -15 -9 -23 -1 -9 9 -8 18 4 36
15 23 15 26 -1 40 -10 9 -42 19 -72 22 -30 3 -64 9 -75 12 -11 3 -31 8 -45 9
-14 2 -53 7 -87 12 -35 4 -63 4 -63 -1 0 -4 -6 -5 -12 0 -22 13 -177 18 -253
8 l-40 -5 29 14 29 13 -28 7 c-21 5 -32 2 -47 -13 -22 -24 -40 -28 -32 -6 4 8
11 15 18 15 6 0 19 18 29 40 17 40 30 49 42 30 9 -14 47 -12 43 2 -9 25 -52
24 -95 0 -24 -13 -41 -28 -37 -33 3 -5 11 -6 17 -3 7 4 8 3 4 -2 -5 -5 -12 -9
-15 -10 -16 -2 -49 -19 -71 -36 -27 -21 -56 -24 -45 -5 9 15 -38 -23 -49 -40
-4 -7 -17 -17 -27 -23 -16 -9 -20 -7 -20 5 0 8 6 15 13 15 6 0 26 21 42 45 17
25 44 55 62 68 18 12 34 30 37 40 4 16 11 17 57 11 40 -5 50 -4 44 5 -5 9 3
12 32 10 21 -2 45 1 53 6 14 8 34 11 135 16 28 2 51 0 180 -18 28 -4 56 -6 62
-4 7 1 10 -4 8 -11 -4 -10 13 -13 67 -14 73 -2 165 -10 226 -21 31 -5 46 10
20 20 -10 3 -10 8 1 18 10 11 15 11 18 2 3 -7 11 -13 19 -13 8 0 14 -7 14 -16
0 -8 5 -12 11 -9 6 4 9 0 7 -10 -2 -13 5 -18 24 -21 15 -1 30 2 33 7 3 5 -1 6
-9 3 -20 -8 -20 -4 -1 32 l14 28 9 -24 9 -24 19 22 c25 29 37 28 32 -3 -3 -14
-1 -25 3 -25 5 0 9 6 10 13 0 6 4 3 8 -8 8 -20 -8 -42 -19 -25 -3 4 -18 2 -35
-6 -19 -8 -23 -13 -10 -11 12 1 20 -4 20 -13 0 -8 35 -50 79 -92 75 -75 105
-95 92 -63 -3 9 0 15 8 15 17 0 28 56 30 148 2 53 -1 62 -16 62 -11 0 -18 7
-18 19 0 10 -7 24 -15 31 -9 7 -14 19 -11 26 3 7 1 16 -5 20 -6 3 -8 11 -6 18
9 23 -19 47 -49 42 -30 -6 -64 20 -64 47 0 8 -8 21 -18 31 -18 15 -19 15 -31
-11 -7 -15 -15 -22 -19 -17 -4 6 -18 13 -30 17 -21 5 -23 3 -18 -20 5 -16 3
-22 -4 -18 -5 3 -10 13 -10 22 0 13 -3 13 -15 3 -13 -10 -15 -9 -15 8 0 15 5
20 15 16 12 -5 14 1 10 37 -3 24 -10 46 -15 47 -12 5 -13 52 -1 71 6 9 4 23
-6 38 -13 20 -13 23 0 23 18 0 67 -38 67 -53 0 -6 -10 -21 -21 -33 -29 -31
-19 -59 19 -49 35 9 92 52 92 71 0 7 5 14 11 14 6 0 9 6 6 14 -4 10 0 12 14 9
12 -4 19 0 19 10 0 8 6 17 14 20 7 3 23 26 36 51 12 25 26 48 31 52 5 3 9 15
9 27 0 12 7 30 15 40 23 32 28 92 10 127 l-16 31 -18 -23 c-10 -13 -21 -32
-25 -43 -3 -11 -19 -26 -36 -32 -16 -6 -30 -18 -30 -27 0 -9 -5 -16 -11 -16
-6 0 -9 10 -7 23 2 12 -5 31 -14 41 -20 22 -23 36 -8 36 6 0 10 7 10 16 0 9
-5 12 -11 8 -17 -10 -1 46 19 70 16 18 16 19 0 13 -10 -4 -18 -5 -18 -4 0 1 7
27 15 57 20 75 19 99 -7 125 -13 12 -33 35 -45 50 l-23 27 0 -32 c0 -30 -1
-30 -19 -13 -10 10 -25 37 -31 60 -10 34 -17 42 -34 40 -13 -1 -21 4 -21 13 0
11 9 14 33 12 21 -1 31 2 27 8 -3 5 -1 10 5 10 7 0 9 -8 5 -19 -3 -10 1 -24
10 -31 24 -20 44 4 42 51 -1 38 -11 52 -19 27 -2 -6 -12 -9 -21 -5 -18 7 -34
39 -40 83 -2 15 -12 33 -22 40 -25 18 -36 18 -29 -1 4 -8 1 -15 -5 -15 -6 0
-13 11 -17 25 -7 27 -19 33 -27 13 -4 -9 -6 -8 -6 2 -1 10 -22 22 -59 33 -76
22 -81 22 -94 -10 l-11 -28 -8 31 c-5 18 -17 35 -27 40 -29 13 -1370 18 -1386
4 -10 -7 -16 -8 -21 0 -10 15 -1047 14 -1063 -2 -9 -9 -12 -9 -12 0 0 17 -147
17 -153 0 -3 -10 -7 -10 -19 0 -13 10 -93 12 -370 10 -194 -1 -390 -5 -436 -9z
m3214 -46 c-8 -8 -12 -3 -21 27 l-7 25 17 -23 c9 -13 14 -26 11 -29z m-1222
16 c-3 -5 -10 -7 -15 -3 -5 3 -7 10 -3 15 3 5 10 7 15 3 5 -3 7 -10 3 -15z
m1126 -4 c0 -8 -4 -15 -10 -15 -5 0 -10 -7 -10 -15 0 -17 -16 -20 -25 -5 -3 6
1 13 9 16 9 3 16 12 16 20 0 8 5 14 10 14 6 0 10 -7 10 -15z m-184 -32 c-10
-10 -19 5 -10 18 6 11 8 11 12 0 2 -7 1 -15 -2 -18z m-972 2 c3 -9 -1 -18 -10
-22 -19 -7 -28 2 -21 22 8 19 23 19 31 0z m841 5 c-3 -5 -10 -10 -16 -10 -5 0
-9 5 -9 10 0 6 7 10 16 10 8 0 12 -4 9 -10z m-1675 -30 c0 -5 -4 -10 -10 -10
-5 0 -10 5 -10 10 0 6 5 10 10 10 6 0 10 -4 10 -10z m480 -11 c0 -18 -2 -19
-15 -9 -15 12 -12 30 6 30 5 0 9 -10 9 -21z m1350 11 c0 -6 -6 -13 -14 -16 -8
-3 -12 -13 -9 -25 3 -11 2 -19 -3 -18 -5 1 -17 -1 -27 -6 -31 -13 -45 11 -20
35 20 18 22 18 26 2 3 -12 6 -10 11 11 8 25 36 39 36 17z m650 -11 c0 -5 -4
-9 -10 -9 -5 0 -10 7 -10 16 0 8 5 12 10 9 6 -3 10 -10 10 -16z m-2386 -20
c-3 -5 -10 -7 -15 -3 -5 3 -7 10 -3 15 3 5 10 7 15 3 5 -3 7 -10 3 -15z m-36
-6 c-2 -10 -10 -18 -18 -18 -8 0 -16 8 -18 18 -2 12 3 17 18 17 15 0 20 -5 18
-17z m73 4 c-1 -12 -15 -9 -19 4 -3 6 1 10 8 8 6 -3 11 -8 11 -12z m133 -22
c-4 -8 -10 -12 -15 -9 -14 8 -10 24 6 24 9 0 12 -6 9 -15z m1411 5 c3 -6 -1
-13 -9 -16 -9 -3 -16 -15 -16 -26 0 -17 -3 -18 -15 -8 -8 7 -15 16 -15 21 0 5
7 9 15 9 8 0 15 7 15 15 0 17 16 20 25 5z m530 -10 c0 -22 -29 -18 -33 3 -3
14 1 18 15 15 10 -2 18 -10 18 -18z m45 -12 c0 -5 -4 -8 -10 -8 -5 0 -10 10
-10 23 0 18 2 19 10 7 5 -8 10 -18 10 -22z m120 22 c0 -5 -4 -10 -10 -10 -5 0
-10 5 -10 10 0 6 5 10 10 10 6 0 10 -4 10 -10z m-1763 -22 c-3 -8 -6 -5 -6 6
-1 11 2 17 5 13 3 -3 4 -12 1 -19z m857 -1 c6 -24 0 -37 -17 -37 -7 0 -6 4 3
10 13 9 13 11 0 20 -8 5 -21 8 -28 5 -8 -3 -18 -2 -23 1 -16 10 -1 21 30 21
21 0 31 -6 35 -20z m256 -8 c0 -5 -10 -9 -21 -9 -18 0 -19 2 -9 15 12 15 30
12 30 -6z m390 11 c0 -5 -5 -10 -11 -10 -5 0 -7 5 -4 10 3 6 8 10 11 10 2 0 4
-4 4 -10z m-2080 -21 c0 -5 -7 -9 -15 -9 -9 0 -12 6 -9 15 6 15 24 11 24 -6z
m2021 8 c-1 -12 -15 -9 -19 4 -3 6 1 10 8 8 6 -3 11 -8 11 -12z m-444 -13 c8
-21 -13 -42 -28 -27 -13 13 -5 43 11 43 6 0 13 -7 17 -16z m198 6 c3 -5 -1
-10 -9 -10 -8 0 -18 5 -21 10 -3 6 1 10 9 10 8 0 18 -4 21 -10z m359 2 c8 -13
-11 -35 -23 -28 -16 10 -14 36 3 36 8 0 17 -4 20 -8z m-1989 -11 c3 -5 1 -12
-5 -16 -5 -3 -10 1 -10 9 0 18 6 21 15 7z m252 -7 c8 -21 -13 -42 -28 -27 -13
13 -5 43 11 43 6 0 13 -7 17 -16z m1837 7 c3 -5 -1 -14 -9 -21 -13 -10 -15 -9
-15 9 0 21 14 28 24 12z m-1904 -26 c0 -8 -4 -15 -10 -15 -5 0 -10 7 -10 15 0
8 5 15 10 15 6 0 10 -7 10 -15z m1165 5 c3 -5 1 -10 -4 -10 -6 0 -11 5 -11 10
0 6 2 10 4 10 3 0 8 -4 11 -10z m-1505 -10 c0 -5 -4 -10 -10 -10 -5 0 -10 5
-10 10 0 6 5 10 10 10 6 0 10 -4 10 -10z m2380 -10 c0 -13 -5 -18 -15 -14 -8
4 -15 12 -15 20 0 8 7 14 15 14 8 0 15 -9 15 -20z m145 -10 c-3 -10 -1 -21 5
-25 15 -9 12 -35 -3 -29 -19 7 -37 60 -24 73 15 15 29 3 22 -19z m-966 -6 c-6
-8 -15 -14 -20 -14 -14 0 -11 28 4 33 20 7 29 -4 16 -19z m601 6 c0 -5 -7 -10
-16 -10 -8 0 -12 5 -9 10 3 6 10 10 16 10 5 0 9 -4 9 -10z m170 6 c0 -3 -4 -8
-10 -11 -5 -3 -10 -1 -10 4 0 6 5 11 10 11 6 0 10 -2 10 -4z m-1897 -21 c4 0
7 -3 7 -7 0 -5 -3 -7 -7 -7 -20 4 -33 12 -33 21 0 5 6 6 13 1 6 -4 15 -8 20
-8z m-557 -12 c-3 -17 -26 -32 -26 -16 0 8 20 33 26 33 1 0 1 -8 0 -17z m74 7
c0 -5 -7 -10 -15 -10 -8 0 -15 5 -15 10 0 6 7 10 15 10 8 0 15 -4 15 -10z
m210 -16 c0 -8 -4 -12 -10 -9 -5 3 -10 10 -10 16 0 5 5 9 10 9 6 0 10 -7 10
-16z m450 -3 c0 -5 -8 -11 -17 -15 -10 -3 -24 -9 -30 -12 -23 -10 -14 11 10
22 29 15 37 16 37 5z m750 -11 c0 -19 -11 -26 -23 -14 -8 8 3 34 14 34 5 0 9
-9 9 -20z m940 10 c0 -5 -4 -10 -10 -10 -5 0 -10 5 -10 10 0 6 5 10 10 10 6 0
10 -4 10 -10z m-620 -21 c0 -5 -4 -9 -10 -9 -5 0 -10 7 -10 16 0 8 5 12 10 9
6 -3 10 -10 10 -16z m158 -7 c2 -14 -2 -22 -12 -22 -19 0 -29 17 -22 36 8 22
30 12 34 -14z m196 19 c8 -12 -21 -34 -34 -26 -17 11 -11 35 9 35 11 0 22 -4
25 -9z m306 -12 c0 -5 -4 -9 -10 -9 -5 0 -10 7 -10 16 0 8 5 12 10 9 6 -3 10
-10 10 -16z m-2690 -13 c0 -21 -21 -31 -30 -15 -5 7 -6 17 -4 21 9 14 34 9 34
-6z m1920 4 c0 -5 -4 -10 -9 -10 -6 0 -13 5 -16 10 -3 6 1 10 9 10 9 0 16 -4
16 -10z m310 0 c0 -5 -4 -10 -10 -10 -5 0 -10 5 -10 10 0 6 5 10 10 10 6 0 10
-4 10 -10z m665 -30 c7 -23 25 -27 25 -5 0 8 7 15 16 15 11 0 14 -5 10 -16 -3
-9 -6 -22 -6 -30 0 -8 -6 -13 -12 -11 -8 1 -12 -8 -10 -25 4 -31 -15 -38 -24
-10 -3 9 -10 26 -14 37 -17 40 -18 65 -5 65 8 0 17 -9 20 -20z m-2475 -9 c0
-11 4 -22 9 -26 10 -6 -18 -65 -31 -65 -10 0 -20 38 -13 50 4 6 11 8 16 5 16
-11 10 7 -8 20 -18 13 -10 35 13 35 8 0 14 -9 14 -19z m1810 4 c0 -8 -4 -15
-9 -15 -13 0 -22 16 -14 24 11 11 23 6 23 -9z m125 5 c3 -5 -1 -10 -10 -10 -9
0 -13 5 -10 10 3 6 8 10 10 10 2 0 7 -4 10 -10z m-182 -31 c-17 -17 -37 -1
-22 17 8 10 15 12 23 4 7 -7 7 -13 -1 -21z m105 -3 c2 -10 -1 -23 -7 -29 -16
-16 -34 6 -26 33 8 24 28 22 33 -4z m-2628 -11 c0 -8 -4 -15 -10 -15 -5 0 -10
7 -10 15 0 8 5 15 10 15 6 0 10 -7 10 -15z m520 5 c0 -5 -4 -10 -10 -10 -5 0
-10 5 -10 10 0 6 5 10 10 10 6 0 10 -4 10 -10z m200 0 c0 -5 -4 -10 -10 -10
-5 0 -10 5 -10 10 0 6 5 10 10 10 6 0 10 -4 10 -10z m1960 -4 c0 -8 7 -16 15
-20 8 -3 15 -10 15 -16 0 -5 -7 -10 -15 -10 -8 0 -15 6 -15 14 0 8 -7 17 -16
20 -8 3 -12 10 -9 16 9 15 25 12 25 -4z m237 -12 c-9 -9 -28 6 -21 18 4 6 10
6 17 -1 6 -6 8 -13 4 -17z m-1877 6 c0 -5 -4 -10 -10 -10 -5 0 -10 5 -10 10 0
6 5 10 10 10 6 0 10 -4 10 -10z m1130 -10 c0 -21 -24 -28 -35 -10 -8 14 3 30
21 30 8 0 14 -9 14 -20z m960 10 c0 -5 -5 -10 -11 -10 -5 0 -7 5 -4 10 3 6 8
10 11 10 2 0 4 -4 4 -10z m204 -6 c14 -5 14 -8 -1 -30 -11 -18 -12 -24 -3 -22
7 2 15 -2 17 -9 5 -14 -40 -28 -56 -18 -14 8 -14 41 -1 66 11 20 19 23 44 13z
m-3214 -14 c0 -5 -4 -10 -10 -10 -5 0 -10 5 -10 10 0 6 5 10 10 10 6 0 10 -4
10 -10z m325 1 c3 -5 1 -12 -5 -16 -5 -3 -10 1 -10 9 0 18 6 21 15 7z m515 -1
c0 -5 -4 -10 -10 -10 -5 0 -10 5 -10 10 0 6 5 10 10 10 6 0 10 -4 10 -10z
m-446 -15 c3 -9 -1 -18 -10 -22 -19 -7 -39 11 -30 26 10 16 33 13 40 -4z m493
-19 c-4 -9 -13 -13 -22 -10 -18 7 -20 31 -2 37 17 6 31 -9 24 -27z m83 24 c0
-5 -4 -10 -10 -10 -5 0 -10 5 -10 10 0 6 5 10 10 10 6 0 10 -4 10 -10z m1460
2 c0 -13 -12 -22 -22 -16 -10 6 -1 24 13 24 5 0 9 -4 9 -8z m545 -2 c3 -5 1
-10 -4 -10 -6 0 -11 5 -11 10 0 6 2 10 4 10 3 0 8 -4 11 -10z m-2935 -4 c0
-11 -19 -15 -25 -6 -3 5 1 10 9 10 9 0 16 -2 16 -4z m2040 -6 c0 -5 -4 -10
-10 -10 -5 0 -10 5 -10 10 0 6 5 10 10 10 6 0 10 -4 10 -10z m390 0 c0 -5 -5
-10 -11 -10 -5 0 -7 5 -4 10 3 6 8 10 11 10 2 0 4 -4 4 -10z m295 0 c3 -5 1
-10 -4 -10 -6 0 -11 5 -11 10 0 6 2 10 4 10 3 0 8 -4 11 -10z m-417 -11 c-2
-6 -8 -10 -13 -10 -5 0 -11 4 -13 10 -2 6 4 11 13 11 9 0 15 -5 13 -11z m552
-4 c0 -8 -4 -15 -10 -15 -5 0 -10 7 -10 15 0 8 5 15 10 15 6 0 10 -7 10 -15z
m-2680 -5 c0 -5 -4 -10 -10 -10 -5 0 -10 5 -10 10 0 6 5 10 10 10 6 0 10 -4
10 -10z m40 -26 c0 -14 -21 -19 -33 -7 -9 9 13 34 24 27 5 -3 9 -12 9 -20z
m180 16 c0 -5 -7 -10 -16 -10 -8 0 -12 5 -9 10 3 6 10 10 16 10 5 0 9 -4 9
-10z m518 -13 c2 -10 -3 -17 -12 -17 -18 0 -29 16 -21 31 9 14 29 6 33 -14z
m142 13 c0 -5 -7 -10 -15 -10 -8 0 -15 5 -15 10 0 6 7 10 15 10 8 0 15 -4 15
-10z m1278 -1 c-2 -6 -8 -10 -13 -10 -5 0 -11 4 -13 10 -2 6 4 11 13 11 9 0
15 -5 13 -11z m-2228 -9 c0 -5 -4 -10 -10 -10 -5 0 -10 5 -10 10 0 6 5 10 10
10 6 0 10 -4 10 -10z m605 -29 c-3 -48 -14 -69 -26 -50 -15 23 5 86 27 89 1 0
0 -17 -1 -39z m-455 19 c0 -5 -5 -10 -11 -10 -5 0 -7 5 -4 10 3 6 8 10 11 10
2 0 4 -4 4 -10z m1740 0 c0 -5 -7 -10 -16 -10 -8 0 -12 5 -9 10 3 6 10 10 16
10 5 0 9 -4 9 -10z m920 -5 c0 -9 -7 -18 -16 -22 -18 -7 -39 11 -30 26 11 17
46 13 46 -4z m-3280 -10 c0 -8 -4 -15 -9 -15 -13 0 -22 16 -14 24 11 11 23 6
23 -9z m3030 6 c0 -6 -4 -13 -10 -16 -5 -3 -10 1 -10 9 0 9 5 16 10 16 6 0 10
-4 10 -9z m460 -17 c0 -8 -4 -14 -10 -14 -5 0 -10 9 -10 21 0 11 5 17 10 14 6
-3 10 -13 10 -21z m-1095 6 c3 -6 -1 -13 -10 -16 -19 -8 -30 0 -20 15 8 14 22
14 30 1z m299 -5 c-4 -8 -8 -15 -10 -15 -2 0 -4 7 -4 15 0 8 4 15 10 15 5 0 7
-7 4 -15z m376 -17 c0 -17 -3 -18 -14 -8 -8 6 -12 18 -9 26 7 19 23 7 23 -18z
m421 -93 c4 -6 9 -28 11 -48 1 -20 6 -37 10 -37 4 0 8 -7 8 -15 0 -25 -29 -17
-43 13 -8 15 -19 48 -26 74 -6 26 -21 63 -33 83 -16 29 -18 39 -8 45 9 5 22
-9 43 -49 16 -31 33 -61 38 -66z m-3265 100 c-3 -8 -1 -15 4 -15 6 0 10 -7 10
-15 0 -15 -20 -22 -20 -7 0 4 -3 17 -6 30 -4 14 -2 22 6 22 7 0 10 -7 6 -15z
m2414 -6 c0 -5 -7 -9 -15 -9 -15 0 -20 12 -9 23 8 8 24 -1 24 -14z m250 11 c0
-5 -4 -10 -10 -10 -5 0 -10 5 -10 10 0 6 5 10 10 10 6 0 10 -4 10 -10z m274
-5 c3 -9 -1 -18 -10 -22 -19 -7 -28 2 -21 22 8 19 23 19 31 0z m-2559 -19 c41
10 97 -44 63 -60 -10 -5 -10 -7 -1 -12 8 -3 11 -15 7 -29 -5 -19 -1 -24 18
-27 15 -2 24 -11 26 -26 3 -20 0 -23 -20 -20 -15 2 -24 11 -26 26 -2 15 -9 22
-17 18 -14 -5 -15 11 -2 31 8 13 -10 20 -61 22 -17 1 -31 -2 -30 -6 4 -15 -23
-53 -37 -53 -8 0 -12 -6 -9 -14 3 -7 -2 -16 -10 -19 -9 -4 -16 -17 -16 -31 0
-15 -7 -25 -20 -29 -16 -4 -18 -11 -13 -43 3 -22 11 -48 18 -59 10 -17 10 -24
-1 -40 -10 -13 -14 -49 -14 -118 0 -97 -11 -144 -31 -131 -6 3 -16 -2 -23 -11
-8 -11 -29 -18 -62 -19 -63 -3 -97 -23 -83 -48 6 -10 7 -24 3 -30 -4 -7 -3 -8
5 -4 6 4 18 2 26 -4 9 -7 22 -9 32 -4 10 4 20 8 23 9 3 1 13 5 23 10 24 10 37
-4 14 -16 -9 -6 -17 -15 -17 -20 0 -6 13 -1 29 10 38 27 91 28 91 2 0 -17 18
-31 41 -31 6 0 7 9 4 21 -5 14 -3 19 3 15 6 -3 17 3 26 15 10 15 20 19 33 15
17 -7 17 -8 1 -20 -25 -19 -22 -28 17 -55 19 -13 47 -34 62 -47 16 -13 36 -24
45 -24 9 0 21 -6 25 -12 4 -7 14 -13 22 -13 32 0 98 -165 74 -188 -3 -4 -8
-20 -10 -37 -2 -23 1 -28 12 -24 8 4 15 11 15 17 0 5 10 -1 23 -14 13 -15 23
-39 24 -62 2 -38 -5 -45 -25 -25 -9 9 -12 8 -16 -3 -19 -61 -25 -72 -25 -56
-1 10 -15 48 -33 84 -26 54 -41 71 -84 99 -59 38 -187 84 -232 84 -34 0 -67
-13 -134 -53 -40 -24 -56 -28 -115 -26 -63 2 -143 -14 -169 -33 -18 -13 -108
-23 -100 -10 3 6 14 10 24 10 29 -1 72 21 72 36 0 18 29 35 48 29 7 -3 11 1
10 8 -2 10 14 15 57 17 58 3 95 19 67 29 -10 4 -10 8 -1 19 9 11 8 18 -1 29
-9 11 -10 19 -2 27 13 13 35 0 28 -18 -7 -18 2 -18 19 0 12 12 12 15 -3 22
-14 6 -11 8 12 13 34 7 45 27 19 35 -24 8 -84 64 -106 98 -9 15 -17 38 -17 52
0 23 56 114 105 170 27 31 31 56 15 87 -8 14 -7 33 4 69 8 28 13 57 9 65 -3 8
0 15 7 15 11 0 100 85 100 96 0 3 -6 4 -14 1 -10 -4 -12 0 -9 13 3 11 13 22
23 25 10 3 20 19 24 35 3 20 12 30 23 30 12 0 14 3 6 8 -8 5 -9 13 -3 22 8 13
12 12 25 -5 8 -11 14 -15 13 -10 -4 15 34 55 52 56 9 0 6 4 -7 9 -24 10 -27
18 -17 45 6 16 8 16 16 1 6 -11 17 -14 33 -10z m1372 8 c8 -21 -13 -42 -28
-27 -13 13 -5 43 11 43 6 0 13 -7 17 -16z m578 -13 c-9 -16 -25 -3 -18 15 4
10 9 12 15 6 6 -6 7 -15 3 -21z m-2555 4 c0 -8 -4 -15 -10 -15 -5 0 -10 7 -10
15 0 8 5 15 10 15 6 0 10 -7 10 -15z m3030 5 c0 -5 -7 -10 -16 -10 -8 0 -12 5
-9 10 3 6 10 10 16 10 5 0 9 -4 9 -10z m-2134 -16 c-3 -9 -6 -18 -6 -20 0 -2
-4 -4 -9 -4 -5 0 -7 9 -4 20 3 11 10 20 15 20 6 0 7 -7 4 -16z m1344 8 c0 -13
-12 -22 -22 -16 -10 6 -1 24 13 24 5 0 9 -4 9 -8z m990 -2 c0 -5 -5 -10 -11
-10 -5 0 -7 5 -4 10 3 6 8 10 11 10 2 0 4 -4 4 -10z m-2815 -10 c3 -5 1 -10
-4 -10 -6 0 -11 5 -11 10 0 6 2 10 4 10 3 0 8 -4 11 -10z m2301 -25 c-6 -18
-36 -20 -36 -4 0 16 34 40 38 28 2 -5 1 -16 -2 -24z m574 19 c0 -8 -5 -12 -10
-9 -6 4 -8 11 -5 16 9 14 15 11 15 -7z m-2960 -4 c0 -5 -4 -10 -10 -10 -5 0
-10 5 -10 10 0 6 5 10 10 10 6 0 10 -4 10 -10z m1153 -17 c-7 -3 -13 -11 -13
-19 0 -8 -7 -14 -15 -14 -19 0 -19 5 1 36 13 19 20 22 28 13 8 -8 8 -13 -1
-16z m1407 17 c0 -5 -4 -10 -10 -10 -5 0 -10 5 -10 10 0 6 5 10 10 10 6 0 10
-4 10 -10z m666 -43 c-5 -28 -2 -45 7 -56 8 -9 18 -27 22 -41 6 -20 2 -17 -18
12 -34 48 -50 107 -36 125 19 22 31 3 25 -40z m-2752 27 c4 -10 1 -14 -6 -12
-15 5 -23 28 -10 28 5 0 13 -7 16 -16z m1116 1 c0 -8 -4 -15 -10 -15 -5 0 -10
7 -10 15 0 8 5 15 10 15 6 0 10 -7 10 -15z m90 5 c0 -5 -2 -10 -4 -10 -3 0 -8
5 -11 10 -3 6 -1 10 4 10 6 0 11 -4 11 -10z m-1720 -14 c0 -8 -5 -18 -11 -22
-14 -8 -33 11 -25 25 10 16 36 13 36 -3z m478 -3 c-4 -22 -22 -20 -26 1 -2 10
3 16 13 16 10 0 15 -7 13 -17z m659 -5 c-3 -8 -6 -5 -6 6 -1 11 2 17 5 13 3
-3 4 -12 1 -19z m1723 12 c0 -5 -4 -10 -10 -10 -5 0 -10 5 -10 10 0 6 5 10 10
10 6 0 10 -4 10 -10z m-2169 -33 c-10 -9 -11 -8 -5 6 3 10 9 15 12 12 3 -3 0
-11 -7 -18z m1764 13 c-3 -5 -10 -10 -16 -10 -5 0 -9 5 -9 10 0 6 7 10 16 10
8 0 12 -4 9 -10z m99 -5 c3 -8 1 -15 -4 -15 -6 0 -10 7 -10 15 0 8 2 15 4 15
2 0 6 -7 10 -15z m432 -20 c-5 -14 -9 -15 -21 -5 -12 10 -13 16 -4 27 15 18
34 1 25 -22z m-1896 15 c0 -5 -5 -10 -11 -10 -5 0 -7 5 -4 10 3 6 8 10 11 10
2 0 4 -4 4 -10z m1532 -5 c0 -5 -5 -11 -11 -13 -6 -2 -11 4 -11 13 0 9 5 15
11 13 6 -2 11 -8 11 -13z m73 5 c4 -6 1 -17 -5 -26 -10 -11 -16 -12 -26 -3
-11 9 -11 15 -3 25 14 17 25 18 34 4z m235 0 c0 -5 -5 -10 -11 -10 -5 0 -7 5
-4 10 3 6 8 10 11 10 2 0 4 -4 4 -10z m-1559 -23 c-13 -13 -26 -3 -16 12 3 6
11 8 17 5 6 -4 6 -10 -1 -17z m1006 -3 c-9 -9 -28 6 -21 18 4 6 10 6 17 -1 6
-6 8 -13 4 -17z m417 17 c3 -5 -1 -11 -9 -15 -9 -3 -15 0 -15 9 0 16 16 20 24
6z m-2044 -31 c0 -21 -5 -30 -16 -30 -11 0 -14 5 -10 16 3 9 6 22 6 30 0 8 5
14 10 14 6 0 10 -13 10 -30z m290 20 c0 -5 -2 -10 -4 -10 -3 0 -8 5 -11 10 -3
6 -1 10 4 10 6 0 11 -4 11 -10z m-1050 -14 c0 -8 -4 -17 -9 -21 -12 -7 -24 12
-16 25 9 15 25 12 25 -4z m730 4 c0 -5 -7 -10 -15 -10 -8 0 -15 5 -15 10 0 6
7 10 15 10 8 0 15 -4 15 -10z m618 -1 c-2 -6 -8 -10 -13 -10 -5 0 -11 4 -13
10 -2 6 4 11 13 11 9 0 15 -5 13 -11z m822 -10 c0 -12 -29 -24 -37 -16 -3 4
-3 13 0 21 6 16 37 11 37 -5z m590 13 c0 -13 -12 -22 -22 -16 -10 6 -1 24 13
24 5 0 9 -4 9 -8z m-2290 -12 c0 -5 -4 -10 -10 -10 -5 0 -10 5 -10 10 0 6 5
10 10 10 6 0 10 -4 10 -10z m145 -16 c-13 -14 -35 -19 -35 -9 0 13 26 32 37
28 10 -4 9 -8 -2 -19z m1505 16 c0 -5 -4 -10 -10 -10 -5 0 -10 5 -10 10 0 6 5
10 10 10 6 0 10 -4 10 -10z m-1760 -38 c8 2 15 -4 17 -12 3 -11 -5 -15 -27
-15 -17 0 -30 5 -30 13 0 6 -7 12 -15 12 -21 0 -19 18 3 22 9 2 22 -2 27 -10
6 -7 17 -12 25 -10z m1933 -17 c-38 -29 -46 -8 -11 27 21 21 23 21 26 5 2 -10
-5 -25 -15 -32z m527 25 c0 -11 -6 -20 -14 -20 -18 0 -29 16 -21 30 11 18 35
11 35 -10z m-3050 -16 c0 -14 -4 -23 -10 -19 -5 3 -10 15 -10 26 0 10 5 19 10
19 6 0 10 -12 10 -26z m318 -19 c6 -25 -34 -2 -41 25 -5 20 -4 20 16 7 12 -8
24 -22 25 -32z m2612 35 c0 -5 -2 -10 -4 -10 -3 0 -8 5 -11 10 -3 6 -1 10 4
10 6 0 11 -4 11 -10z m-2670 -10 c0 -5 -7 -10 -15 -10 -8 0 -15 -5 -15 -12 0
-6 -2 -9 -5 -6 -3 3 -3 13 1 22 7 17 34 22 34 6z m1480 0 c0 -5 -5 -10 -11
-10 -5 0 -7 5 -4 10 3 6 8 10 11 10 2 0 4 -4 4 -10z m440 -4 c0 -8 -4 -17 -8
-20 -13 -8 -35 11 -28 23 10 16 36 14 36 -3z m-1433 -18 c-3 -8 -6 -5 -6 6 -1
11 2 17 5 13 3 -3 4 -12 1 -19z m63 12 c0 -5 -4 -10 -10 -10 -5 0 -10 5 -10
10 0 6 5 10 10 10 6 0 10 -4 10 -10z m50 -5 c0 -8 -4 -15 -10 -15 -5 0 -10 7
-10 15 0 8 5 15 10 15 6 0 10 -7 10 -15z m-350 -5 c0 -5 -5 -10 -11 -10 -5 0
-7 5 -4 10 3 6 8 10 11 10 2 0 4 -4 4 -10z m2901 -12 c20 -25 25 -53 10 -62
-5 -3 -16 9 -25 28 -27 56 -19 74 15 34z m-3436 2 c3 -5 1 -10 -4 -10 -6 0
-11 5 -11 10 0 6 2 10 4 10 3 0 8 -4 11 -10z m719 -23 c-3 -9 -10 -17 -15 -17
-11 0 -12 34 -2 44 11 11 24 -9 17 -27z m87 20 c-1 -12 -15 -9 -19 4 -3 6 1
10 8 8 6 -3 11 -8 11 -12z m925 2 c10 -17 -13 -36 -27 -22 -12 12 -4 33 11 33
5 0 12 -5 16 -11z m704 7 c0 -11 -19 -15 -25 -6 -3 5 1 10 9 10 9 0 16 -2 16
-4z m168 -13 c-4 -21 -19 -26 -38 -13 -13 9 -13 11 0 20 23 15 42 12 38 -7z
m1154 -5 c-7 -7 -12 -8 -12 -2 0 6 3 14 7 17 3 4 9 5 12 2 2 -3 -1 -11 -7 -17z
m-3082 2 c0 -5 -4 -10 -10 -10 -5 0 -10 5 -10 10 0 6 5 10 10 10 6 0 10 -4 10
-10z m1390 -5 c0 -8 -4 -15 -9 -15 -13 0 -22 16 -14 24 11 11 23 6 23 -9z
m-1760 -9 c0 -15 -24 -28 -34 -19 -13 14 -5 33 14 33 11 0 20 -6 20 -14z
m1470 -5 c0 -20 -13 -35 -23 -25 -7 8 4 44 14 44 5 0 9 -9 9 -19z m-711 -20
c-3 -6 -10 -7 -18 -2 -7 5 -10 14 -6 21 9 14 29 -2 24 -19z m-484 9 c-3 -5
-10 -10 -16 -10 -5 0 -9 5 -9 10 0 6 7 10 16 10 8 0 12 -4 9 -10z m177 -12
c-9 -9 -15 -9 -24 0 -9 9 -7 12 12 12 19 0 21 -3 12 -12z m838 -9 c0 -5 -4 -9
-10 -9 -5 0 -10 7 -10 16 0 8 5 12 10 9 6 -3 10 -10 10 -16z m2120 -9 c12 -16
18 -35 15 -41 -8 -12 -28 13 -39 49 -10 30 -1 28 24 -8z m20 20 c0 -5 -4 -10
-10 -10 -5 0 -10 5 -10 10 0 6 5 10 10 10 6 0 10 -4 10 -10z m-2860 -15 c0 -8
-3 -15 -7 -15 -5 0 -18 -3 -29 -6 -14 -4 -23 0 -27 10 -4 10 0 14 13 11 11 -2
22 0 25 6 9 14 25 11 25 -6z m402 0 c0 -5 -5 -11 -11 -13 -6 -2 -11 4 -11 13
0 9 5 15 11 13 6 -2 11 -8 11 -13z m428 5 c0 -5 -7 -10 -16 -10 -8 0 -12 5 -9
10 3 6 10 10 16 10 5 0 9 -4 9 -10z m102 -5 c0 -5 -5 -11 -11 -13 -6 -2 -11 4
-11 13 0 9 5 15 11 13 6 -2 11 -8 11 -13z m-1916 -48 c-1 -9 -5 -17 -11 -17
-11 0 -16 48 -7 64 7 12 19 -22 18 -47z m110 11 c4 -6 -1 -17 -10 -24 -10 -7
-15 -18 -11 -25 5 -7 3 -10 -5 -7 -7 2 -14 18 -16 36 -3 26 0 32 15 32 11 0
23 -5 27 -12z m1784 8 c0 -3 -4 -8 -10 -11 -5 -3 -10 -1 -10 4 0 6 5 11 10 11
6 0 10 -2 10 -4z m-513 -22 c3 -8 1 -20 -5 -26 -15 -15 -43 8 -35 28 7 19 32
18 40 -2z m633 1 c0 -8 -4 -15 -10 -15 -5 0 -10 7 -10 15 0 8 5 15 10 15 6 0
10 -7 10 -15z m-695 -5 c3 -5 1 -10 -4 -10 -6 0 -11 5 -11 10 0 6 2 10 4 10 3
0 8 -4 11 -10z m1691 0 c22 -9 25 -13 14 -23 -10 -9 -13 -9 -17 1 -3 6 -9 10
-14 6 -12 -7 -31 5 -24 17 8 11 8 11 41 -1z m-1235 -23 c-13 -13 -26 -3 -16
12 3 6 11 8 17 5 6 -4 6 -10 -1 -17z m63 -8 c-8 -14 -34 -11 -34 4 0 8 3 17 7
20 9 9 34 -13 27 -24z m-1784 11 c0 -5 -4 -10 -10 -10 -5 0 -10 5 -10 10 0 6
5 10 10 10 6 0 10 -4 10 -10z m540 0 c0 -5 -4 -10 -10 -10 -5 0 -10 5 -10 10
0 6 5 10 10 10 6 0 10 -4 10 -10z m135 -28 c-7 -8 -45 10 -40 19 4 5 14 3 25
-3 11 -7 17 -14 15 -16z m1215 18 c0 -5 -2 -10 -4 -10 -3 0 -8 5 -11 10 -3 6
-1 10 4 10 6 0 11 -4 11 -10z m1863 -10 c3 -11 1 -20 -4 -20 -5 0 -9 2 -9 4 0
2 -3 11 -6 20 -3 9 -2 16 4 16 5 0 12 -9 15 -20z m-3133 -25 c0 -8 9 -15 20
-15 13 0 20 -7 20 -20 0 -24 -28 -27 -36 -5 -4 10 -13 13 -25 10 -14 -5 -19
-1 -19 13 0 10 3 22 7 25 12 13 33 7 33 -8z m-665 -5 c3 -5 1 -10 -4 -10 -6 0
-11 5 -11 10 0 6 2 10 4 10 3 0 8 -4 11 -10z m1955 -10 c0 -5 -2 -10 -4 -10
-3 0 -8 5 -11 10 -3 6 -1 10 4 10 6 0 11 -4 11 -10z m175 0 c3 -5 -1 -10 -10
-10 -9 0 -13 5 -10 10 3 6 8 10 10 10 2 0 7 -4 10 -10z m73 -7 c-2 -10 -10
-18 -18 -18 -8 0 -16 8 -18 18 -2 12 3 17 18 17 15 0 20 -5 18 -17z m1465 -20
c-7 -3 -13 -9 -13 -14 0 -10 -37 -49 -46 -49 -4 0 -2 6 3 13 6 6 9 21 7 32 -1
11 5 27 14 36 15 15 19 15 32 2 11 -12 12 -17 3 -20z m-1918 17 c3 -5 1 -10
-4 -10 -6 0 -11 5 -11 10 0 6 2 10 4 10 3 0 8 -4 11 -10z m830 0 c-3 -5 -10
-10 -16 -10 -5 0 -9 5 -9 10 0 6 7 10 16 10 8 0 12 -4 9 -10z m-2583 -35 c-2
-14 -8 -25 -13 -25 -10 0 -12 34 -2 43 13 14 20 6 15 -18z m2473 -5 c3 -5 2
-10 -4 -10 -5 0 -13 5 -16 10 -3 6 -2 10 4 10 5 0 13 -4 16 -10z m-2325 -5 c0
-15 -33 -54 -41 -49 -14 8 -10 24 6 24 8 0 15 7 15 15 0 8 5 15 10 15 6 0 10
-2 10 -5z m-63 -27 c-3 -8 -6 -5 -6 6 -1 11 2 17 5 13 3 -3 4 -12 1 -19z m263
12 c0 -5 -4 -10 -10 -10 -5 0 -10 5 -10 10 0 6 5 10 10 10 6 0 10 -4 10 -10z
m2378 -8 c3 -9 -2 -13 -14 -10 -9 1 -19 9 -22 16 -3 9 2 13 14 10 9 -1 19 -9
22 -16z m-1664 -8 c9 -24 7 -28 -9 -14 -17 14 -20 30 -6 30 5 0 12 -7 15 -16z
m66 -9 c5 -14 19 -38 31 -54 12 -16 24 -49 26 -73 3 -23 11 -55 19 -70 22 -43
-10 -30 -45 19 -17 23 -37 45 -46 50 -8 5 -19 23 -24 40 -8 27 -7 31 6 26 13
-5 13 -3 4 15 -12 23 -5 72 10 72 5 0 14 -11 19 -25z m690 11 c0 -20 -19 -31
-32 -18 -6 6 -7 15 -4 21 10 16 36 13 36 -3z m-790 -6 c0 -5 -4 -10 -10 -10
-5 0 -10 5 -10 10 0 6 5 10 10 10 6 0 10 -4 10 -10z m1434 -14 c-5 -21 -2 -25
23 -28 30 -3 47 -38 19 -38 -9 0 -16 3 -16 8 0 4 -10 12 -22 17 -27 12 -36 65
-12 65 10 0 13 -7 8 -24z m-2424 10 c0 -3 -4 -8 -10 -11 -5 -3 -10 -1 -10 4 0
6 5 11 10 11 6 0 10 -2 10 -4z m-120 -16 c0 -5 -4 -10 -10 -10 -5 0 -10 5 -10
10 0 6 5 10 10 10 6 0 10 -4 10 -10z m400 -5 c0 -8 -7 -15 -15 -15 -8 0 -15 7
-15 15 0 8 7 15 15 15 8 0 15 -7 15 -15z m1510 -15 c0 -5 -4 -10 -10 -10 -5 0
-10 5 -10 10 0 6 5 10 10 10 6 0 10 -4 10 -10z m758 -28 c2 -7 -2 -10 -12 -6
-9 3 -16 11 -16 16 0 13 23 5 28 -10z m-2618 -42 c0 -5 -4 -10 -10 -10 -5 0
-10 5 -10 10 0 6 5 10 10 10 6 0 10 -4 10 -10z m2510 0 c0 -5 -4 -10 -9 -10
-6 0 -13 5 -16 10 -3 6 1 10 9 10 9 0 16 -4 16 -10z m180 0 c0 -5 -2 -10 -4
-10 -3 0 -8 5 -11 10 -3 6 -1 10 4 10 6 0 11 -4 11 -10z m-2037 -14 c6 -16 -2
-28 -14 -20 -12 7 -11 34 0 34 5 0 11 -6 14 -14z m1727 -6 c-11 -20 -30 -28
-30 -12 0 11 22 32 32 32 5 0 4 -9 -2 -20z m1173 -5 c-3 -9 -8 -14 -10 -11 -3
3 -2 9 2 15 9 16 15 13 8 -4z m-1430 -10 c-3 -9 -8 -14 -10 -11 -3 3 -2 9 2
15 9 16 15 13 8 -4z m57 1 c-6 -8 -18 -12 -26 -9 -23 9 -16 23 12 23 22 0 24
-2 14 -14z m356 -2 c-18 -17 -26 -18 -26 -1 0 7 9 13 20 14 18 2 18 0 6 -13z
m-2552 -35 c-3 -5 -11 -9 -19 -9 -10 0 -7 -13 13 -45 15 -24 32 -43 37 -41 6
1 16 -11 23 -27 10 -25 10 -32 0 -39 -19 -11 -60 -10 -53 2 4 6 -5 10 -19 10
-14 0 -26 -5 -26 -11 0 -5 -4 -8 -9 -5 -5 4 -9 39 -8 79 2 55 6 77 21 94 15
17 23 20 33 12 7 -6 10 -15 7 -20z m2766 -13 c0 -11 -19 -15 -25 -6 -3 5 1 10
9 10 9 0 16 -2 16 -4z m68 -8 c-7 -19 -38 -22 -38 -4 0 10 9 16 21 16 12 0 19
-5 17 -12z m922 -17 c0 -17 -18 -21 -24 -6 -3 9 0 15 9 15 8 0 15 -4 15 -9z
m-1795 -11 c3 -5 -1 -10 -9 -10 -9 0 -16 5 -16 10 0 6 4 10 9 10 6 0 13 -4 16
-10z m-1505 -4 c0 -3 -4 -8 -10 -11 -5 -3 -10 -1 -10 4 0 6 5 11 10 11 6 0 10
-2 10 -4z m1994 -18 c7 -9 24 -20 39 -23 17 -5 27 -14 27 -25 0 -11 4 -21 9
-24 4 -3 9 -36 10 -73 2 -65 0 -70 -33 -105 -38 -40 -71 -55 -89 -40 -7 5 -19
9 -27 9 -26 -1 -100 54 -100 74 0 12 -5 16 -15 13 -30 -12 -44 14 -41 74 5 80
16 114 32 108 8 -3 29 3 47 14 40 24 123 22 141 -2z m111 12 c3 -5 1 -10 -4
-10 -6 0 -11 5 -11 10 0 6 2 10 4 10 3 0 8 -4 11 -10z m-467 -11 c-2 -6 -8
-10 -13 -10 -5 0 -11 4 -13 10 -2 6 4 11 13 11 9 0 15 -5 13 -11z m517 1 c3
-5 1 -10 -4 -10 -6 0 -11 5 -11 10 0 6 2 10 4 10 3 0 8 -4 11 -10z m125 0 c0
-5 -4 -10 -10 -10 -5 0 -10 5 -10 10 0 6 5 10 10 10 6 0 10 -4 10 -10z m-39
-23 c-13 -13 -26 -3 -16 12 3 6 11 8 17 5 6 -4 6 -10 -1 -17z m-597 -28 c-3
-5 -10 -7 -15 -3 -5 3 -7 10 -3 15 3 5 10 7 15 3 5 -3 7 -10 3 -15z m-815 -22
c0 -21 -1 -21 -9 -2 -12 28 -12 37 0 30 6 -3 10 -16 9 -28z m-1604 -34 c-9
-15 -13 -19 -10 -8 4 11 10 29 13 40 3 11 7 14 9 8 3 -7 -3 -24 -12 -40z
m4175 22 c11 -13 10 -14 -4 -9 -9 3 -16 10 -16 15 0 13 6 11 20 -6z m-4216
-20 c4 -11 -1 -15 -19 -15 -26 0 -34 15 -12 23 20 9 25 8 31 -8z m4100 -15 c4
-5 5 -13 2 -19 -8 -12 -55 16 -56 32 0 9 40 -1 54 -13z m106 11 c0 -12 -20
-25 -27 -18 -7 7 6 27 18 27 5 0 9 -4 9 -9z m-3540 -27 c0 -14 -12 -19 -23 -8
-9 9 4 35 14 28 5 -3 9 -12 9 -20z m2350 6 c0 -5 -5 -10 -11 -10 -5 0 -7 5 -4
10 3 6 8 10 11 10 2 0 4 -4 4 -10z m-2571 -17 c-25 -32 -59 -66 -59 -58 0 4
-7 2 -15 -5 -15 -12 -11 -35 4 -26 4 3 18 -8 30 -24 32 -44 9 -37 -33 10 -41
46 -49 82 -18 86 9 2 11 -5 7 -19 -5 -17 -4 -19 4 -7 6 8 14 15 18 15 4 0 18
10 31 23 27 27 51 31 31 5z m44 -29 c-3 -8 -9 -14 -13 -14 -14 0 -22 20 -16
37 5 12 9 13 21 3 7 -6 11 -18 8 -26z m3680 9 c-7 -2 -19 -2 -25 0 -7 3 -2 5
12 5 14 0 19 -2 13 -5z m-3565 -30 c-2 -10 -10 -18 -18 -18 -8 0 -16 8 -18 18
-2 12 3 17 18 17 15 0 20 -5 18 -17z m3617 7 c-3 -5 -11 -10 -16 -10 -6 0 -7
5 -4 10 3 6 11 10 16 10 6 0 7 -4 4 -10z m-3575 -27 c-24 -17 -35 -12 -27 11
4 9 14 12 27 9 l21 -6 -21 -14z m70 -3 c0 -5 -5 -10 -11 -10 -5 0 -7 5 -4 10
3 6 8 10 11 10 2 0 4 -4 4 -10z m-107 -24 c4 -10 0 -12 -14 -9 -10 3 -16 9
-13 14 8 13 21 11 27 -5z m-873 -87 c0 -39 -4 -69 -10 -69 -6 0 -10 32 -10 76
0 47 4 73 10 69 6 -3 10 -37 10 -76z m2740 21 c0 -5 -2 -10 -4 -10 -3 0 -8 5
-11 10 -3 6 -1 10 4 10 6 0 11 -4 11 -10z m-1960 -4 c0 -3 -4 -8 -10 -11 -5
-3 -10 -1 -10 4 0 6 5 11 10 11 6 0 10 -2 10 -4z m40 -6 c0 -5 -7 -10 -15 -10
-8 0 -15 5 -15 10 0 6 7 10 15 10 8 0 15 -4 15 -10z m-75 -22 c-9 -29 -32 -54
-41 -45 -4 4 1 16 11 27 10 11 15 20 11 20 -4 0 -4 5 -1 10 12 19 26 10 20
-12z m2035 -23 c0 -26 -14 -33 -25 -15 -9 14 1 40 15 40 5 0 10 -11 10 -25z
m360 -5 c0 -5 -5 -10 -11 -10 -5 0 -7 5 -4 10 3 6 8 10 11 10 2 0 4 -4 4 -10z
m-410 -20 c0 -12 -29 -20 -35 -10 -9 15 4 30 20 23 8 -3 15 -9 15 -13z m-2227
-29 c4 -17 2 -18 -14 -8 -22 14 -25 27 -5 27 7 0 16 -9 19 -19z m2237 -45 c0
-3 -4 -8 -10 -11 -5 -3 -10 -1 -10 4 0 6 5 11 10 11 6 0 10 -2 10 -4z m285 -6
c3 -5 -1 -10 -10 -10 -9 0 -13 5 -10 10 3 6 8 10 10 10 2 0 7 -4 10 -10z
m-330 -18 c0 -18 -20 -15 -23 4 -3 10 1 15 10 12 7 -3 13 -10 13 -16z m365 2
c0 -8 -5 -12 -10 -9 -6 4 -8 11 -5 16 9 14 15 11 15 -7z m-310 -35 c0 -5 -4
-9 -10 -9 -5 0 -10 7 -10 16 0 8 5 12 10 9 6 -3 10 -10 10 -16z m1430 -13 c0
-11 -19 -15 -25 -6 -3 5 1 10 9 10 9 0 16 -2 16 -4z m-3917 -43 c-3 -21 -9
-45 -14 -54 -9 -17 7 -39 28 -39 7 0 13 -9 13 -20 0 -11 -7 -20 -15 -20 -8 0
-15 5 -15 11 0 8 -5 7 -15 -1 -9 -7 -13 -20 -10 -29 3 -9 1 -31 -4 -49 -8 -26
-7 -32 5 -32 20 0 14 -32 -10 -49 -15 -11 -21 -12 -24 -3 -5 17 -22 15 -22 -2
0 -7 -9 -16 -20 -19 -15 -4 -20 0 -20 13 0 31 11 49 26 43 8 -3 14 0 14 7 0 6
5 8 10 5 6 -3 10 -1 10 4 0 6 -6 11 -14 11 -36 0 -28 46 10 61 13 4 24 13 24
19 0 6 -4 8 -10 5 -5 -3 -10 0 -10 8 0 8 -9 17 -20 20 -19 5 -29 37 -12 37 5
0 14 11 20 25 7 15 20 25 32 25 25 0 27 27 3 33 -15 3 -14 6 7 15 38 16 39 15
33 -25z m2447 27 c0 -5 -7 -10 -16 -10 -8 0 -12 5 -9 10 3 6 10 10 16 10 5 0
9 -4 9 -10z m-2420 -20 c0 -5 -2 -10 -4 -10 -3 0 -8 5 -11 10 -3 6 -1 10 4 10
6 0 11 -4 11 -10z m87 -13 c9 -11 5 -77 -6 -77 -4 0 -6 11 -3 25 3 20 0 25
-17 25 -18 0 -21 -5 -19 -35 2 -40 -2 -47 -21 -35 -17 10 -17 60 -1 90 9 17
17 20 38 15 15 -4 28 -7 29 -8z m-304 -23 c2 -13 0 -27 -5 -30 -5 -4 -7 -16
-4 -27 3 -12 0 -27 -6 -34 -8 -11 -7 -12 6 -7 11 4 16 1 16 -11 0 -9 4 -14 9
-11 17 11 21 -25 5 -49 -9 -13 -13 -29 -10 -34 4 -6 -5 -18 -19 -27 -30 -20
-31 -28 -5 -54 11 -11 20 -26 20 -33 0 -13 -59 -41 -61 -29 -1 4 -3 19 -4 34
-2 15 -9 36 -14 47 -8 14 -8 22 1 27 6 4 8 3 4 -4 -3 -6 -2 -13 3 -16 17 -11
32 153 17 190 -8 18 -8 18 -17 -3 -4 -13 -14 -23 -20 -23 -9 0 -9 4 0 14 9 11
9 16 0 21 -13 8 -29 -12 -23 -29 4 -12 -41 -37 -51 -28 -14 14 -4 33 14 27 15
-5 22 1 32 30 7 19 19 35 27 35 7 0 12 6 10 12 -3 7 5 18 16 23 36 19 54 15
59 -11z m4037 -4 c0 -5 -2 -10 -4 -10 -3 0 -8 5 -11 10 -3 6 -1 10 4 10 6 0
11 -4 11 -10z m-1290 -34 c0 -3 -4 -8 -10 -11 -5 -3 -10 -1 -10 4 0 6 5 11 10
11 6 0 10 -2 10 -4z m-2436 -41 c-6 -16 -34 -21 -34 -7 0 13 11 22 26 22 8 0
11 -6 8 -15z m-254 -5 c0 -5 -2 -10 -4 -10 -3 0 -8 5 -11 10 -3 6 -1 10 4 10
6 0 11 -4 11 -10z m690 -24 c0 -19 -4 -37 -8 -40 -4 -2 -8 13 -7 35 0 21 3 39
8 39 4 0 7 -15 7 -34z m-122 -18 c-2 -6 -10 -14 -16 -16 -7 -2 -10 2 -6 12 7
18 28 22 22 4z m2002 -18 c0 -5 -4 -10 -10 -10 -5 0 -10 5 -10 10 0 6 5 10 10
10 6 0 10 -4 10 -10z m40 -10 c0 -5 -4 -10 -10 -10 -5 0 -10 5 -10 10 0 6 5
10 10 10 6 0 10 -4 10 -10z m-115 -40 c3 -5 1 -10 -4 -10 -6 0 -11 5 -11 10 0
6 2 10 4 10 3 0 8 -4 11 -10z m255 -46 c0 -17 -26 -19 -36 -3 -7 12 15 31 28
23 4 -3 8 -12 8 -20z m-2967 10 c9 -9 -14 -55 -40 -83 -28 -29 -42 -21 -21 11
8 13 16 28 18 33 8 34 29 53 43 39z m2707 -4 c0 -5 -4 -10 -10 -10 -5 0 -10 5
-10 10 0 6 5 10 10 10 6 0 10 -4 10 -10z m-2646 -35 c-6 -14 -45 -28 -53 -19
-3 3 1 9 8 13 7 5 11 13 8 18 -4 6 4 8 18 6 14 -3 22 -10 19 -18z m266 -25 c0
-16 -12 -40 -20 -40 -4 0 -10 13 -12 29 -3 23 -1 27 14 23 10 -2 18 -8 18 -12z
m-250 -9 c0 -12 -28 -22 -34 -12 -3 5 -3 11 1 15 9 9 33 7 33 -3z m204 -19
c-11 -59 -16 -72 -23 -68 -10 6 -22 76 -16 87 9 14 43 -2 39 -19z m-274 -41
c0 -11 -7 -21 -15 -25 -17 -6 -21 -61 -5 -71 6 -3 10 -11 10 -17 0 -6 -9 -3
-20 7 -11 10 -20 29 -20 42 0 24 0 24 -25 -5 -16 -20 -23 -36 -18 -48 4 -11 3
-15 -4 -11 -6 4 -10 32 -10 62 1 49 4 55 28 66 15 6 30 17 33 25 8 21 46 0 46
-25z m31 -14 c-8 -8 -11 -5 -11 9 0 27 14 41 18 19 2 -9 -1 -22 -7 -28z m171
11 c-7 -7 -12 -8 -12 -2 0 14 12 26 19 19 2 -3 -1 -11 -7 -17z m-112 -33 c-7
-9 -15 -13 -17 -11 -7 7 7 26 19 26 6 0 6 -6 -2 -15z m144 -1 c9 -22 8 -26 -6
-22 -13 5 -20 38 -8 38 4 0 11 -7 14 -16z m-204 -24 c5 0 11 6 13 13 3 6 6 0
6 -15 1 -16 -3 -28 -8 -28 -13 0 -41 47 -33 55 4 4 8 0 10 -9 2 -9 7 -16 12
-16z m224 -77 c23 9 39 -18 27 -42 -6 -11 -11 -30 -11 -43 -1 -17 -6 -10 -22
25 -11 26 -26 47 -33 47 -7 0 -12 17 -12 45 l0 45 19 -41 c12 -28 23 -39 32
-36z m26 46 c0 -22 -13 -25 -29 -6 -8 10 -7 17 1 25 15 15 28 6 28 -19z m-100
-29 c0 -14 -5 -18 -16 -13 -11 4 -12 8 -4 13 7 5 9 13 5 20 -5 9 -4 11 3 6 7
-4 12 -16 12 -26z m-146 5 c3 -8 1 -15 -4 -15 -6 0 -10 7 -10 15 0 8 2 15 4
15 2 0 6 -7 10 -15z m120 -62 c10 -26 29 -74 43 -105 25 -54 25 -57 8 -74 -17
-17 -17 -17 -11 3 5 15 -3 29 -33 56 -22 19 -49 40 -60 47 -17 8 -19 15 -12
29 6 10 7 28 4 40 -6 22 22 65 37 56 4 -2 15 -26 24 -52z m281 -13 c3 -5 1
-10 -4 -10 -6 0 -11 5 -11 10 0 6 2 10 4 10 3 0 8 -4 11 -10z m-118 -32 c-3
-8 -6 -5 -6 6 -1 11 2 17 5 13 3 -3 4 -12 1 -19z m240 -14 c-3 -3 -12 -4 -19
-1 -8 3 -5 6 6 6 11 1 17 -2 13 -5z m-253 -21 c6 -15 8 -15 16 -3 6 9 10 10
10 3 0 -20 -18 -24 -34 -7 -18 18 -20 24 -7 24 5 0 12 -8 15 -17z m99 -16 c3
-8 1 -20 -4 -28 -6 -10 -9 -7 -9 14 0 29 5 35 13 14z m-39 -103 c3 -8 2 -12
-4 -9 -6 3 -10 10 -10 16 0 14 7 11 14 -7z m-324 -45 c0 -5 -5 -9 -10 -9 -6 0
-6 -7 2 -19 9 -15 8 -22 -9 -40 -15 -17 -27 -20 -52 -15 -45 9 -56 35 -33 76
13 22 26 33 41 32 13 0 21 6 21 15 1 12 6 10 20 -8 11 -13 20 -27 20 -32z
m469 -60 c-16 -10 -23 -4 -14 10 3 6 11 8 17 5 6 -4 5 -9 -3 -15z m-602 -31
c-3 -8 -6 -5 -6 6 -1 11 2 17 5 13 3 -3 4 -12 1 -19z m243 -79 c0 -6 -4 -7
-10 -4 -5 3 -10 11 -10 16 0 6 5 7 10 4 6 -3 10 -11 10 -16z m118 -11 c21 -21
13 -38 -18 -38 -18 0 -30 5 -30 13 0 13 19 37 30 37 3 0 11 -5 18 -12z m452
-68 c0 -5 -4 -10 -10 -10 -5 0 -10 5 -10 10 0 6 5 10 10 10 6 0 10 -4 10 -10z
m-227 -61 c-2 -5 2 -20 7 -34 7 -18 6 -25 -2 -25 -9 0 -9 -3 0 -12 18 -18 15
-27 -8 -21 -20 5 -29 -12 -9 -19 7 -2 7 -12 0 -31 -9 -24 -14 -26 -43 -20 -18
3 -34 10 -36 15 -5 11 -14 10 -36 -7 -19 -14 -19 -15 0 -36 15 -16 15 -21 4
-19 -8 1 -22 2 -30 1 -12 -1 -13 -3 -1 -10 7 -5 12 -14 9 -21 -3 -9 -8 -8 -20
4 -9 9 -21 16 -27 16 -5 0 -11 10 -13 23 -3 22 -20 28 -75 27 -13 0 -23 5 -23
10 0 20 -19 9 -22 -12 -2 -13 -5 4 -5 37 -1 33 -4 71 -7 85 -4 14 -2 31 3 39
12 19 41 6 41 -19 0 -12 7 -20 18 -20 9 0 28 -9 42 -20 14 -11 33 -20 42 -20
9 0 21 -8 27 -17 9 -17 11 -17 25 2 8 11 16 16 16 11 0 -5 -7 -17 -16 -27 -10
-11 -12 -19 -5 -24 6 -3 14 1 17 9 3 9 12 16 19 16 22 0 27 18 15 55 -9 28 -8
40 4 62 9 15 18 36 22 45 6 16 10 15 38 -9 17 -14 30 -30 29 -34z m243 24
c-10 -10 -19 5 -10 18 6 11 8 11 12 0 2 -7 1 -15 -2 -18z m-27 -72 c7 -5 10
-14 7 -20 -11 -17 -23 -13 -29 9 -6 22 0 25 22 11z m-582 -43 c-3 -7 -5 -2 -5
12 0 14 2 19 5 13 2 -7 2 -19 0 -25z m571 -93 c-8 -8 -47 8 -52 21 -4 12 0 11
25 -2 17 -8 29 -17 27 -19z m-270 3 c-3 -7 -11 -13 -18 -13 -7 0 -15 6 -17 13
-3 7 4 12 17 12 13 0 20 -5 18 -12z m192 -18 c0 -5 -5 -10 -11 -10 -5 0 -7 5
-4 10 3 6 8 10 11 10 2 0 4 -4 4 -10z m-450 -4 c0 -3 -4 -8 -10 -11 -5 -3 -10
-1 -10 4 0 6 5 11 10 11 6 0 10 -2 10 -4z m-27 -54 c-5 -22 -23 -31 -23 -12 0
10 23 40 27 36 1 -1 0 -12 -4 -24z m27 -26 c0 -3 -4 -8 -10 -11 -5 -3 -10 -1
-10 4 0 6 5 11 10 11 6 0 10 -2 10 -4z m84 -37 c-10 -16 -24 -9 -24 12 0 18 2
19 15 9 8 -7 12 -16 9 -21z m86 -139 c0 -5 -4 -10 -10 -10 -5 0 -10 5 -10 10
0 6 5 10 10 10 6 0 10 -4 10 -10z m30 -20 c0 -5 -4 -10 -10 -10 -5 0 -10 5
-10 10 0 6 5 10 10 10 6 0 10 -4 10 -10z m-140 -44 c0 -3 -4 -8 -10 -11 -5 -3
-10 -1 -10 4 0 6 5 11 10 11 6 0 10 -2 10 -4z m10 -151 c0 -8 -7 -15 -15 -15
-8 0 -15 7 -15 15 0 8 7 15 15 15 8 0 15 -7 15 -15z m970 -118 c0 -2 -10 -12
-21 -23 -22 -19 -22 -19 -8 4 12 19 29 30 29 19z m-680 -71 c0 -3 -4 -8 -10
-11 -5 -3 -10 -1 -10 4 0 6 5 11 10 11 6 0 10 -2 10 -4z m337 -18 c-3 -8 -6
-5 -6 6 -1 11 2 17 5 13 3 -3 4 -12 1 -19z m-13 -39 c-8 -14 -34 -11 -34 4 0
8 3 17 7 20 9 9 34 -13 27 -24z m-40 -43 c11 4 16 1 16 -11 0 -12 -5 -15 -17
-11 -9 4 -19 2 -23 -4 -5 -8 -13 -6 -24 6 -14 13 -15 19 -5 25 8 4 19 4 25 -2
6 -5 19 -7 28 -3z m46 -40 c0 -3 -4 -8 -10 -11 -5 -3 -10 -1 -10 4 0 6 5 11
10 11 6 0 10 -2 10 -4z m-40 -10 c0 -3 -4 -8 -10 -11 -5 -3 -10 -1 -10 4 0 6
5 11 10 11 6 0 10 -2 10 -4z m-70 -16 c0 -5 -2 -10 -4 -10 -3 0 -8 5 -11 10
-3 6 -1 10 4 10 6 0 11 -4 11 -10z m-190 -16 c0 -8 -5 -12 -10 -9 -6 4 -8 11
-5 16 9 14 15 11 15 -7z m350 -4 c0 -5 -4 -10 -10 -10 -5 0 -10 5 -10 10 0 6
5 10 10 10 6 0 10 -4 10 -10z m-393 -25 c7 -20 -2 -29 -21 -22 -9 4 -13 13
-10 22 8 19 23 19 31 0z m273 -65 c0 -5 -2 -10 -4 -10 -3 0 -8 5 -11 10 -3 6
-1 10 4 10 6 0 11 -4 11 -10z m-140 -20 c0 -5 -4 -10 -10 -10 -5 0 -10 5 -10
10 0 6 5 10 10 10 6 0 10 -4 10 -10z m-115 -10 c3 -5 -1 -10 -9 -10 -9 0 -16
5 -16 10 0 6 4 10 9 10 6 0 13 -4 16 -10z m145 -11 c0 -5 -4 -9 -10 -9 -5 0
-10 7 -10 16 0 8 5 12 10 9 6 -3 10 -10 10 -16z m-61 -18 c-15 -5 -22 6 -14
19 6 9 10 9 16 -1 5 -8 4 -15 -2 -18z m-119 3 c0 -8 -4 -12 -10 -9 -5 3 -10
10 -10 16 0 5 5 9 10 9 6 0 10 -7 10 -16z m-396 -167 c42 -65 76 -122 76 -127
0 -5 10 -26 22 -47 15 -26 17 -34 6 -25 -9 7 -25 34 -36 60 -21 48 -43 74 -74
85 -13 5 -15 2 -11 -11 6 -15 5 -15 -10 -3 -9 7 -17 23 -17 35 0 11 -9 32 -20
46 -38 48 -20 42 22 -8 24 -28 45 -49 47 -47 2 3 -19 40 -48 83 -28 43 -51 82
-51 87 0 14 13 -3 94 -128z m591 53 c3 -5 1 -10 -4 -10 -6 0 -11 5 -11 10 0 6
2 10 4 10 3 0 8 -4 11 -10z m45 -42 c0 -18 -2 -20 -9 -8 -6 8 -7 18 -5 22 9
14 14 9 14 -14z m-40 -12 c0 -14 -5 -28 -11 -32 -17 -10 -32 12 -24 35 9 29
35 27 35 -3z m120 -39 c0 -2 -9 -12 -20 -22 -19 -17 -20 -17 -20 -1 0 9 5 14
10 11 6 -3 10 -1 10 4 0 6 5 11 10 11 6 0 10 -2 10 -3z m-475 -320 c15 -14
-37 3 -55 19 -8 7 -24 28 -34 46 -19 33 -19 32 30 -11 27 -24 54 -48 59 -54z
m127 -62 c3 3 11 -2 19 -12 12 -14 12 -16 -1 -8 -20 12 -60 15 -60 4 0 -14
-23 -11 -49 7 l-23 16 24 13 c19 10 28 9 54 -6 17 -10 33 -16 36 -14z"/>
<path d="M4470 4380 c0 -5 5 -10 11 -10 5 0 7 5 4 10 -3 6 -8 10 -11 10 -2 0
-4 -4 -4 -10z"/>
<path d="M1310 3530 c0 -5 5 -10 10 -10 6 0 10 5 10 10 0 6 -4 10 -10 10 -5 0
-10 -4 -10 -10z"/>
<path d="M1745 3320 c3 -5 8 -10 11 -10 2 0 4 5 4 10 0 6 -5 10 -11 10 -5 0
-7 -4 -4 -10z"/>
<path d="M1195 3230 c3 -5 8 -10 11 -10 2 0 4 5 4 10 0 6 -5 10 -11 10 -5 0
-7 -4 -4 -10z"/>
<path d="M1220 3219 c0 -5 5 -7 10 -4 6 3 10 8 10 11 0 2 -4 4 -10 4 -5 0 -10
-5 -10 -11z"/>
<path d="M2010 3769 c7 -11 14 -19 16 -16 7 7 -7 37 -17 37 -6 0 -5 -9 1 -21z"/>
<path d="M330 1763 c0 -4 5 -15 10 -23 8 -13 10 -13 10 2 0 9 -4 20 -10 23 -5
3 -10 3 -10 -2z"/>
<path d="M4600 4566 c0 -29 39 -82 40 -53 0 18 -27 77 -35 77 -3 0 -5 -11 -5
-24z"/>
<path d="M4629 4463 c-10 -26 -4 -62 8 -50 6 7 12 77 6 77 -2 0 -8 -12 -14
-27z"/>
<path d="M626 3934 c-9 -24 -7 -36 6 -32 12 4 19 48 7 48 -4 0 -10 -7 -13 -16z"/>
<path d="M617 3873 c4 -11 2 -14 -5 -9 -12 7 -42 -42 -42 -69 0 -12 6 -15 22
-9 22 6 22 6 5 -19 -20 -31 -23 -71 -4 -65 34 12 63 170 33 181 -11 4 -13 1
-9 -10z"/>
<path d="M4788 3831 c-26 -37 -37 -81 -20 -81 4 0 14 15 23 33 9 17 22 31 28
30 6 -2 11 10 11 27 0 40 -9 38 -42 -9z"/>
<path d="M4713 3735 c-18 -20 -17 -22 17 -27 33 -5 36 -1 16 25 -16 20 -17 20
-33 2z"/>
<path d="M2440 3678 c0 -2 4 -18 9 -35 6 -19 6 -35 1 -38 -5 -3 -5 -17 1 -32
6 -18 6 -30 -2 -40 -9 -10 -9 -23 -1 -51 6 -21 9 -55 5 -75 -3 -23 -1 -47 7
-62 7 -13 10 -37 8 -54 -3 -19 0 -32 8 -35 17 -6 24 5 24 35 0 13 0 65 0 114
0 124 -24 265 -48 273 -6 2 -12 2 -12 0z"/>
<path d="M4613 3648 c21 -7 32 -7 40 1 8 8 0 11 -28 10 -40 -1 -40 -1 -12 -11z"/>
<path d="M4685 3560 c-3 -5 -1 -10 4 -10 6 0 11 5 11 10 0 6 -2 10 -4 10 -3 0
-8 -4 -11 -10z"/>
<path d="M4030 3395 l25 -15 -29 6 c-21 5 -27 4 -22 -5 5 -7 -3 -11 -25 -11
-25 0 -30 -3 -21 -12 9 -9 18 -9 37 0 14 7 41 12 60 12 19 0 35 4 35 9 0 13
-9 17 -50 25 -35 7 -35 7 -10 -9z"/>
<path d="M3903 3346 c4 -14 57 -21 57 -8 0 5 -14 12 -30 14 -19 3 -29 1 -27
-6z"/>
<path d="M4055 3351 c-3 -5 -20 -13 -38 -17 -25 -5 -28 -8 -14 -13 26 -10 93
-1 76 10 -14 8 -8 13 36 22 11 3 3 5 -17 6 -20 0 -39 -3 -43 -8z"/>
<path d="M3728 3343 c7 -3 16 -2 19 1 4 3 -2 6 -13 5 -11 0 -14 -3 -6 -6z"/>
<path d="M3635 3330 c-3 -5 -2 -10 4 -10 5 0 13 5 16 10 3 6 2 10 -4 10 -5 0
-13 -4 -16 -10z"/>
<path d="M4228 3323 c6 -2 18 -2 25 0 6 3 1 5 -13 5 -14 0 -19 -2 -12 -5z"/>
<path d="M3710 3305 c0 -8 5 -15 10 -15 6 0 10 7 10 15 0 8 -4 15 -10 15 -5 0
-10 -7 -10 -15z"/>
<path d="M3810 3300 c0 -5 4 -10 9 -10 6 0 13 5 16 10 3 6 -1 10 -9 10 -9 0
-16 -4 -16 -10z"/>
<path d="M4069 3065 c19 -8 36 -13 39 -10 8 8 0 12 -38 19 l-35 7 34 -16z"/>
<path d="M4040 3022 c0 -12 19 -26 26 -19 2 2 -2 10 -11 17 -9 8 -15 8 -15 2z"/>
<path d="M4080 2961 c0 -12 5 -21 10 -21 6 0 10 6 10 14 0 8 -4 18 -10 21 -5
3 -10 -3 -10 -14z"/>
<path d="M3995 2933 c4 -10 9 -33 12 -51 5 -31 23 -56 23 -32 0 28 -23 100
-32 100 -6 0 -7 -8 -3 -17z"/>
<path d="M4517 2925 c10 -13 27 -24 38 -24 17 0 16 3 -10 24 -38 32 -51 32
-28 0z"/>
<path d="M4060 2925 c0 -8 4 -15 10 -15 5 0 7 7 4 15 -4 8 -8 15 -10 15 -2 0
-4 -7 -4 -15z"/>
<path d="M4692 2734 c17 -19 17 -20 -10 -20 -16 1 -26 -4 -24 -11 1 -7 -2 -13
-8 -13 -23 0 -7 -29 32 -61 28 -22 55 -34 78 -36 20 -1 42 -3 50 -5 9 -2 16 6
18 20 2 12 -2 22 -8 22 -6 0 -8 -6 -4 -12 4 -7 -2 -5 -13 5 -21 18 -48 24 -38
7 10 -17 -1 -11 -31 16 -16 15 -24 24 -19 21 6 -2 35 -7 65 -10 l55 -6 -60 28
c-33 15 -58 31 -55 36 3 4 -6 15 -20 23 -25 16 -25 16 -8 -4z"/>
<path d="M4137 2659 c7 -7 15 -10 18 -7 3 3 -2 9 -12 12 -14 6 -15 5 -6 -5z"/>
<path d="M4022 2615 c-7 -15 -7 -26 0 -33 12 -12 -18 -76 -32 -67 -5 3 -20 -3
-32 -14 -12 -12 -25 -21 -30 -21 -4 0 -8 -5 -8 -11 0 -7 -8 -18 -17 -25 -10
-7 -13 -14 -6 -14 13 0 135 80 171 113 12 11 22 31 22 44 0 48 -50 68 -68 28z"/>
<path d="M4425 2590 c3 -5 11 -10 16 -10 6 0 7 5 4 10 -3 6 -11 10 -16 10 -6
0 -7 -4 -4 -10z"/>
<path d="M4540 2576 c0 -2 7 -9 15 -16 13 -11 14 -10 9 4 -5 14 -24 23 -24 12z"/>
<path d="M4610 2561 c0 -4 19 -27 42 -49 42 -42 71 -49 103 -22 7 6 17 10 21
9 35 -6 54 3 54 25 0 18 -7 25 -27 29 -16 3 -36 9 -46 13 -10 3 -17 3 -16 -2
9 -40 -46 -58 -78 -26 -20 21 -53 35 -53 23z"/>
<path d="M1225 2539 c-38 -22 -84 -86 -97 -135 -6 -27 -17 -56 -23 -64 -8 -10
-11 -59 -9 -145 2 -146 9 -182 35 -208 25 -23 24 -30 -1 -17 -20 11 -27 2 -12
-16 5 -5 14 -29 21 -54 7 -25 17 -55 22 -68 5 -13 9 -34 9 -47 0 -15 10 -31
25 -41 16 -10 25 -26 25 -42 0 -13 10 -35 23 -48 47 -49 57 -61 57 -72 0 -7 4
-12 8 -12 10 0 52 43 52 52 0 4 23 29 51 57 28 28 63 74 78 104 15 29 35 64
44 77 9 14 17 37 17 52 0 15 7 46 16 68 10 25 14 52 10 74 -4 18 -2 46 4 61 6
14 7 32 3 38 -4 7 -9 21 -9 32 -4 57 -36 138 -66 168 -18 18 -40 46 -48 62 -8
17 -36 51 -62 78 -43 44 -53 49 -100 53 -29 2 -62 -1 -73 -7z"/>
<path d="M4580 2517 c0 -15 43 -93 86 -153 31 -45 40 -64 32 -72 -8 -8 -6 -13
8 -17 34 -11 69 -33 79 -51 6 -9 18 -26 28 -36 16 -17 17 -17 17 3 0 12 -12
33 -26 46 -21 19 -23 27 -14 38 7 8 9 24 5 36 -6 17 -4 21 8 16 12 -4 13 0 8
21 -4 14 -13 28 -19 30 -9 3 -11 -4 -7 -21 4 -15 2 -28 -5 -32 -16 -10 -31 15
-24 38 3 9 1 17 -5 17 -16 0 -18 -34 -3 -58 8 -12 12 -25 10 -28 -8 -7 -78 74
-78 91 0 8 -4 15 -10 15 -12 0 -48 71 -44 88 2 8 1 9 -3 1 -4 -8 -12 -3 -24
12 -10 13 -19 20 -19 16z m202 -229 c-7 -7 -12 -8 -12 -2 0 14 12 26 19 19 2
-3 -1 -11 -7 -17z"/>
<path d="M4741 2461 c-8 -5 -9 -11 -3 -15 5 -3 15 1 22 9 14 16 3 20 -19 6z"/>
<path d="M3511 2437 c-6 -6 -11 -16 -11 -21 0 -6 -6 -23 -13 -37 -8 -14 -14
-41 -15 -59 0 -19 -8 -40 -16 -46 -9 -6 -16 -21 -16 -33 0 -12 -7 -29 -15 -38
-9 -8 -13 -23 -10 -33 5 -16 -12 -31 -38 -34 -14 -2 -37 -38 -31 -48 12 -19
-61 -118 -85 -118 -4 0 -16 -15 -26 -34 -13 -25 -29 -37 -59 -46 -23 -7 -49
-19 -58 -27 -9 -8 -22 -12 -27 -8 -6 3 -11 3 -11 -2 0 -4 -14 -16 -30 -25 -17
-9 -30 -13 -30 -9 0 5 -11 8 -25 7 -14 0 -25 -4 -25 -8 0 -15 -41 -8 -47 7 -5
14 -8 14 -25 -2 -19 -17 -20 -17 -34 2 -10 14 -28 20 -62 21 -40 2 -49 6 -63
30 -32 58 -117 53 -106 -6 4 -19 0 -29 -15 -39 -14 -9 -18 -19 -14 -37 5 -17
1 -29 -14 -41 -11 -10 -20 -24 -20 -32 0 -8 -11 -33 -25 -56 -13 -23 -22 -45
-18 -48 3 -4 -10 -28 -31 -53 -20 -26 -36 -56 -36 -66 0 -11 -15 -32 -32 -49
-18 -16 -33 -33 -34 -37 -1 -18 -41 -73 -61 -83 -12 -7 -20 -15 -18 -20 3 -4
-8 -20 -25 -36 -16 -15 -30 -34 -30 -40 0 -7 -3 -13 -7 -13 -5 0 -23 -14 -42
-30 -18 -17 -39 -30 -46 -30 -7 0 -18 -7 -25 -15 -7 -8 -21 -15 -32 -15 -11 0
-32 -8 -46 -18 -48 -34 -234 -73 -276 -59 -23 8 -32 6 -48 -11 l-20 -20 21
-18 c12 -11 33 -29 46 -41 36 -32 61 -44 78 -37 9 3 16 -3 20 -15 7 -27 -4
-26 -56 1 -67 34 -72 36 -120 43 -38 6 -48 4 -53 -9 -7 -18 -88 -23 -99 -6 -3
6 -11 10 -17 10 -6 0 -3 -9 7 -20 12 -14 25 -17 46 -13 22 4 29 2 29 -10 0
-10 -6 -13 -19 -10 -10 3 -22 0 -25 -6 -4 -6 -14 -11 -22 -11 -8 0 -12 5 -9
10 3 6 -2 13 -12 17 -10 3 -25 12 -35 20 -11 10 -18 11 -23 4 -3 -6 -12 -11
-18 -11 -7 0 -4 5 6 11 9 5 17 14 17 19 0 16 -27 11 -34 -5 -3 -8 -12 -15 -21
-15 -8 0 -15 -4 -15 -9 0 -12 25 -21 57 -21 21 0 23 -3 14 -14 -16 -19 4 -32
24 -16 11 9 23 9 49 0 20 -6 41 -8 48 -4 7 4 25 7 40 6 19 -2 28 2 28 13 0 15
13 15 112 0 15 -2 49 -20 76 -40 27 -19 54 -35 59 -35 15 0 32 -22 26 -36 -3
-9 -11 -10 -30 -3 -13 5 -28 9 -33 9 -12 0 20 -61 35 -67 8 -2 11 -12 9 -21
-3 -9 1 -7 8 6 l14 22 22 -25 c12 -14 27 -25 33 -25 5 0 8 -4 5 -8 -3 -5 15
-25 39 -46 25 -20 45 -33 45 -29 0 4 -17 22 -37 40 -30 24 -34 31 -18 30 11
-1 19 3 17 11 -3 17 5 15 46 -10 20 -12 32 -16 28 -9 -6 10 -3 12 10 8 11 -3
37 -8 60 -12 25 -4 41 -12 41 -20 0 -11 -5 -11 -19 -4 -11 6 -24 8 -31 6 -7
-3 0 -10 15 -16 27 -10 62 -5 54 8 -2 3 9 5 25 5 47 -2 51 -3 44 -14 -8 -12
43 -33 66 -27 9 2 23 1 31 -4 10 -6 20 -4 28 6 7 8 22 15 34 15 20 1 20 2 -4
16 l-25 15 34 -5 c33 -6 111 9 111 20 0 4 -12 15 -26 26 l-25 20 21 15 c11 8
28 12 36 9 9 -3 12 -2 9 4 -4 6 9 17 27 24 18 8 32 18 30 23 -2 4 15 31 38 60
22 28 40 55 40 60 0 5 20 30 45 56 46 47 71 57 92 36 6 -6 17 -9 25 -6 8 3 5
8 -11 14 -17 7 -21 12 -12 18 8 4 19 1 28 -8 11 -10 23 -13 37 -8 13 5 43 2
75 -8 46 -14 69 -31 158 -118 56 -56 103 -105 103 -110 0 -10 11 -16 105 -61
115 -55 207 -92 240 -97 11 -1 39 -8 63 -14 38 -11 48 -10 89 11 25 12 48 28
50 35 3 7 9 10 14 7 5 -3 6 1 3 9 -3 8 -1 18 5 22 6 3 8 17 5 31 -5 19 -1 26
17 33 21 8 22 10 7 16 -20 8 -15 27 5 20 16 -7 51 80 41 103 -4 9 -6 21 -5 27
3 12 -20 86 -31 101 -5 6 -10 51 -13 100 -2 54 -15 126 -31 184 -15 52 -29
110 -32 128 -2 17 -8 32 -14 32 -5 0 -7 4 -4 8 7 12 -21 185 -37 224 -8 19
-28 50 -44 69 -53 60 -100 142 -123 215 l-23 71 27 69 c28 73 60 119 75 110 5
-3 15 2 22 12 13 15 12 16 -3 3 -23 -17 -22 -14 3 38 13 28 25 41 34 37 17 -6
30 10 15 19 -14 9 -58 -24 -86 -64 -13 -20 -24 -29 -24 -20 0 8 7 24 15 35 8
10 15 23 15 29 0 20 -24 -17 -65 -101 -36 -73 -44 -84 -44 -59 -1 53 63 163
99 169 32 5 66 19 93 38 37 27 28 34 -15 12 -27 -14 -31 -14 -20 -2 7 9 34 23
60 33 26 9 61 23 77 31 28 13 28 14 5 11 -14 -1 -31 -6 -38 -11 -7 -4 -25 -5
-39 -2 -13 4 -30 3 -36 -3 -17 -13 -76 -21 -83 -10 -3 5 -9 7 -14 4 -5 -3 -36
5 -69 19 -43 17 -62 21 -70 13z m75 -364 c-10 -26 -18 -8 -9 23 5 21 8 24 11
11 2 -10 1 -25 -2 -34z m-46 -93 c0 -5 -4 -10 -10 -10 -5 0 -10 5 -10 10 0 6
5 10 10 10 6 0 10 -4 10 -10z m14 -151 c-3 -5 -10 -7 -15 -3 -5 3 -7 10 -3 15
3 5 10 7 15 3 5 -3 7 -10 3 -15z m-164 -39 c0 -11 -6 -20 -14 -20 -18 0 -29
16 -21 30 11 18 35 11 35 -10z m71 -120 c21 0 23 -46 1 -55 -19 -7 -31 3 -15
13 7 5 9 13 4 21 -5 7 -13 11 -19 7 -13 -8 -25 10 -16 25 4 8 9 8 17 0 6 -6
19 -11 28 -11z m149 -60 c0 -5 -4 -10 -10 -10 -5 0 -10 5 -10 10 0 6 5 10 10
10 6 0 10 -4 10 -10z m-270 -40 c0 -19 -11 -26 -23 -14 -8 8 3 34 14 34 5 0 9
-9 9 -20z m170 6 c0 -3 -4 -8 -10 -11 -5 -3 -10 -1 -10 4 0 6 5 11 10 11 6 0
10 -2 10 -4z m160 -10 c0 -21 -21 -31 -30 -15 -5 7 -6 17 -4 21 9 14 34 9 34
-6z m114 -25 c10 -15 -19 -42 -37 -35 -17 6 -23 25 -10 37 9 10 41 9 47 -2z
m-254 -11 c0 -5 -4 -10 -10 -10 -5 0 -10 5 -10 10 0 6 5 10 10 10 6 0 10 -4
10 -10z m180 -5 c0 -8 -7 -15 -15 -15 -8 0 -15 7 -15 15 0 8 7 15 15 15 8 0
15 -7 15 -15z m25 -35 c3 -5 1 -10 -4 -10 -6 0 -11 5 -11 10 0 6 2 10 4 10 3
0 8 -4 11 -10z m45 -15 c0 -8 -4 -15 -10 -15 -5 0 -10 7 -10 15 0 8 5 15 10
15 6 0 10 -7 10 -15z m-260 -15 c0 -5 -2 -10 -4 -10 -3 0 -8 5 -11 10 -3 6 -1
10 4 10 6 0 11 -4 11 -10z m-130 -35 c0 -16 -6 -25 -15 -25 -21 0 -31 30 -14
41 23 14 29 11 29 -16z m10 -45 c0 -5 -4 -10 -10 -10 -5 0 -10 5 -10 10 0 6 5
10 10 10 6 0 10 -4 10 -10z m75 -30 c17 0 27 -42 12 -52 -7 -4 -16 -8 -22 -8
-5 0 -3 5 5 10 13 9 13 11 0 20 -8 5 -20 8 -27 5 -7 -2 -15 0 -18 5 -9 15 5
32 22 26 8 -3 20 -6 28 -6z m262 -47 c-4 -3 -2 -12 5 -20 17 -21 0 -28 -22 -8
-26 23 -25 35 2 35 12 0 18 -3 15 -7z m81 -18 c-3 -14 -1 -28 3 -31 5 -3 9
-10 9 -16 0 -6 -11 1 -25 16 -31 33 -32 56 -4 56 17 0 20 -5 17 -25z m-438
-64 c0 -6 -4 -13 -10 -16 -5 -3 -10 1 -10 9 0 9 5 16 10 16 6 0 10 -4 10 -9z
m-370 -136 c0 -8 -7 -15 -15 -15 -8 0 -15 7 -15 15 0 8 7 15 15 15 8 0 15 -7
15 -15z m458 -3 c2 -7 -3 -12 -12 -12 -9 0 -16 7 -16 16 0 17 22 14 28 -4z
m-678 -6 c0 -8 -4 -17 -8 -20 -13 -8 -35 11 -28 23 10 16 36 14 36 -3z m1040
-16 c0 -5 -5 -10 -11 -10 -5 0 -7 5 -4 10 3 6 8 10 11 10 2 0 4 -4 4 -10z
m-535 -10 c-3 -5 -10 -10 -16 -10 -5 0 -9 5 -9 10 0 6 7 10 16 10 8 0 12 -4 9
-10z m-501 -41 c-3 -5 -10 -7 -15 -3 -5 3 -7 10 -3 15 3 5 10 7 15 3 5 -3 7
-10 3 -15z m1061 -19 c0 -22 -29 -18 -33 3 -3 14 1 18 15 15 10 -2 18 -10 18
-18z m-45 -40 c0 -5 -4 -10 -10 -10 -5 0 -10 5 -10 10 0 6 5 10 10 10 6 0 10
-4 10 -10z m-40 -10 c0 -5 -4 -10 -9 -10 -6 0 -13 5 -16 10 -3 6 1 10 9 10 9
0 16 -4 16 -10z m-542 -12 c-7 -19 -38 -22 -38 -4 0 10 9 16 21 16 12 0 19 -5
17 -12z m632 2 c0 -5 -4 -10 -10 -10 -5 0 -10 5 -10 10 0 6 5 10 10 10 6 0 10
-4 10 -10z m-660 -40 c0 -5 -4 -10 -10 -10 -5 0 -10 5 -10 10 0 6 5 10 10 10
6 0 10 -4 10 -10z m130 -30 c0 -5 -4 -10 -9 -10 -6 0 -13 5 -16 10 -3 6 1 10
9 10 9 0 16 -4 16 -10z m-1330 -72 c0 -5 -6 -8 -12 -5 -7 2 -13 8 -13 13 0 5
-4 16 -9 24 -6 9 -1 7 12 -4 12 -11 22 -23 22 -28z m1755 12 c3 -5 1 -10 -4
-10 -6 0 -11 5 -11 10 0 6 2 10 4 10 3 0 8 -4 11 -10z m-270 -19 c3 -5 1 -12
-5 -16 -5 -3 -10 1 -10 9 0 18 6 21 15 7z m121 -12 c10 -17 -13 -36 -27 -22
-12 12 -4 33 11 33 5 0 12 -5 16 -11z m-76 -45 c0 -17 -22 -14 -28 4 -2 7 3
12 12 12 9 0 16 -7 16 -16z m130 6 c0 -5 -4 -10 -10 -10 -5 0 -10 5 -10 10 0
6 5 10 10 10 6 0 10 -4 10 -10z m112 -75 c-5 -27 -22 -45 -22 -23 0 25 12 58
20 53 4 -2 5 -16 2 -30z m-142 0 c0 -8 -7 -15 -15 -15 -16 0 -20 12 -8 23 11
12 23 8 23 -8z m76 -31 c-5 -13 -10 -14 -18 -6 -6 6 -8 18 -4 28 5 13 10 14
18 6 6 -6 8 -18 4 -28z m-1279 20 c-3 -3 -12 -4 -19 -1 -8 3 -5 6 6 6 11 1 17
-2 13 -5z m-4 -31 c-7 -2 -19 -2 -25 0 -7 3 -2 5 12 5 14 0 19 -2 13 -5z"/>
<path d="M4512 2409 c-12 -19 -11 -19 8 -9 11 6 18 15 15 21 -8 12 -8 12 -23
-12z"/>
<path d="M4450 2410 c-8 -5 -10 -10 -5 -10 6 0 17 5 25 10 8 5 11 10 5 10 -5
0 -17 -5 -25 -10z"/>
<path d="M4590 2405 c-7 -8 -21 -15 -31 -15 -11 0 -29 -11 -41 -25 -12 -14
-28 -25 -35 -25 -7 0 -13 -6 -13 -13 0 -10 17 -5 58 15 64 32 99 62 84 72 -5
3 -15 -1 -22 -9z"/>
<path d="M4800 2399 c0 -5 5 -7 10 -4 6 3 10 8 10 11 0 2 -4 4 -10 4 -5 0 -10
-5 -10 -11z"/>
<path d="M4100 2360 c-12 -8 -9 -10 13 -10 16 0 26 4 22 10 -8 12 -16 12 -35
0z"/>
<path d="M4280 2360 c0 -5 5 -10 11 -10 5 0 7 5 4 10 -3 6 -8 10 -11 10 -2 0
-4 -4 -4 -10z"/>
<path d="M4145 2340 c-3 -5 -1 -10 4 -10 6 0 11 5 11 10 0 6 -2 10 -4 10 -3 0
-8 -4 -11 -10z"/>
<path d="M4584 2324 c3 -9 6 -18 6 -21 0 -2 7 2 15 11 20 20 19 26 -6 26 -15
0 -19 -4 -15 -16z"/>
<path d="M4420 2321 c0 -5 -11 -11 -25 -13 -13 -3 -22 -1 -19 3 3 5 -9 9 -25
9 -17 0 -31 -4 -31 -10 0 -5 9 -10 21 -10 11 0 18 -4 15 -9 -4 -5 10 -5 31 0
55 12 59 1 5 -13 -9 -2 -7 -10 8 -25 17 -19 18 -26 9 -47 -6 -13 -23 -28 -38
-31 -24 -7 -24 -8 -6 -15 19 -7 18 -9 -14 -39 -40 -37 -33 -40 16 -6 20 13 42
38 49 54 9 21 26 36 53 47 23 9 41 21 41 26 0 6 -7 7 -16 4 -9 -3 -27 -9 -40
-12 -19 -5 -23 -3 -18 10 3 8 21 18 40 22 44 8 44 24 -1 24 -28 0 -35 4 -35
20 0 11 -4 20 -10 20 -5 0 -10 -4 -10 -9z"/>
<path d="M4640 2301 c-8 -5 -31 -16 -50 -24 l-35 -16 40 -2 c22 -1 32 -3 23
-6 -10 -2 -18 -9 -18 -14 0 -5 -7 -9 -17 -9 -9 0 -14 -3 -11 -6 3 -3 30 3 59
13 40 13 48 19 32 21 -22 3 -33 22 -14 22 5 0 11 7 15 15 6 16 -1 18 -24 6z"/>
<path d="M4008 2273 c-23 -27 -30 -43 -19 -43 5 0 16 14 25 30 17 34 15 37 -6
13z"/>
<path d="M3915 2255 c-27 -21 -27 -23 -7 -18 12 3 27 14 33 24 13 24 10 24
-26 -6z"/>
<path d="M3719 2253 c-13 -16 -12 -17 4 -4 9 7 17 15 17 17 0 8 -8 3 -21 -13z"/>
<path d="M3820 2249 c-17 -13 -18 -17 -5 -10 33 17 51 31 40 31 -5 0 -21 -10
-35 -21z"/>
<path d="M3950 2225 c-11 -13 -10 -14 4 -9 9 3 16 10 16 15 0 13 -6 11 -20 -6z"/>
<path d="M4660 2230 c0 -13 20 -13 40 0 12 8 9 10 -12 10 -16 0 -28 -4 -28
-10z"/>
<path d="M4520 2209 c0 -5 5 -7 10 -4 6 3 10 8 10 11 0 2 -4 4 -10 4 -5 0 -10
-5 -10 -11z"/>
<path d="M4338 2203 c6 -2 18 -2 25 0 6 3 1 5 -13 5 -14 0 -19 -2 -12 -5z"/>
<path d="M4682 2198 c3 -7 18 -14 34 -16 28 -3 28 -3 9 12 -24 19 -48 21 -43
4z"/>
<path d="M4598 2192 c-17 -7 -17 -8 0 -18 13 -8 24 -6 47 8 l30 18 -30 -1
c-16 0 -38 -4 -47 -7z"/>
<path d="M4005 2159 c-18 -33 -15 -45 10 -36 9 4 15 19 15 37 0 38 -5 38 -25
-1z"/>
<path d="M3904 2148 c-17 -33 -17 -33 3 -15 11 9 22 14 26 11 3 -3 3 3 0 15
-7 28 -10 27 -29 -11z"/>
<path d="M3985 2171 c-3 -6 -10 -9 -15 -6 -5 3 -12 0 -16 -6 -4 -7 -3 -9 4 -5
6 3 12 -2 14 -11 3 -16 6 -15 17 5 12 23 9 44 -4 23z"/>
<path d="M4758 2173 c-10 -2 -18 -11 -18 -19 0 -19 7 -18 32 6 22 20 19 22
-14 13z"/>
<path d="M4458 2158 c-16 -5 -28 -14 -28 -19 0 -15 16 -10 41 11 27 22 26 23
-13 8z"/>
<path d="M4312 2151 c-23 -14 -44 -63 -31 -71 8 -6 8 -9 0 -14 -6 -4 -15 -5
-20 -2 -5 3 -14 0 -20 -8 -9 -11 -7 -15 11 -19 28 -8 40 3 44 39 1 16 11 34
20 41 12 9 13 13 5 13 -11 0 -11 3 -1 15 14 17 11 19 -8 6z"/>
<path d="M4496 2145 c-8 -9 -17 -15 -18 -14 -10 8 -68 -23 -68 -36 0 -12 4
-14 19 -5 29 15 39 12 17 -5 -11 -8 -28 -15 -37 -15 -15 0 -159 -150 -159
-165 0 -10 57 36 117 94 32 31 77 64 98 75 22 10 58 28 80 39 23 12 56 20 80
19 36 -1 38 0 15 9 -37 15 -107 5 -134 -20 -12 -11 -25 -21 -29 -21 -4 0 7 13
25 30 18 16 28 30 21 30 -6 0 -18 -7 -27 -15z"/>
<path d="M3681 2104 c0 -11 3 -14 6 -6 3 7 2 16 -1 19 -3 4 -6 -2 -5 -13z"/>
<path d="M4206 2105 c-11 -8 -17 -17 -14 -20 2 -3 13 4 23 15 21 23 18 25 -9
5z"/>
<path d="M3662 2080 c0 -14 2 -19 5 -12 2 6 2 18 0 25 -3 6 -5 1 -5 -13z"/>
<path d="M3946 2045 c-3 -8 -1 -15 4 -15 6 0 10 7 10 15 0 8 -2 15 -4 15 -2 0
-6 -7 -10 -15z"/>
<path d="M3737 2021 c-4 -18 -6 -50 -6 -70 1 -27 4 -21 10 24 10 66 6 100 -4
46z"/>
<path d="M4313 2019 c-12 -31 -12 -31 7 -14 11 10 20 24 20 32 0 24 -15 14
-27 -18z"/>
<path d="M4813 2039 c-7 -7 -13 -24 -13 -36 0 -13 -7 -37 -15 -53 -15 -29 -17
-29 -73 -24 -57 5 -57 5 -127 -48 -40 -30 -77 -68 -87 -88 -19 -39 -24 -140
-7 -140 13 0 39 -25 39 -38 0 -5 -7 -15 -15 -22 -8 -7 -15 -22 -15 -34 -1 -22
120 -266 132 -266 11 0 30 70 24 87 -4 9 -1 20 5 24 7 4 9 14 4 25 -7 17 -9
17 -12 3 -4 -15 -7 -15 -34 -2 -33 16 -36 29 -13 55 14 14 14 20 4 33 -7 8
-20 15 -28 15 -12 0 -13 3 -5 11 9 9 9 16 1 29 -9 14 -7 24 13 47 23 27 26 28
89 21 36 -4 71 -6 78 -3 8 3 20 -2 29 -10 8 -9 20 -14 27 -12 15 5 21 87 6 87
-7 0 -8 6 0 19 5 11 10 30 10 42 0 19 -2 20 -17 8 -14 -13 -14 -11 1 19 20 38
19 111 -1 127 -10 8 -10 16 3 40 18 36 16 103 -3 84z m-106 -245 c-3 -3 -12
-4 -19 -1 -8 3 -5 6 6 6 11 1 17 -2 13 -5z m-37 -23 c0 -13 -27 -21 -47 -14
-15 6 -15 7 3 14 27 11 44 11 44 0z m-173 -78 c-3 -10 -5 -4 -5 12 0 17 2 24
5 18 2 -7 2 -21 0 -30z m278 8 c3 -5 1 -12 -5 -16 -5 -3 -10 1 -10 9 0 18 6
21 15 7z"/>
<path d="M3986 2003 c-6 -14 -5 -15 5 -6 7 7 10 15 7 18 -3 3 -9 -2 -12 -12z"/>
<path d="M3958 1990 c-4 -14 -8 -38 -8 -55 1 -25 2 -27 11 -12 6 9 9 34 7 55
-3 33 -4 35 -10 12z"/>
<path d="M3923 1970 c-6 -19 -14 -44 -18 -55 -8 -19 -7 -19 14 1 17 16 22 30
19 55 l-4 34 -11 -35z"/>
<path d="M3995 1960 c-4 -12 -5 -24 -2 -27 3 -2 8 5 12 17 4 12 5 24 2 27 -3
2 -8 -5 -12 -17z"/>
<path d="M4125 1960 c-10 -11 -16 -22 -13 -25 3 -3 13 4 23 15 10 11 16 22 13
25 -3 3 -13 -4 -23 -15z"/>
<path d="M4321 1927 c-13 -21 -12 -21 5 -5 10 10 16 20 13 22 -3 3 -11 -5 -18
-17z"/>
<path d="M4160 1920 c-6 -11 -8 -20 -6 -20 3 0 10 9 16 20 6 11 8 20 6 20 -3
0 -10 -9 -16 -20z"/>
<path d="M4122 1880 c0 -19 2 -27 5 -17 2 9 2 25 0 35 -3 9 -5 1 -5 -18z"/>
<path d="M4196 1893 c-6 -14 -5 -15 5 -6 7 7 10 15 7 18 -3 3 -9 -2 -12 -12z"/>
<path d="M3867 1867 c-4 -10 -11 -15 -17 -12 -14 9 -13 3 8 -36 l17 -34 3 28
c2 15 2 37 0 50 -3 20 -4 20 -11 4z"/>
<path d="M4064 1830 c2 -19 11 -57 20 -85 l16 -50 -6 48 c-3 26 -12 65 -20 85
l-14 37 4 -35z"/>
<path d="M3805 1819 c-4 -6 -5 -12 -2 -15 2 -3 7 2 10 11 7 17 1 20 -8 4z"/>
<path d="M4161 1804 c0 -11 3 -14 6 -6 3 7 2 16 -1 19 -3 4 -6 -2 -5 -13z"/>
<path d="M3830 1791 c0 -6 4 -13 10 -16 6 -3 7 1 4 9 -7 18 -14 21 -14 7z"/>
<path d="M3930 1762 c0 -18 5 -32 10 -32 6 0 8 11 4 28 -10 39 -14 40 -14 4z"/>
<path d="M4177 1739 c-3 -12 -2 -31 3 -42 7 -18 9 -14 9 21 1 46 -4 54 -12 21z"/>
<path d="M3910 1719 c0 -16 4 -28 9 -25 8 5 3 56 -5 56 -2 0 -4 -14 -4 -31z"/>
<path d="M4631 1596 c-7 -8 -8 -17 -3 -20 6 -3 12 3 15 14 6 24 4 25 -12 6z"/>
<path d="M4034 1505 c1 -62 -4 -99 -12 -107 -7 -7 -12 -41 -12 -90 0 -45 -4
-78 -10 -78 -5 0 -10 12 -10 26 0 14 -4 23 -10 19 -9 -5 -16 46 -11 83 1 6 -3
12 -9 12 -6 0 -10 -28 -10 -69 0 -39 -4 -72 -9 -75 -15 -10 0 -190 17 -202 8
-6 12 -16 8 -22 -4 -6 0 -25 9 -41 8 -17 16 -52 16 -78 1 -42 2 -44 8 -18 7
28 8 27 15 -20 4 -27 9 -59 11 -69 2 -11 -1 -26 -7 -33 -6 -7 -7 -28 -4 -48 6
-29 11 -35 26 -30 24 8 36 -13 16 -28 -18 -14 -38 -65 -30 -78 8 -14 24 0 17
16 -7 19 2 19 32 -1 25 -16 34 -44 15 -44 -5 0 -10 8 -10 17 0 9 -3 14 -6 10
-10 -10 7 -67 21 -67 20 0 25 -25 10 -54 -13 -24 -12 -26 5 -26 12 0 20 -8 22
-22 3 -20 7 -17 36 24 30 44 43 86 22 73 -5 -3 -10 1 -10 9 0 9 5 16 11 16 11
0 5 45 -14 90 -5 14 -11 32 -13 41 -7 36 -42 100 -49 90 -3 -7 3 -28 14 -47
12 -19 21 -47 21 -62 l0 -27 -16 32 c-10 20 -24 33 -35 33 -20 0 -26 15 -10
24 5 4 12 0 15 -6 3 -7 3 3 0 22 -4 19 -11 40 -16 47 -5 7 -6 18 -2 24 5 9 2
10 -10 6 -11 -4 -19 -1 -22 11 -3 9 -10 25 -15 34 -12 23 -11 28 1 28 6 0 10
-7 10 -15 0 -8 9 -15 20 -15 26 0 27 37 1 115 -17 50 -19 83 -16 239 1 100 6
205 10 235 5 33 4 52 -2 48 -5 -3 -8 15 -7 44 2 27 -3 60 -10 73 -11 21 -12
12 -12 -69z m43 -789 c-3 -7 -15 -16 -26 -19 -30 -7 -28 31 2 42 23 9 33 0 24
-23z m67 -218 c-3 -5 -12 -2 -20 6 -20 21 -17 28 5 14 11 -7 17 -16 15 -20z
m15 -79 c-8 -16 -14 -18 -22 -10 -9 9 -8 14 3 21 24 16 31 11 19 -11z"/>
<path d="M4661 1584 c-7 -8 -11 -17 -10 -19 6 -5 66 -15 127 -21 47 -4 52 -3
52 14 0 34 -63 45 -85 15 -11 -15 -13 -15 -19 5 -9 26 -44 29 -65 6z"/>
<path d="M4233 1423 c-6 -26 -8 -56 -3 -67 5 -15 9 -4 15 42 9 76 2 89 -12 25z"/>
<path d="M4610 1460 c0 -5 4 -10 9 -10 6 0 13 5 16 10 3 6 -1 10 -9 10 -9 0
-16 -4 -16 -10z"/>
<path d="M4316 1420 c3 -19 10 -39 15 -44 13 -14 10 2 -7 44 l-14 35 6 -35z"/>
<path d="M4140 1399 c0 -11 5 -17 10 -14 6 3 10 13 10 21 0 8 -4 14 -10 14 -5
0 -10 -9 -10 -21z"/>
<path d="M4291 1314 c0 -11 3 -14 6 -6 3 7 2 16 -1 19 -3 4 -6 -2 -5 -13z"/>
<path d="M4212 1261 c-9 -15 -33 -41 -52 -56 -19 -16 -29 -22 -22 -15 14 16
16 30 4 30 -11 0 -34 -49 -27 -59 2 -5 -2 -17 -10 -27 -8 -10 -15 -22 -15 -26
0 -14 28 -8 34 7 3 8 10 15 16 15 6 0 3 -14 -6 -32 -10 -18 -19 -27 -21 -20
-6 15 -23 6 -23 -12 0 -7 10 -12 21 -11 14 1 29 16 44 43 12 23 28 48 34 56 8
10 9 16 1 21 -16 10 -12 24 14 50 24 23 44 65 32 65 -4 0 -14 -13 -24 -29z"/>
<path d="M4332 1260 c0 -14 2 -19 5 -12 2 6 2 18 0 25 -3 6 -5 1 -5 -13z"/>
<path d="M4156 1254 c-10 -25 1 -29 14 -5 6 12 7 21 1 21 -5 0 -12 -7 -15 -16z"/>
<path d="M4640 1263 c0 -5 4 -15 10 -23 11 -18 25 -7 17 15 -6 15 -27 21 -27
8z"/>
<path d="M4232 1230 c-8 -13 -8 -20 -2 -20 6 0 13 7 17 15 9 24 -1 27 -15 5z"/>
<path d="M4713 1225 c8 -18 -13 -32 -23 -15 -4 6 -18 10 -31 8 -21 -3 -24 -8
-24 -43 0 -45 -35 -165 -49 -165 -4 0 -6 6 -3 14 8 20 18 114 11 96 -4 -8 -13
-28 -21 -44 -8 -15 -10 -25 -4 -22 16 10 13 -10 -3 -23 -15 -13 -28 -51 -17
-51 4 0 12 5 18 11 7 7 9 3 6 -15 -4 -17 -11 -25 -22 -24 -13 2 -17 -7 -19
-47 -5 -76 6 -135 24 -128 7 3 14 0 14 -6 0 -6 -5 -11 -11 -11 -7 0 -10 -14
-7 -35 2 -19 1 -36 -3 -37 -4 -2 -10 -68 -14 -148 -3 -88 -2 -139 3 -130 5 8
12 42 15 74 3 32 10 63 15 68 14 14 27 -29 14 -45 -5 -7 -12 -57 -16 -112 -3
-55 -9 -110 -12 -122 -11 -40 -20 -25 -18 27 3 56 -11 75 -26 35 -5 -14 -15
-23 -20 -20 -6 4 -8 10 -6 14 3 4 -1 8 -9 8 -18 0 -19 -9 -3 -25 10 -10 8 -14
-10 -18 -12 -4 -22 -13 -22 -20 0 -8 -4 -14 -10 -14 -5 0 -10 9 -10 20 0 18
-1 18 -29 2 -33 -18 -66 -76 -62 -109 1 -11 -3 -24 -9 -28 -9 -5 -10 -1 -6 13
4 11 2 23 -4 27 -11 7 -20 -13 -41 -85 -7 -25 -18 -48 -24 -52 -5 -4 4 -8 20
-8 45 1 151 40 230 87 69 41 195 159 195 184 0 10 -3 10 -12 1 -19 -19 -38
-14 -38 12 0 19 4 22 25 18 14 -2 26 0 26 4 6 36 3 171 -3 161 -5 -8 -8 -4 -8
11 0 25 12 29 29 8 9 -10 9 -20 0 -39 -12 -27 -7 -57 11 -57 16 0 12 96 -5
114 -9 9 -15 32 -14 58 1 36 2 39 9 18 8 -24 8 -24 9 -2 1 12 -6 25 -14 28
-17 7 -21 44 -5 44 6 0 10 8 9 18 0 10 -3 12 -6 4 -2 -6 -9 -9 -15 -6 -7 4 -9
-14 -8 -52 2 -33 2 -67 2 -77 -2 -17 -3 -17 -18 -2 -12 12 -15 26 -10 53 4 20
9 79 13 130 5 87 4 92 -13 85 -15 -5 -17 -4 -8 8 6 8 21 42 34 77 12 34 28 66
34 70 20 13 43 56 50 97 5 22 7 40 5 40 -1 0 3 10 9 22 14 25 5 56 -13 50 -6
-3 -17 4 -23 14 -14 22 -37 26 -29 4z m-93 -625 c0 -5 -4 -10 -9 -10 -6 0 -13
5 -16 10 -3 6 1 10 9 10 9 0 16 -4 16 -10z m19 -77 c-15 -18 -34 -1 -25 22 5
14 9 15 21 5 12 -10 13 -16 4 -27z m-149 -296 c0 -5 -4 -5 -10 -2 -5 3 -10 14
-10 23 0 15 2 15 10 2 5 -8 10 -19 10 -23z m-44 -12 c-7 -6 -17 -25 -20 -43
-4 -17 -11 -32 -16 -32 -4 0 -1 17 7 38 7 20 16 45 20 55 4 15 8 16 14 5 5 -8
3 -17 -5 -23z m1 -97 c-3 -8 -6 -5 -6 6 -1 11 2 17 5 13 3 -3 4 -12 1 -19z
m-37 -8 c0 -13 -29 -32 -40 -25 -14 9 -13 32 3 38 15 5 37 -2 37 -13z m-119
-37 c-12 -20 -14 -14 -5 12 4 9 9 14 11 11 3 -2 0 -13 -6 -23z"/>
<path d="M4356 1215 c4 -8 10 -15 15 -15 5 0 9 7 9 15 0 8 -7 15 -15 15 -9 0
-12 -6 -9 -15z"/>
<path d="M4793 1223 c9 -2 23 -2 30 0 6 3 -1 5 -18 5 -16 0 -22 -2 -12 -5z"/>
<path d="M4060 1211 c0 -5 5 -13 10 -16 6 -3 10 -2 10 4 0 5 -4 13 -10 16 -5
3 -10 2 -10 -4z"/>
<path d="M4331 1189 c-1 -9 -10 -19 -21 -22 -13 -3 -18 -11 -14 -20 3 -8 -2
-17 -10 -20 -20 -8 -21 -27 -1 -27 8 0 22 14 31 31 12 25 18 29 25 18 7 -12 9
-12 8 1 0 8 -4 24 -9 35 -7 15 -9 16 -9 4z"/>
<path d="M4085 1177 c-4 -10 -5 -21 -1 -24 10 -10 18 4 13 24 -4 17 -4 17 -12
0z"/>
<path d="M4562 1160 c0 -14 2 -19 5 -12 2 6 2 18 0 25 -3 6 -5 1 -5 -13z"/>
<path d="M4245 1130 c-3 -5 -2 -10 4 -10 5 0 13 5 16 10 3 6 2 10 -4 10 -5 0
-13 -4 -16 -10z"/>
<path d="M4225 1089 c-12 -19 5 -23 22 -6 16 16 16 17 1 17 -9 0 -20 -5 -23
-11z"/>
<path d="M1584 1038 c-3 -10 -12 -18 -20 -18 -8 0 -14 -4 -14 -9 0 -15 21 -25
29 -13 3 5 14 11 25 13 10 2 25 14 34 27 14 22 14 22 -17 20 -20 -1 -33 -9
-37 -20z"/>
<path d="M4156 1038 c-19 -27 -21 -45 -3 -26 28 30 39 48 29 48 -6 0 -18 -10
-26 -22z"/>
<path d="M1471 1026 c-10 -19 -17 -23 -22 -14 -6 10 -12 8 -22 -6 -8 -11 -19
-16 -24 -13 -6 4 -18 -4 -27 -18 -17 -26 -7 -35 13 -11 6 7 34 16 62 20 50 7
89 24 89 39 0 4 -11 5 -24 1 -18 -4 -25 -1 -28 12 -2 14 -6 12 -17 -10z"/>
<path d="M4280 1040 c-11 -7 -11 -11 -1 -24 18 -22 31 -20 31 3 0 24 -12 32
-30 21z"/>
<path d="M1673 1025 c0 -8 7 -15 15 -15 12 0 12 3 2 15 -7 8 -13 15 -15 15 -1
0 -2 -7 -2 -15z"/>
<path d="M4407 1023 c-4 -3 -7 -11 -7 -17 0 -6 5 -5 12 2 6 6 9 14 7 17 -3 3
-9 2 -12 -2z"/>
<path d="M4433 994 c-7 -12 -8 -26 -3 -34 7 -12 10 -12 15 2 4 9 5 25 3 35 -4
17 -5 16 -15 -3z"/>
<path d="M1630 989 c0 -6 -9 -8 -20 -4 -11 4 -20 2 -20 -4 0 -6 -7 -11 -15
-11 -8 0 -15 -3 -15 -7 0 -13 74 -9 88 4 17 16 15 33 -3 33 -8 0 -15 -5 -15
-11z"/>
<path d="M4093 985 c-8 -23 4 -99 17 -103 7 -3 8 -8 1 -16 -5 -6 -8 -21 -6
-31 2 -11 4 -33 4 -48 1 -16 5 -26 11 -22 6 3 7 17 4 31 -4 16 -1 26 9 30 27
10 30 58 8 105 -12 24 -21 49 -21 56 0 18 -19 16 -27 -2z"/>
<path d="M4770 945 c-30 -30 -50 -55 -44 -55 6 0 16 -10 23 -22 l11 -23 -6 22
c-7 29 5 50 18 32 6 -10 7 -7 3 10 -5 14 -3 21 3 17 5 -3 14 0 20 7 11 12 34
67 29 67 -2 0 -27 -25 -57 -55z"/>
<path d="M4177 975 c-12 -11 -13 -23 -6 -52 5 -21 9 -42 9 -47 0 -5 11 12 25
39 18 36 21 52 13 62 -14 17 -23 16 -41 -2z"/>
<path d="M1325 969 c-4 -6 -5 -13 -2 -16 7 -7 27 6 27 18 0 12 -17 12 -25 -2z"/>
<path d="M1498 963 c7 -3 16 -2 19 1 4 3 -2 6 -13 5 -11 0 -14 -3 -6 -6z"/>
<path d="M4367 933 c-4 -3 -7 -11 -7 -17 0 -6 5 -5 12 2 6 6 9 14 7 17 -3 3
-9 2 -12 -2z"/>
<path d="M1323 915 c0 -17 32 -21 42 -5 3 6 2 10 -4 10 -5 0 -16 2 -24 5 -8 4
-14 0 -14 -10z"/>
<path d="M4231 911 c-6 -10 -7 -21 -4 -25 13 -12 21 -5 21 19 0 30 -4 31 -17
6z"/>
<path d="M4262 911 c4 -13 18 -16 19 -4 0 4 -5 9 -11 12 -7 2 -11 -2 -8 -8z"/>
<path d="M1216 883 c-6 -14 -5 -15 5 -6 7 7 10 15 7 18 -3 3 -9 -2 -12 -12z"/>
<path d="M1356 888 c-22 -12 -20 -28 4 -28 12 0 20 -7 20 -17 0 -16 1 -16 16
-1 15 15 15 17 -4 36 -14 14 -24 17 -36 10z"/>
<path d="M1260 879 c0 -5 5 -7 10 -4 6 3 10 8 10 11 0 2 -4 4 -10 4 -5 0 -10
-5 -10 -11z"/>
<path d="M1300 869 c0 -5 5 -7 10 -4 6 3 10 8 10 11 0 2 -4 4 -10 4 -5 0 -10
-5 -10 -11z"/>
<path d="M2965 870 c-3 -5 1 -10 10 -10 9 0 13 5 10 10 -3 6 -8 10 -10 10 -2
0 -7 -4 -10 -10z"/>
<path d="M4265 849 c-12 -19 5 -23 22 -6 16 16 16 17 1 17 -9 0 -20 -5 -23
-11z"/>
<path d="M1265 840 c3 -5 8 -10 11 -10 2 0 4 5 4 10 0 6 -5 10 -11 10 -5 0 -7
-4 -4 -10z"/>
<path d="M1600 842 c0 -5 7 -13 16 -16 10 -4 14 -1 12 6 -5 15 -28 23 -28 10z"/>
<path d="M2930 840 c0 -5 7 -10 15 -10 8 0 15 5 15 10 0 6 -7 10 -15 10 -8 0
-15 -4 -15 -10z"/>
<path d="M1550 815 c-19 -12 -35 -26 -35 -31 -1 -5 -6 -19 -13 -31 -7 -13 -8
-24 -3 -28 5 -3 12 4 16 15 7 21 25 28 25 9 0 -15 42 -7 48 9 3 9 -3 11 -22 6
-34 -8 -34 9 0 43 33 33 27 36 -16 8z"/>
<path d="M4801 814 c-11 -15 -21 -32 -21 -38 0 -6 5 -3 11 7 6 9 14 15 19 12
9 -6 25 33 17 41 -3 3 -14 -7 -26 -22z"/>
<path d="M1679 817 c6 -8 8 -16 5 -19 -2 -3 2 -8 11 -11 18 -8 20 14 3 31 -16
16 -33 15 -19 -1z"/>
<path d="M4687 824 c-4 -4 -7 -14 -7 -23 0 -11 3 -12 11 -4 6 6 10 16 7 23 -2
6 -7 8 -11 4z"/>
<path d="M1595 801 c-7 -12 31 -25 45 -16 6 4 8 11 5 16 -8 12 -42 12 -50 0z"/>
<path d="M1730 795 c0 -7 9 -15 19 -17 17 -3 18 -5 6 -21 -11 -15 -27 -19 -82
-19 -40 0 -60 -3 -49 -7 16 -6 17 -9 6 -16 -10 -6 -8 -10 10 -17 16 -6 26 -5
31 3 4 8 36 12 88 11 86 0 85 -2 49 50 -21 31 -78 55 -78 33z"/>
<path d="M1821 801 c-7 -5 -10 -14 -7 -20 11 -18 25 -13 23 9 -1 11 -1 20 -2
20 0 0 -6 -4 -14 -9z"/>
<path d="M3047 803 c-4 -3 -7 -11 -7 -17 0 -6 5 -5 12 2 6 6 9 14 7 17 -3 3
-9 2 -12 -2z"/>
<path d="M1388 787 c-16 -6 -28 -14 -28 -18 0 -11 29 -19 47 -12 15 6 15 7 -3
14 -17 7 -17 8 -1 8 9 1 17 6 17 11 0 6 -1 10 -2 9 -2 -1 -15 -6 -30 -12z"/>
<path d="M1472 762 c-11 -11 -28 -23 -39 -26 -23 -8 -67 -96 -48 -96 8 0 17 5
21 11 3 6 23 18 43 26 20 9 30 18 24 20 -19 7 -16 24 9 50 27 28 17 42 -10 15z"/>
<path d="M4142 760 c0 -14 2 -19 5 -12 2 6 2 18 0 25 -3 6 -5 1 -5 -13z"/>
<path d="M1620 760 c0 -5 12 -10 28 -10 21 0 24 2 12 10 -20 13 -40 13 -40 0z"/>
<path d="M1110 720 c-13 -8 -12 -10 3 -10 9 0 17 5 17 10 0 12 -1 12 -20 0z"/>
<path d="M1516 700 c-21 -16 -43 -31 -50 -33 -6 -2 -8 -8 -4 -12 4 -4 19 2 34
14 15 11 32 21 39 21 7 0 23 9 36 20 23 18 23 19 4 19 -11 0 -37 -13 -59 -29z"/>
<path d="M1356 698 c3 -4 -2 -8 -10 -8 -9 0 -16 -4 -16 -10 0 -5 -10 -9 -21
-7 -12 1 -23 -3 -25 -8 -2 -6 11 -10 28 -11 24 0 39 7 54 26 20 24 21 26 4 26
-10 0 -16 -4 -14 -8z"/>
<path d="M4771 694 c0 -11 3 -14 6 -6 3 7 2 16 -1 19 -3 4 -6 -2 -5 -13z"/>
<path d="M1095 689 c-4 -6 -5 -12 -2 -15 2 -3 7 2 10 11 7 17 1 20 -8 4z"/>
<path d="M1685 682 c6 -5 39 -13 75 -16 52 -6 63 -5 53 5 -7 7 -41 15 -75 17
-42 3 -60 1 -53 -6z"/>
<path d="M1559 664 c-11 -13 -9 -14 17 -8 40 9 54 24 22 24 -14 0 -31 -7 -39
-16z"/>
<path d="M997 663 c-3 -5 -2 -15 2 -22 5 -7 11 -9 14 -4 3 5 2 15 -2 22 -5 7
-11 9 -14 4z"/>
<path d="M1050 656 c0 -8 -6 -17 -12 -19 -8 -4 -7 -6 3 -6 9 -1 19 8 22 19 3
11 1 20 -4 20 -5 0 -9 -6 -9 -14z"/>
<path d="M3065 651 c-22 -10 -48 -28 -58 -39 -16 -17 -10 -16 38 9 31 16 63
29 71 29 8 0 12 5 9 10 -8 13 -13 13 -60 -9z"/>
<path d="M1478 635 c-20 -13 -38 -21 -40 -16 -2 5 -14 1 -27 -10 -13 -11 -21
-22 -18 -25 11 -12 74 17 102 46 35 36 31 38 -17 5z"/>
<path d="M1835 650 c3 -5 10 -10 16 -10 5 0 9 5 9 10 0 6 -7 10 -16 10 -8 0
-12 -4 -9 -10z"/>
<path d="M1067 636 c-5 -12 -3 -22 4 -27 6 -4 8 -12 4 -18 -5 -9 -11 -9 -23 1
-13 12 -14 10 -4 -9 7 -12 12 -31 12 -43 0 -12 4 -18 11 -15 6 4 8 13 5 20 -2
7 1 21 9 31 7 11 10 23 5 29 -4 5 -10 19 -12 30 -3 19 -4 19 -11 1z"/>
<path d="M1154 638 c-4 -5 -3 -12 0 -15 7 -8 36 4 36 15 0 11 -29 11 -36 0z"/>
<path d="M1295 640 c-3 -5 -1 -10 4 -10 6 0 11 5 11 10 0 6 -2 10 -4 10 -3 0
-8 -4 -11 -10z"/>
<path d="M1336 624 c-5 -14 -4 -15 9 -4 17 14 19 20 6 20 -5 0 -12 -7 -15 -16z"/>
<path d="M2100 622 c24 -42 28 -44 28 -19 0 16 -7 27 -19 30 -15 4 -17 2 -9
-11z"/>
<path d="M1793 623 c9 -2 23 -2 30 0 6 3 -1 5 -18 5 -16 0 -22 -2 -12 -5z"/>
<path d="M3135 620 c4 -6 -8 -10 -27 -11 -67 -1 -94 -15 -147 -79 -19 -22 -40
-40 -47 -40 -7 0 -20 -13 -29 -30 -9 -16 -20 -30 -25 -30 -14 0 -71 -90 -64
-102 4 -6 2 -8 -3 -5 -6 4 -14 0 -17 -9 -3 -8 -2 -12 4 -9 6 3 7 -1 4 -9 -3
-9 -9 -16 -13 -16 -4 0 -17 -18 -30 -40 -19 -33 -20 -40 -7 -40 21 0 20 -13
-5 -61 l-20 -41 -20 23 c-14 16 -18 31 -14 49 5 23 4 22 -16 -7 -11 -18 -25
-30 -30 -27 -5 3 -9 -6 -9 -20 0 -24 -30 -66 -47 -66 -5 0 -15 5 -23 10 -11 7
-7 10 18 10 23 0 32 5 32 16 0 10 -6 14 -15 11 -8 -4 -17 -2 -20 4 -4 5 1 12
9 15 9 3 16 12 16 20 0 7 8 19 18 26 9 7 23 25 31 41 8 15 19 27 25 27 20 0
94 105 82 117 -3 3 -11 -6 -17 -21 -7 -14 -15 -26 -19 -26 -13 0 -120 -108
-120 -120 0 -9 -4 -9 -13 -2 -9 8 -16 6 -25 -8 -8 -14 -8 -20 0 -22 7 -3 1
-19 -17 -42 -26 -34 -33 -37 -64 -33 -22 2 -45 -2 -61 -12 -13 -9 -21 -11 -17
-5 6 11 -39 26 -80 29 -6 0 -15 4 -19 8 -4 4 -22 7 -41 7 -21 0 -33 5 -33 13
0 8 -9 22 -20 32 -17 15 -24 16 -46 6 -19 -8 -30 -9 -39 -1 -15 13 -75 -12
-75 -31 0 -15 91 -109 106 -109 8 0 14 3 14 6 0 8 -51 77 -67 90 -11 10 -11
13 2 18 9 3 15 0 15 -9 0 -8 11 -17 25 -21 16 -4 25 -13 25 -25 0 -10 6 -19
14 -19 8 0 13 -8 12 -17 -1 -17 28 -18 469 -18 l470 0 -4 25 c-1 14 -8 28 -14
32 -8 5 -6 17 6 43 9 20 17 41 17 48 0 18 35 64 109 143 46 50 65 64 79 59 9
-4 25 -8 34 -9 20 -3 108 -63 108 -75 0 -12 62 -54 84 -57 12 -1 48 -13 81
-25 98 -37 297 -28 387 18 44 21 94 70 108 104 12 29 12 33 -10 49 -23 17 -24
17 -71 -19 -26 -20 -48 -42 -48 -49 -1 -7 -6 -10 -11 -7 -6 4 -8 11 -5 16 4 5
-3 9 -14 9 -11 0 -23 -4 -26 -10 -12 -19 -196 -12 -261 10 -69 23 -89 25 -54
5 30 -17 22 -19 -16 -5 -15 6 -24 13 -20 17 3 3 -13 15 -36 25 -43 19 -79 47
-178 138 -33 30 -65 60 -72 65 -7 6 -21 16 -29 23 -9 7 -42 19 -73 27 -68 18
-69 18 -61 5z m55 -20 c8 -5 11 -10 5 -10 -5 0 -17 5 -25 10 -8 5 -10 10 -5
10 6 0 17 -5 25 -10z m-30 -44 c0 -3 -4 -8 -10 -11 -5 -3 -10 -1 -10 4 0 6 5
11 10 11 6 0 10 -2 10 -4z m791 -339 c-13 -13 -26 -3 -16 12 3 6 11 8 17 5 6
-4 6 -10 -1 -17z m-1571 -187 c0 -13 -11 -13 -30 0 -12 8 -11 10 8 10 12 0 22
-4 22 -10z"/>
<path d="M1537 613 c-4 -3 -7 -11 -7 -17 0 -6 5 -5 12 2 6 6 9 14 7 17 -3 3
-9 2 -12 -2z"/>
<path d="M1842 607 c-9 -11 -10 -17 -2 -22 15 -9 23 -1 18 21 -3 15 -4 16 -16
1z"/>
<path d="M1960 610 c0 -5 9 -14 20 -20 11 -6 20 -8 20 -5 0 3 9 1 20 -5 27
-14 25 -3 -2 21 -25 20 -58 25 -58 9z"/>
<path d="M2573 613 c-7 -2 -13 -9 -13 -14 0 -15 36 -10 50 6 10 12 9 15 -6 14
-11 0 -25 -3 -31 -6z"/>
<path d="M2639 604 c-12 -14 -11 -16 5 -13 11 2 21 10 24 17 5 17 -13 15 -29
-4z"/>
<path d="M1336 575 c-11 -22 -14 -41 -9 -50 7 -12 14 -3 30 35 25 59 6 73 -21
15z"/>
<path d="M1483 584 c-12 -26 -12 -26 7 -9 20 18 26 35 13 35 -5 0 -13 -12 -20
-26z"/>
<path d="M1740 593 c-13 -15 -12 -16 5 -8 11 4 28 8 38 9 26 1 21 16 -5 16
-13 -1 -30 -8 -38 -17z"/>
<path d="M1175 590 c3 -5 10 -10 16 -10 5 0 9 5 9 10 0 6 -7 10 -16 10 -8 0
-12 -4 -9 -10z"/>
<path d="M1677 574 c-16 -21 -16 -24 -2 -24 16 0 30 22 23 39 -1 5 -11 -2 -21
-15z"/>
<path d="M2248 592 c-30 -6 -20 -37 17 -55 19 -9 35 -21 35 -27 0 -5 7 -10 15
-10 8 0 15 5 15 10 0 6 -4 10 -10 10 -17 0 -51 43 -40 50 16 10 -11 27 -32 22z"/>
<path d="M998 583 c7 -3 16 -2 19 1 4 3 -2 6 -13 5 -11 0 -14 -3 -6 -6z"/>
<path d="M2140 582 c0 -5 7 -15 15 -22 8 -7 15 -8 15 -2 0 5 -7 15 -15 22 -8
7 -15 8 -15 2z"/>
<path d="M2312 578 c5 -15 28 -23 28 -10 0 5 -7 13 -16 16 -10 4 -14 1 -12 -6z"/>
<path d="M2617 576 c-31 -7 -59 -11 -62 -9 -3 2 -3 0 0 -4 7 -9 -26 -44 -36
-37 -4 2 -6 11 -2 19 3 11 -2 15 -17 15 -18 0 -20 -3 -11 -14 10 -11 6 -16
-16 -25 l-28 -11 28 4 c15 2 27 -1 27 -5 0 -5 -4 -9 -8 -9 -4 0 -8 -9 -9 -20
-2 -21 11 -27 22 -10 7 11 25 4 25 -10 0 -5 -7 -10 -16 -12 -14 -3 -13 -6 3
-25 17 -19 22 -20 34 -8 8 8 33 17 56 21 34 5 44 3 49 -10 7 -17 34 -22 34 -6
0 5 7 7 15 4 8 -3 29 6 46 20 34 29 51 33 43 11 -8 -21 10 -19 28 3 9 10 12
27 9 43 l-6 26 -70 -27 c-38 -16 -83 -31 -100 -34 -26 -6 -25 -4 10 13 22 11
49 20 60 21 31 1 55 24 45 41 -8 11 -13 12 -30 2 -35 -23 -82 -14 -88 15 -1 8
6 12 20 10 13 -2 24 2 26 7 4 15 -16 15 -81 1z m-13 -57 c-8 -14 -21 -11 -21
5 0 8 6 12 14 9 7 -3 10 -9 7 -14z m-54 -9 c-6 -11 -18 -20 -28 -20 -14 1 -13
4 7 20 29 25 34 25 21 0z m100 0 c-6 -11 -17 -20 -25 -20 -20 0 -19 10 3 26
25 19 34 17 22 -6z m-70 -44 c0 -2 -7 -6 -15 -10 -8 -3 -15 -1 -15 4 0 6 7 10
15 10 8 0 15 -2 15 -4z m100 -26 c0 -5 -4 -10 -10 -10 -5 0 -10 5 -10 10 0 6
5 10 10 10 6 0 10 -4 10 -10z"/>
<path d="M1440 560 c0 -5 -7 -10 -15 -10 -9 0 -15 -9 -15 -25 0 -14 5 -25 10
-25 6 0 10 8 10 17 0 9 7 25 17 35 9 11 11 18 5 18 -7 0 -12 -4 -12 -10z"/>
<path d="M1990 560 c0 -4 7 -11 16 -14 8 -3 13 -10 9 -16 -3 -5 9 -16 27 -24
18 -8 27 -15 21 -15 -21 -2 -14 -21 7 -21 12 0 20 7 20 17 0 14 4 12 25 -7 31
-30 37 -24 23 23 -10 33 -28 51 -28 28 0 -5 -9 -11 -20 -14 -19 -5 -38 9 -39
28 0 12 -61 26 -61 15z"/>
<path d="M2430 551 c0 -11 31 -24 39 -16 3 3 -1 10 -9 15 -19 12 -30 12 -30 1z"/>
<path d="M1110 540 c0 -5 -6 -10 -14 -10 -18 0 -29 -27 -14 -36 5 -4 14 -1 18
6 6 10 9 9 13 -1 3 -8 6 1 6 19 1 17 -1 32 -4 32 -3 0 -5 -4 -5 -10z"/>
<path d="M1472 510 c-16 -27 -15 -30 8 -30 15 0 20 7 20 25 0 30 -11 32 -28 5z"/>
<path d="M2355 510 c10 -11 25 -20 34 -20 14 1 14 2 -1 14 -10 7 -15 16 -11
19 3 4 -4 7 -17 7 -22 0 -23 -1 -5 -20z"/>
<path d="M1541 507 c-12 -15 5 -127 19 -127 9 0 18 85 12 118 -5 25 -15 28
-31 9z"/>
<path d="M4030 516 c0 -2 7 -6 15 -10 8 -3 15 -1 15 4 0 6 -7 10 -15 10 -8 0
-15 -2 -15 -4z"/>
<path d="M4767 505 c-4 -8 -3 -16 1 -19 4 -3 9 4 9 15 2 23 -3 25 -10 4z"/>
<path d="M1044 492 c7 -34 -3 -54 -23 -47 -15 4 -17 0 -13 -26 4 -26 6 -29 14
-15 5 9 14 14 19 11 5 -4 7 -11 4 -16 -4 -5 -1 -17 5 -26 9 -16 10 -15 5 5 -4
12 -2 22 3 22 12 0 22 -24 22 -53 0 -37 38 -89 62 -85 33 5 33 25 -1 33 -31 7
-52 45 -50 89 1 17 2 18 6 3 2 -9 9 -14 15 -10 7 4 9 0 5 -10 -4 -11 3 -27 20
-44 20 -21 24 -23 18 -8 -4 11 -13 39 -19 62 -13 48 -36 79 -36 49 0 -10 -5
-14 -11 -11 -6 4 -8 14 -5 22 4 11 2 13 -9 9 -9 -3 -15 0 -15 9 0 17 16 20 25
5 9 -14 35 -12 35 3 0 6 -12 13 -26 13 -14 1 -32 10 -40 20 -15 18 -15 18 -10
-4z"/>
<path d="M1000 488 c0 -9 5 -20 10 -23 13 -8 13 5 0 25 -8 13 -10 13 -10 -2z"/>
<path d="M1140 491 c0 -6 6 -11 13 -11 9 0 11 -12 9 -40 -3 -32 -1 -40 12 -40
9 0 16 -4 16 -10 0 -5 -7 -10 -16 -10 -26 0 -9 -25 19 -28 19 -2 27 -9 27 -23
0 -17 -3 -18 -21 -9 -20 11 -20 11 -4 -19 8 -17 19 -31 24 -31 5 0 14 -13 21
-30 7 -17 16 -30 21 -30 5 0 9 -6 9 -14 0 -22 -37 -8 -45 17 -5 17 -10 9 -21
-38 -8 -33 -14 -66 -14 -72 1 -7 2 -31 3 -54 l2 -41 72 4 c79 4 92 10 73 33
-7 9 -10 18 -6 22 3 3 6 1 6 -5 0 -7 7 -12 16 -12 11 0 14 -6 9 -20 -6 -18 -2
-20 47 -20 41 0 58 5 71 20 23 27 21 40 -5 37 -15 -1 -23 4 -26 17 -3 13 0 16
9 11 9 -6 10 -2 6 16 -4 13 -7 27 -7 32 0 4 -7 7 -15 7 -9 0 -19 8 -22 18 -13
35 -91 148 -118 171 l-28 23 6 -31 c9 -41 1 -39 -18 5 -11 28 -19 35 -37 32
-15 -2 -23 2 -23 11 0 21 36 23 53 3 7 -9 10 -11 6 -3 -3 7 -1 17 7 22 7 4 10
12 5 16 -5 4 -11 2 -13 -4 -4 -10 -9 -10 -26 2 -15 11 -24 12 -34 3 -10 -8
-13 -7 -13 5 0 8 6 18 13 21 10 5 10 7 0 12 -7 3 -13 12 -13 20 0 8 -4 14 -9
14 -5 0 -16 3 -25 6 -9 3 -16 1 -16 -5z m130 -234 c0 -5 -4 -5 -10 -2 -5 3
-10 14 -10 23 0 15 2 15 10 2 5 -8 10 -19 10 -23z m69 1 c-2 -13 7 -44 19 -69
12 -25 22 -57 22 -72 0 -15 5 -27 10 -27 6 0 5 -6 -2 -14 -20 -21 -28 -9 -28
40 0 24 -4 44 -10 44 -5 0 -10 10 -10 23 0 12 -7 32 -15 44 -8 12 -12 28 -9
37 9 24 26 19 23 -6z m59 -76 c6 -18 -15 -14 -22 4 -4 10 -1 14 6 12 6 -2 14
-10 16 -16z m-108 -37 c0 -8 -4 -17 -10 -20 -6 -4 -10 5 -10 20 0 15 4 24 10
20 6 -3 10 -12 10 -20z m-50 -27 c0 -19 -2 -20 -10 -8 -13 19 -13 30 0 30 6 0
10 -10 10 -22z m78 -13 c-3 -3 -9 2 -12 12 -6 14 -5 15 5 6 7 -7 10 -15 7 -18z
m30 0 c-3 -3 -9 2 -12 12 -6 14 -5 15 5 6 7 -7 10 -15 7 -18z m-38 -45 c0 -5
-4 -10 -10 -10 -5 0 -10 5 -10 10 0 6 5 10 10 10 6 0 10 -4 10 -10z m-43 -22
c-3 -8 -6 -5 -6 6 -1 11 2 17 5 13 3 -3 4 -12 1 -19z"/>
<path d="M2275 490 c3 -5 11 -10 16 -10 6 0 7 5 4 10 -3 6 -11 10 -16 10 -6 0
-7 -4 -4 -10z"/>
<path d="M1350 480 c0 -5 5 -10 11 -10 5 0 7 5 4 10 -3 6 -8 10 -11 10 -2 0
-4 -4 -4 -10z"/>
<path d="M1430 479 c0 -8 7 -24 16 -35 14 -18 15 -18 8 6 -8 31 -24 50 -24 29z"/>
<path d="M1992 485 c4 -4 1 -14 -7 -22 -17 -16 -21 -48 -5 -38 6 3 7 -1 4 -9
-5 -12 -11 -13 -24 -6 -29 15 -39 12 -52 -15 -7 -16 -17 -24 -25 -20 -11 4
-13 -4 -11 -33 2 -30 7 -38 26 -40 13 -2 31 0 40 4 9 4 29 8 44 8 15 1 29 6
30 11 4 14 -72 19 -85 6 -16 -16 -27 -13 -27 8 0 44 56 44 120 -1 34 -25 41
-22 29 10 -8 22 -8 25 2 15 7 -7 18 -13 24 -13 5 0 2 7 -8 14 -10 8 -27 12
-37 9 -11 -3 -20 -1 -21 3 0 5 -3 29 -5 53 l-5 44 30 -24 c16 -13 28 -29 26
-36 -2 -6 6 -19 18 -30 19 -16 20 -16 8 0 -12 14 -11 17 2 17 9 0 23 -10 31
-21 15 -22 64 -59 79 -59 19 0 3 20 -30 38 -31 16 -37 24 -35 45 1 14 -2 29
-8 32 -17 11 -24 -3 -10 -19 11 -14 9 -14 -18 0 -17 8 -33 21 -36 29 -3 8 -20
22 -38 31 -18 9 -30 13 -26 9z"/>
<path d="M1240 471 c0 -6 5 -13 10 -16 6 -3 10 1 10 9 0 9 -4 16 -10 16 -5 0
-10 -4 -10 -9z"/>
<path d="M2315 470 c3 -5 8 -10 11 -10 2 0 4 5 4 10 0 6 -5 10 -11 10 -5 0 -7
-4 -4 -10z"/>
<path d="M2400 470 c0 -5 5 -10 10 -10 6 0 10 5 10 10 0 6 -4 10 -10 10 -5 0
-10 -4 -10 -10z"/>
<path d="M2440 470 c0 -5 4 -10 9 -10 6 0 13 5 16 10 3 6 -1 10 -9 10 -9 0
-16 -4 -16 -10z"/>
<path d="M1480 443 c0 -12 5 -25 10 -28 6 -3 10 -15 10 -26 0 -10 4 -27 9 -37
5 -9 16 -34 25 -54 8 -21 21 -38 27 -38 6 0 1 12 -10 26 -11 14 -18 31 -15 38
2 6 -9 41 -25 76 -19 41 -30 57 -31 43z"/>
<path d="M2436 436 c-15 -13 -26 -30 -26 -37 1 -10 4 -9 14 4 14 18 52 25 41
7 -3 -5 -2 -10 3 -10 11 0 23 40 16 52 -9 13 -22 9 -48 -16z"/>
<path d="M4395 450 c-3 -5 -1 -10 4 -10 6 0 11 5 11 10 0 6 -2 10 -4 10 -3 0
-8 -4 -11 -10z"/>
<path d="M1370 439 c0 -9 9 -27 20 -40 26 -32 27 -3 0 31 -15 19 -20 21 -20 9z"/>
<path d="M2340 426 c0 -9 5 -16 10 -16 6 0 10 4 10 9 0 6 -4 13 -10 16 -5 3
-10 -1 -10 -9z"/>
<path d="M2244 418 c3 -7 9 -21 12 -30 5 -15 34 -34 34 -22 0 14 -32 64 -41
64 -6 0 -8 -6 -5 -12z"/>
<path d="M2285 420 c-3 -5 3 -10 14 -10 12 0 21 5 21 10 0 6 -6 10 -14 10 -8
0 -18 -4 -21 -10z"/>
<path d="M1460 404 c0 -6 7 -19 16 -30 14 -18 14 -18 3 6 -14 31 -19 36 -19
24z"/>
<path d="M4381 396 c-10 -12 -8 -13 8 -9 12 3 18 9 15 14 -7 12 -10 11 -23 -5z"/>
<path d="M2323 384 c-17 -17 -16 -24 1 -24 15 0 30 27 18 34 -4 2 -13 -2 -19
-10z"/>
<path d="M2531 377 c-6 -8 -8 -16 -5 -19 3 -4 -8 -9 -25 -13 -17 -4 -34 -13
-38 -20 -5 -7 -21 -15 -38 -17 -28 -3 -29 -4 -10 -15 18 -10 29 -6 75 23 30
18 54 38 53 44 -3 9 31 14 82 11 l20 -1 -20 9 c-30 14 -81 13 -94 -2z"/>
<path d="M4321 376 c-7 -8 -13 -30 -15 -48 -2 -19 -6 -40 -10 -47 -14 -22 2
-23 24 -1 16 16 20 31 18 65 -2 25 -4 45 -4 45 -1 0 -7 -6 -13 -14z"/>
<path d="M1370 370 c0 -5 5 -10 10 -10 6 0 10 -7 10 -16 0 -9 8 -23 18 -30 9
-7 17 -16 17 -21 2 -24 18 -53 30 -53 7 0 21 -3 30 -7 16 -5 16 -3 -1 23 -11
16 -30 39 -44 51 -14 11 -32 33 -39 47 -14 26 -31 35 -31 16z"/>
<path d="M2413 356 c6 -17 34 -19 40 -3 4 10 -2 15 -19 15 -14 0 -23 -5 -21
-12z"/>
<path d="M3648 358 c5 -5 16 -8 23 -6 8 3 3 7 -10 11 -17 4 -21 3 -13 -5z"/>
<path d="M4377 363 c-4 -3 -7 -10 -7 -14 0 -9 39 1 46 12 6 10 -29 12 -39 2z"/>
<path d="M1012 349 c2 -6 8 -10 13 -10 5 0 11 4 13 10 2 6 -4 11 -13 11 -9 0
-15 -5 -13 -11z"/>
<path d="M2585 349 c-12 -19 5 -23 22 -6 16 16 16 17 1 17 -9 0 -20 -5 -23
-11z"/>
<path d="M2254 335 c11 -8 25 -15 30 -15 6 0 2 7 -8 15 -11 8 -25 15 -30 15
-6 0 -2 -7 8 -15z"/>
<path d="M3366 337 c5 -13 2 -16 -11 -10 -12 4 -23 0 -31 -12 -12 -15 -11 -20
4 -31 16 -13 16 -13 0 -14 -10 0 -18 -4 -18 -10 0 -5 -6 -10 -12 -10 -19 0
-54 -41 -61 -72 -10 -38 0 -57 29 -54 30 3 30 17 1 33 -20 11 -20 12 -4 18 10
5 25 1 35 -8 9 -8 32 -22 50 -32 38 -19 38 -32 1 -15 -19 9 -31 8 -54 -4 -17
-9 -24 -16 -17 -16 10 0 10 -5 2 -20 -7 -14 -7 -20 0 -20 5 0 10 4 10 9 0 13
29 41 41 41 6 0 8 -4 4 -9 -8 -15 14 -24 29 -12 9 7 16 7 23 0 6 -6 19 -9 29
-6 17 4 17 6 -3 12 -13 4 -23 12 -23 17 0 5 9 6 20 3 30 -10 24 3 -12 25 -26
16 -29 20 -13 20 18 0 18 2 -5 20 -14 11 -37 20 -52 20 -30 0 -39 19 -10 21
64 6 92 3 92 -8 0 -17 55 -44 74 -37 9 3 16 1 16 -4 0 -6 13 -17 30 -25 29
-15 29 -15 19 4 -5 11 -20 24 -33 29 -12 4 -23 14 -23 22 0 10 17 5 61 -16
109 -52 189 -78 219 -72 23 5 28 3 23 -9 -3 -10 1 -15 12 -15 21 0 54 20 34
20 -7 0 -20 7 -29 16 -14 14 -13 15 8 12 31 -4 130 22 124 32 -5 8 -97 -6
-137 -21 -33 -13 -108 2 -186 37 -29 13 -60 24 -70 24 -23 0 -112 60 -157 107
-20 20 -33 29 -29 20z m40 -47 c21 -8 25 -13 16 -22 -9 -9 -17 -7 -34 10 -25
25 -22 27 18 12z m69 -90 c3 -6 -1 -7 -9 -4 -18 7 -21 14 -7 14 6 0 13 -4 16
-10z"/>
<path d="M4277 343 c-4 -3 -7 -13 -7 -22 1 -13 3 -13 11 2 11 19 8 33 -4 20z"/>
<path d="M1470 329 c0 -9 9 -24 20 -34 26 -23 26 -4 0 26 -15 18 -19 20 -20 8z"/>
<path d="M2545 330 c-3 -5 -1 -10 4 -10 6 0 11 5 11 10 0 6 -2 10 -4 10 -3 0
-8 -4 -11 -10z"/>
<path d="M2326 321 c15 -14 54 -23 54 -13 0 5 -10 12 -22 16 -33 8 -44 8 -32
-3z"/>
<path d="M2530 300 c0 -5 5 -10 10 -10 6 0 10 5 10 10 0 6 -4 10 -10 10 -5 0
-10 -4 -10 -10z"/>
<path d="M2560 290 c-21 -19 -22 -20 -4 -20 20 0 44 17 44 32 0 14 -16 9 -40
-12z"/>
<path d="M2620 281 c-21 -18 -29 -30 -20 -30 21 -1 63 34 59 48 -3 7 -18 0
-39 -18z"/>
<path d="M2477 280 c6 -22 18 -26 28 -10 3 6 1 10 -5 10 -6 0 -8 5 -5 10 3 6
0 10 -8 10 -10 0 -13 -7 -10 -20z"/>
<path d="M4247 286 c-4 -10 -5 -21 -2 -24 9 -9 17 6 13 25 -3 17 -4 17 -11 -1z"/>
<path d="M2345 280 c3 -5 10 -10 16 -10 5 0 9 5 9 10 0 6 -7 10 -16 10 -8 0
-12 -4 -9 -10z"/>
<path d="M4167 220 c-20 -39 -28 -65 -20 -58 17 14 67 118 60 125 -3 2 -21
-28 -40 -67z"/>
<path d="M1770 272 c0 -5 8 -16 19 -26 17 -16 18 -15 17 6 -1 21 -36 41 -36
20z"/>
<path d="M2145 270 c3 -5 11 -10 16 -10 6 0 7 5 4 10 -3 6 -11 10 -16 10 -6 0
-7 -4 -4 -10z"/>
<path d="M2042 258 c-20 -26 -23 -55 -6 -62 21 -8 33 2 15 13 -23 14 -1 34 30
27 36 -7 38 7 4 22 -32 15 -30 15 -43 0z"/>
<path d="M2260 267 c0 -3 12 -19 27 -36 30 -34 57 -42 46 -14 -4 11 -3 14 5 9
22 -13 12 2 -10 16 -25 17 -68 32 -68 25z"/>
<path d="M2417 263 c-15 -2 -25 -8 -22 -12 6 -10 53 -2 61 10 3 5 2 8 -3 8 -4
-1 -20 -4 -36 -6z"/>
<path d="M1857 254 c-10 -10 3 -53 27 -94 19 -32 21 -33 24 -12 4 23 -28 112
-39 112 -3 0 -9 -3 -12 -6z"/>
<path d="M2556 253 c-9 -9 -7 -33 3 -33 12 0 22 28 12 34 -5 3 -11 3 -15 -1z"/>
<path d="M1610 220 c25 -35 36 -38 36 -11 0 11 -3 18 -7 15 -4 -2 -12 3 -19
11 -23 28 -31 15 -10 -15z"/>
<path d="M2360 240 c0 -5 5 -10 10 -10 6 0 10 5 10 10 0 6 -4 10 -10 10 -5 0
-10 -4 -10 -10z"/>
<path d="M3173 215 c-29 -45 -16 -45 20 0 16 20 22 35 15 35 -7 -1 -23 -16
-35 -35z"/>
<path d="M1140 227 c0 -15 29 -57 30 -42 0 6 -3 20 -6 33 -7 24 -24 31 -24 9z"/>
<path d="M1564 233 c3 -6 1 -13 -6 -15 -6 -2 10 -21 35 -42 64 -53 73 -41 13
19 -27 28 -46 45 -42 38z"/>
<path d="M2177 226 c-4 -9 -1 -18 5 -22 7 -4 8 -3 4 5 -6 9 0 10 19 5 21 -5
27 -4 23 7 -6 20 -44 23 -51 5z"/>
<path d="M4297 233 c-4 -3 -7 -11 -7 -17 0 -6 5 -5 12 2 6 6 9 14 7 17 -3 3
-9 2 -12 -2z"/>
<path d="M2490 220 c-12 -8 -11 -10 7 -10 12 0 25 5 28 10 8 13 -15 13 -35 0z"/>
<path d="M4017 206 c-46 -29 -54 -36 -30 -30 16 5 84 54 73 54 -3 -1 -22 -11
-43 -24z"/>
<path d="M2125 200 c-3 -5 3 -10 15 -10 12 0 18 5 15 10 -3 6 -10 10 -15 10
-5 0 -12 -4 -15 -10z"/>
<path d="M2245 200 c3 -5 14 -10 23 -10 15 0 15 2 2 10 -20 13 -33 13 -25 0z"/>
<path d="M1490 186 c0 -14 30 -44 38 -37 7 6 111 -83 112 -96 0 -15 20 -18 20
-4 0 6 -4 13 -10 16 -5 3 -10 11 -10 16 0 6 5 7 10 4 6 -3 10 -3 10 2 0 15
-15 30 -45 45 -81 42 -95 50 -100 59 -9 14 -25 11 -25 -5z"/>
<path d="M2447 183 c-14 -13 -6 -20 18 -15 14 2 28 8 31 13 6 10 -39 12 -49 2z"/>
<path d="M1096 153 c4 -16 13 -41 21 -58 13 -29 14 -28 7 20 -7 55 -10 65 -25
65 -5 0 -6 -12 -3 -27z"/>
<path d="M1650 176 c0 -2 7 -7 16 -10 8 -3 12 -2 9 4 -6 10 -25 14 -25 6z"/>
<path d="M2110 170 c0 -5 5 -10 10 -10 6 0 10 5 10 10 0 6 -4 10 -10 10 -5 0
-10 -4 -10 -10z"/>
<path d="M2700 161 c-12 -24 -13 -34 -1 -27 9 6 22 46 15 46 -2 0 -8 -9 -14
-19z"/>
<path d="M1795 146 c0 -13 8 -33 18 -43 9 -11 17 -25 17 -31 0 -7 7 -12 15
-12 9 0 12 6 9 15 -4 8 -10 15 -15 15 -5 0 -9 5 -9 11 0 5 6 7 13 3 8 -6 8 -3
-1 9 -8 9 -17 16 -20 15 -19 -2 -26 3 -14 11 11 6 10 10 0 19 -11 9 -14 6 -13
-12z"/>
<path d="M2216 161 c-13 -20 80 -59 181 -75 42 -7 54 19 12 28 -16 3 -35 3
-42 0 -7 -2 -27 2 -43 11 -16 8 -35 15 -42 15 -7 0 -15 7 -18 15 -7 16 -39 20
-48 6z"/>
<path d="M2290 162 c24 -15 77 -25 65 -13 -6 6 -26 13 -45 16 -24 4 -30 3 -20
-3z"/>
<path d="M2384 155 c22 -17 36 -19 36 -6 0 10 -24 21 -43 21 -7 0 -3 -7 7 -15z"/>
<path d="M3145 123 c1 -26 -3 -54 -9 -62 -9 -11 -8 -13 4 -9 8 3 20 -2 26 -10
10 -13 13 -12 24 9 7 13 9 20 4 16 -5 -5 -13 14 -19 44 -13 68 -33 76 -30 12z"/>
<path d="M4216 153 c-6 -14 -5 -15 5 -6 7 7 10 15 7 18 -3 3 -9 -2 -12 -12z"/>
<path d="M1130 150 c0 -5 5 -10 11 -10 5 0 7 5 4 10 -3 6 -8 10 -11 10 -2 0
-4 -4 -4 -10z"/>
<path d="M1705 150 c3 -5 11 -10 16 -10 6 0 7 5 4 10 -3 6 -11 10 -16 10 -6 0
-7 -4 -4 -10z"/>
<path d="M1945 129 c19 -36 25 -35 18 4 -3 15 -12 27 -19 27 -12 0 -12 -5 1
-31z"/>
<path d="M1976 109 c-6 -45 -4 -55 15 -75 28 -30 35 -30 42 -2 4 15 -1 30 -14
44 -11 12 -22 34 -25 50 -8 43 -11 40 -18 -17z"/>
<path d="M2020 139 c0 -5 5 -7 10 -4 6 3 10 8 10 11 0 2 -4 4 -10 4 -5 0 -10
-5 -10 -11z"/>
<path d="M2483 139 c-32 -9 -46 -29 -20 -29 18 0 67 24 67 33 0 8 -5 8 -47 -4z"/>
<path d="M4240 124 c-14 -36 -13 -39 10 -19 21 19 27 45 10 45 -6 0 -15 -12
-20 -26z"/>
<path d="M1696 117 c3 -10 9 -15 12 -12 3 3 0 11 -7 18 -10 9 -11 8 -5 -6z"/>
<path d="M4203 115 c0 -8 4 -12 9 -9 5 3 6 10 3 15 -9 13 -12 11 -12 -6z"/>
<path d="M1750 90 c13 -23 20 -26 20 -6 0 8 -7 16 -15 20 -13 4 -14 2 -5 -14z"/>
<path d="M4104 80 c-12 -38 -9 -49 7 -33 6 6 9 23 7 39 l-4 29 -10 -35z"/>
<path d="M1560 92 c0 -6 5 -14 11 -18 15 -9 -8 -24 -37 -24 -13 0 -24 -8 -27
-20 -6 -24 11 -26 28 -4 10 15 13 15 27 0 24 -24 39 -20 29 7 -4 12 -6 27 -4
33 2 6 -3 17 -12 24 -9 8 -15 8 -15 2z"/>
<path d="M1928 73 c24 -34 70 -76 56 -52 -13 24 -62 79 -69 79 -4 0 2 -12 13
-27z"/>
<path d="M3615 91 c-5 -10 12 -25 30 -26 6 0 27 -8 49 -18 41 -18 86 -23 86
-8 0 5 -21 12 -47 16 -26 4 -58 15 -71 26 -27 21 -38 23 -47 10z"/>
<path d="M1685 69 c22 -24 26 -24 18 -1 -6 15 -4 15 15 -2 12 -11 22 -14 22
-9 0 16 -22 29 -49 31 -22 1 -22 0 -6 -19z"/>
<path d="M3813 79 c-18 -5 -33 -12 -33 -14 0 -11 58 -4 76 10 23 17 7 18 -43
4z"/>
<path d="M3325 70 c-3 -5 -1 -10 4 -10 6 0 11 5 11 10 0 6 -2 10 -4 10 -3 0
-8 -4 -11 -10z"/>
<path d="M3348 58 c-3 -7 -18 -13 -34 -13 -18 -1 -30 -8 -32 -18 -5 -27 68
-24 75 3 3 11 9 20 14 20 5 0 9 5 9 10 0 14 -28 12 -32 -2z"/>
<path d="M4152 46 c1 -14 6 -22 10 -20 12 7 10 44 -2 44 -5 0 -9 -11 -8 -24z"/>
<path d="M4215 51 c-3 -5 -1 -12 5 -16 5 -3 10 1 10 9 0 18 -6 21 -15 7z"/>
<path d="M1620 31 c0 -6 4 -13 10 -16 6 -3 7 1 4 9 -7 18 -14 21 -14 7z"/>
<path d="M1690 26 c0 -11 8 -16 28 -15 15 0 21 3 12 6 -8 3 -21 10 -27 16 -9
7 -13 5 -13 -7z"/>
<path d="M1770 31 c0 -5 5 -13 10 -16 6 -3 10 -2 10 4 0 5 -4 13 -10 16 -5 3
-10 2 -10 -4z"/>
<path d="M2086 27 c3 -10 9 -15 12 -12 3 3 0 11 -7 18 -10 9 -11 8 -5 -6z"/>
<path d="M3458 29 c13 -15 86 -23 77 -9 -3 5 -13 9 -23 9 -9 -1 -28 3 -42 6
-21 7 -23 5 -12 -6z"/>
<path d="M835 20 c26 -11 45 -12 45 -2 0 4 -15 8 -33 9 -26 1 -28 0 -12 -7z"/>
<path d="M1105 20 c-3 -5 -1 -10 4 -10 6 0 11 5 11 10 0 6 -2 10 -4 10 -3 0
-8 -4 -11 -10z"/>
<path d="M3375 20 c-3 -5 1 -10 10 -10 9 0 13 5 10 10 -3 6 -8 10 -10 10 -2 0
-7 -4 -10 -10z"/>
</g>
</svg>
