<?xml version="1.0" standalone="no"?>
<!DOCTYPE svg PUBLIC "-//W3C//DTD SVG 20010904//EN"
 "http://www.w3.org/TR/2001/REC-SVG-20010904/DTD/svg10.dtd">
<svg version="1.0" xmlns="http://www.w3.org/2000/svg"
 width="846.000000pt" height="845.000000pt" viewBox="0 0 846.000000 845.000000"
 preserveAspectRatio="xMidYMid meet">

<g transform="translate(0.000000,845.000000) scale(0.100000,-0.100000)"
fill="#000000" stroke="none">
<path d="M3930 8439 c-736 -55 -1435 -293 -2035 -692 -518 -345 -933 -774
-1270 -1312 -151 -239 -321 -607 -417 -899 -286 -870 -274 -1863 34 -2719 608
-1696 2195 -2817 3989 -2817 1120 0 2185 439 2980 1230 478 475 819 1023 1030
1651 207 620 268 1280 178 1929 -222 1591 -1334 2922 -2865 3428 -512 169
-1091 241 -1624 201z m-355 -1769 c61 -5 180 -17 265 -26 126 -13 214 -15 466
-9 170 3 339 10 375 15 91 14 505 12 591 -2 132 -21 246 -63 323 -119 65 -48
104 -90 151 -164 34 -53 52 -89 95 -190 30 -69 70 -261 90 -430 10 -84 16
-122 42 -245 41 -190 51 -293 50 -515 0 -165 -5 -243 -18 -310 -9 -49 -19
-108 -21 -130 -1 -22 -4 -40 -4 -40 -1 0 -3 -9 -5 -20 -2 -11 -11 -47 -19 -80
-23 -89 -26 -85 63 -85 l79 0 6 38 c3 20 7 56 8 80 1 23 6 42 10 42 4 0 8 13
8 30 0 16 6 44 14 62 8 18 20 48 26 65 13 34 33 58 88 106 36 31 42 57 13 57
-21 0 -79 -62 -100 -107 -7 -15 -17 -35 -21 -44 -16 -31 -51 -169 -46 -178 3
-5 0 -14 -8 -20 -12 -10 -15 -3 -18 40 -4 73 9 314 22 374 l11 51 60 13 c60
14 60 14 89 -14 46 -44 63 -119 57 -250 -5 -104 -12 -149 -38 -255 -6 -25 -12
-61 -12 -80 l-2 -35 205 -5 c227 -6 234 -7 285 -74 l27 -35 -7 -238 c-9 -352
-22 -644 -34 -763 -6 -58 -15 -238 -20 -400 -5 -162 -14 -309 -19 -327 -6 -17
-12 -137 -14 -265 -2 -183 0 -238 10 -251 14 -17 43 -90 69 -172 15 -50 21
-66 42 -118 6 -15 11 -41 11 -57 0 -16 5 -32 10 -35 6 -3 10 -21 10 -40 0 -19
4 -36 9 -39 4 -3 14 -34 20 -68 7 -35 16 -79 21 -98 25 -100 28 -121 17 -124
-7 -2 -28 -8 -48 -15 -20 -6 -101 -11 -189 -11 l-153 0 40 29 c51 37 83 81 83
115 0 31 -15 34 -30 6 -6 -11 -17 -20 -25 -20 -8 0 -15 -4 -15 -9 0 -4 -24
-16 -53 -25 -63 -20 -224 -20 -2137 -10 -674 3 -1497 7 -1830 8 l-605 1 -45
24 c-25 12 -49 29 -53 37 -4 8 -14 14 -21 14 -8 0 -16 7 -20 15 -3 8 -11 15
-17 15 -19 0 -5 -97 18 -128 11 -15 37 -36 58 -47 l38 -20 -142 -3 c-83 -1
-149 2 -160 8 -11 5 -34 10 -52 10 -29 0 -31 2 -25 27 4 16 11 49 16 74 5 26
14 64 20 85 12 38 21 81 38 167 5 23 16 59 25 81 10 21 17 49 17 62 0 12 4 26
10 29 5 3 10 18 10 33 0 15 9 42 20 60 11 18 20 39 20 47 0 8 10 31 21 52 12
21 22 56 22 78 0 86 -23 525 -32 605 -5 47 -15 243 -22 435 -6 193 -15 355
-19 360 -4 6 -10 109 -14 230 -4 121 -11 296 -15 390 -8 157 -8 172 10 207 11
21 37 49 59 63 39 25 43 25 250 25 236 0 230 -2 209 71 -7 24 -14 51 -15 59
-2 8 -8 38 -15 65 -16 75 -22 245 -10 321 8 55 16 73 43 101 30 31 36 33 73
27 22 -4 49 -7 59 -8 32 -2 45 -81 50 -311 l5 -210 -20 65 c-11 36 -25 83 -31
105 -31 118 -98 225 -141 225 -35 0 -26 -23 31 -78 32 -31 64 -73 71 -92 7
-19 16 -44 21 -55 14 -37 30 -115 30 -146 0 -18 5 -49 12 -71 l11 -39 76 3
c68 3 76 5 77 23 0 11 -3 25 -7 31 -5 5 -10 29 -11 52 -2 23 -6 42 -10 42 -9
0 -20 55 -23 117 -2 29 -6 57 -9 62 -7 11 -20 183 -21 264 0 26 -2 47 -5 47
-3 0 -2 66 1 147 6 136 26 296 49 383 25 95 38 169 60 340 49 364 148 569 351
723 71 54 251 111 394 124 96 9 135 8 310 -7z"/>
<path d="M3030 5606 c-57 -15 -115 -52 -174 -110 -46 -46 -56 -72 -34 -94 18
-18 30 -15 115 25 l78 38 135 -1 c123 -1 215 -11 325 -34 22 -5 77 -12 122
-16 80 -6 82 -6 107 21 53 57 25 107 -67 127 -254 52 -510 71 -607 44z"/>
<path d="M5085 5609 c-38 -5 -110 -16 -160 -25 -49 -8 -106 -18 -125 -21 -19
-3 -48 -15 -63 -26 -38 -26 -35 -80 5 -110 25 -19 32 -19 120 -8 51 6 118 16
148 21 106 18 295 31 355 25 33 -4 96 -22 139 -41 93 -40 102 -41 116 -13 9
16 8 26 -4 44 -29 44 -92 96 -155 127 -60 30 -71 32 -185 34 -67 2 -152 -2
-191 -7z"/>
<path d="M3185 5094 c-180 -25 -405 -161 -405 -244 0 -34 38 -83 47 -60 9 24
100 108 151 141 47 30 100 40 85 17 -20 -32 -33 -88 -33 -147 0 -78 45 -183
88 -204 69 -34 262 -46 262 -16 0 5 4 9 10 9 5 0 36 18 67 40 80 55 101 53 83
-10 l-9 -33 24 23 c40 38 75 122 75 180 l0 51 28 -15 c15 -8 47 -39 72 -69 25
-31 52 -57 62 -60 15 -4 15 -1 2 36 -46 130 -203 279 -354 334 -54 21 -195 35
-255 27z m82 -122 c7 -9 12 -33 10 -52 -4 -64 -86 -81 -123 -25 -14 21 -14 30
-4 56 21 50 85 61 117 21z"/>
<path d="M5090 5090 c-116 -17 -213 -68 -313 -167 -68 -67 -107 -120 -130
-181 -22 -56 -22 -65 3 -52 11 6 20 16 20 23 0 15 101 117 116 117 6 0 16 -29
22 -64 13 -78 35 -127 78 -173 l33 -35 111 4 c63 2 114 8 118 14 15 22 134 95
150 92 11 -2 17 -13 17 -31 -1 -52 25 -30 68 58 25 50 26 161 3 224 -9 24 -14
46 -12 48 12 12 110 -50 173 -110 84 -80 103 -82 103 -13 0 39 -5 50 -38 83
-55 54 -62 59 -148 99 -130 60 -254 82 -374 64z m-40 -166 c0 -6 -12 -23 -26
-39 -20 -22 -31 -26 -55 -21 -87 17 -71 85 24 105 26 6 34 4 44 -13 7 -12 12
-26 13 -32z"/>
<path d="M3505 4570 c3 -5 8 -10 11 -10 2 0 4 5 4 10 0 6 -5 10 -11 10 -5 0
-7 -4 -4 -10z"/>
<path d="M2356 4039 c-169 -40 -320 -196 -357 -369 -16 -74 -6 -202 21 -272
46 -122 156 -232 279 -279 70 -26 197 -35 273 -20 135 28 265 129 326 252 38
79 52 135 52 219 0 84 -14 140 -53 219 -57 117 -189 221 -317 250 -54 13 -170
12 -224 0z m219 -24 c182 -48 316 -193 348 -380 49 -287 -224 -562 -513 -518
-202 32 -358 185 -393 386 -52 308 255 591 558 512z"/>
<path d="M2450 3997 c-8 -7 -14 -21 -12 -33 4 -30 59 -29 65 1 2 14 -3 26 -15
34 -21 13 -19 13 -38 -2z"/>
<path d="M2383 3981 c5 -21 5 -22 -19 -6 -23 15 -24 14 -24 -7 0 -13 5 -30 10
-38 8 -12 10 -10 10 9 0 23 1 23 18 8 10 -10 21 -15 24 -12 8 8 -3 54 -15 62
-6 4 -8 -2 -4 -16z"/>
<path d="M2547 3986 c-8 -20 -8 -58 -1 -40 7 17 44 4 44 -15 0 -14 2 -14 10
-1 16 25 12 53 -6 46 -10 -4 -22 1 -29 10 -11 16 -12 16 -18 0z"/>
<path d="M2266 3954 c-20 -20 -20 -29 0 -49 14 -14 19 -14 37 -2 28 18 31 32
12 51 -20 20 -29 20 -49 0z m44 -24 c0 -13 -7 -20 -20 -20 -13 0 -20 7 -20 20
0 13 7 20 20 20 13 0 20 -7 20 -20z"/>
<path d="M2635 3956 c-20 -15 -17 -44 7 -59 12 -8 21 -7 32 2 36 30 -1 85 -39
57z m43 -23 c5 -17 -26 -29 -40 -15 -6 6 -7 15 -3 22 9 14 37 9 43 -7z"/>
<path d="M2197 3913 c-15 -15 -6 -52 14 -58 23 -8 59 18 45 32 -4 4 -12 0 -17
-9 -11 -19 -39 -13 -39 8 0 7 8 18 18 23 14 9 15 10 1 11 -9 0 -19 -3 -22 -7z"/>
<path d="M2365 3904 c-151 -53 -245 -181 -245 -334 0 -275 308 -443 540 -295
215 138 210 463 -10 597 -77 46 -205 61 -285 32z m65 -9 c10 -12 8 -16 -11
-24 -16 -5 -26 -5 -31 3 -11 16 -10 28 1 21 5 -3 12 -1 16 5 8 13 10 13 25 -5z
m60 -5 c0 -11 -7 -20 -15 -20 -15 0 -21 21 -8 33 12 13 23 7 23 -13z m70 0 c3
-1 10 -3 15 -5 36 -8 55 -19 55 -31 0 -19 -19 -27 -26 -10 -3 8 -12 12 -19 10
-7 -3 -16 0 -20 5 -3 6 -11 9 -16 5 -6 -3 -19 3 -30 14 -18 21 -18 21 9 18 15
-2 29 -5 32 -6z m-186 -16 c3 -8 2 -12 -4 -9 -6 3 -10 10 -10 16 0 14 7 11 14
-7z m-20 -10 c3 -8 2 -12 -4 -9 -6 3 -10 10 -10 16 0 14 7 11 14 -7z m-21 -9
c7 -16 -8 -29 -23 -20 -5 3 -10 -1 -10 -9 0 -21 3 -20 53 6 32 17 59 22 117
22 86 0 151 -27 207 -86 32 -34 73 -111 72 -138 0 -8 -8 7 -19 33 -38 98 -105
155 -207 177 -111 24 -231 -29 -290 -130 -35 -57 -44 -61 -17 -7 9 18 32 49
52 69 l35 37 -32 -1 c-25 -1 -29 -4 -20 -14 9 -11 7 -15 -5 -20 -9 -4 -20 -3
-24 0 -10 11 14 41 32 40 10 -1 15 5 14 15 -2 10 3 15 15 15 9 -1 17 4 17 12
0 19 26 18 33 -1z m335 -20 c6 0 12 -4 13 -10 0 -5 9 -13 21 -18 17 -6 18 -10
8 -23 -12 -13 -17 -11 -41 15 -15 16 -30 27 -33 23 -4 -3 -4 2 0 12 4 10 10
14 13 9 3 -4 12 -8 19 -8z m-101 -99 c28 -30 33 -43 33 -86 0 -49 0 -49 24
-38 16 6 26 21 28 37 4 32 41 37 46 7 2 -11 10 -26 18 -34 29 -29 1 -69 -30
-43 -11 10 -29 5 -84 -23 -38 -19 -72 -32 -76 -29 -3 4 -6 4 -6 0 0 -3 24 -19
53 -35 35 -21 60 -29 78 -25 32 6 46 -20 21 -39 -9 -7 -17 -22 -17 -33 0 -29
-39 -27 -43 2 -2 12 -18 31 -35 41 -95 56 -126 71 -122 60 4 -9 -18 -25 -58
-45 -52 -25 -64 -36 -63 -55 1 -18 -4 -23 -24 -23 -20 0 -25 5 -23 23 2 14 -3
22 -12 22 -9 0 -15 9 -15 24 0 27 17 37 40 24 10 -7 34 -1 76 19 l61 29 -74
42 c-57 33 -77 40 -92 33 -12 -7 -22 -6 -29 1 -17 17 -15 38 4 45 8 3 13 12
10 19 -3 7 2 20 10 29 19 19 44 4 44 -26 0 -10 9 -23 20 -29 18 -10 20 -8 20
29 0 28 8 49 27 71 34 41 58 51 113 46 35 -3 51 -11 77 -40z m183 20 c0 -16
-18 -31 -27 -22 -8 8 5 36 17 36 5 0 10 -6 10 -14z m-535 -6 c3 -6 -1 -7 -9
-4 -18 7 -21 14 -7 14 6 0 13 -4 16 -10z m-10 -20 c3 -6 -1 -7 -9 -4 -18 7
-21 14 -7 14 6 0 13 -4 16 -10z m555 -10 c-13 -8 -12 -10 3 -10 9 0 17 -7 17
-16 0 -20 -35 -14 -36 6 -1 21 5 30 19 30 7 0 6 -4 -3 -10z m-565 -10 c3 -6
-1 -7 -9 -4 -18 7 -21 14 -7 14 6 0 13 -4 16 -10z m-22 -56 c-2 -10 -4 -29 -5
-41 -2 -15 -9 -23 -22 -23 -20 0 -20 0 0 14 10 8 16 18 11 22 -4 4 -7 2 -7 -5
0 -7 -5 -9 -10 -6 -8 5 -8 11 0 20 6 7 10 17 9 21 -3 18 1 26 14 21 6 -2 11
-13 10 -23z m622 -3 c-3 -11 -1 -22 5 -26 14 -8 3 -25 -17 -25 -10 0 -14 6
-10 20 3 11 1 20 -4 20 -5 0 -9 7 -9 15 0 8 9 15 21 15 15 0 19 -4 14 -19z
m-598 -23 c-3 -8 -6 -5 -6 6 -1 11 2 17 5 13 3 -3 4 -12 1 -19z m-10 -80 c-2
-13 -4 -3 -4 22 0 25 2 35 4 23 2 -13 2 -33 0 -45z m570 0 c-2 -13 -4 -3 -4
22 0 25 2 35 4 23 2 -13 2 -33 0 -45z m44 33 c-9 -6 -10 -11 -2 -15 18 -11 13
-26 -9 -26 -11 0 -20 4 -20 9 0 22 13 41 29 41 13 0 13 -2 2 -9z m-635 -12
c10 -17 -13 -36 -27 -22 -12 12 -4 33 11 33 5 0 12 -5 16 -11z m634 -51 c0 -4
-4 -8 -9 -8 -6 0 -12 4 -15 8 -3 5 1 9 9 9 8 0 15 -4 15 -9z m-640 -8 c-12 -8
-12 -10 5 -10 15 0 17 -3 7 -9 -11 -6 -10 -10 3 -15 9 -3 15 -13 12 -20 -3 -8
1 -17 9 -20 9 -3 13 -10 10 -15 -3 -5 1 -11 9 -15 18 -7 18 2 0 34 -29 51 -14
42 18 -10 60 -102 178 -154 292 -130 76 16 143 63 182 130 32 52 47 61 18 10
-18 -32 -18 -40 -1 -40 8 0 13 7 12 16 -1 16 29 43 38 33 9 -9 -6 -49 -19 -49
-7 0 -12 -6 -11 -12 0 -7 -3 -13 -8 -13 -5 0 -12 -10 -17 -21 -11 -32 -77 -80
-91 -66 -12 12 -1 35 13 27 5 -4 9 -1 9 6 0 8 5 7 17 -2 15 -12 16 -12 10 3
-4 13 -2 15 11 11 15 -6 15 -5 3 10 -11 14 -11 18 3 23 9 3 16 13 16 22 0 11
-12 5 -37 -20 -84 -82 -215 -106 -317 -60 l-49 22 -15 -21 c-9 -14 -18 -17
-24 -11 -13 13 -1 32 20 32 11 0 7 10 -18 35 -18 19 -35 33 -37 31 -8 -7 25
-55 33 -48 4 4 2 -1 -5 -10 -14 -18 -27 -25 -17 -9 3 5 -4 11 -15 14 -12 3
-18 10 -14 16 3 6 0 11 -8 11 -13 0 -28 27 -31 55 -1 6 -7 15 -15 21 -8 6 -11
16 -7 22 4 7 3 12 -1 12 -5 0 -9 9 -10 20 -1 13 4 20 15 20 15 0 15 -2 2 -10z
m37 -12 c-3 -8 -6 -5 -6 6 -1 11 2 17 5 13 3 -3 4 -12 1 -19z m550 0 c-3 -8
-6 -5 -6 6 -1 11 2 17 5 13 3 -3 4 -12 1 -19z m46 -23 c1 -5 -6 -11 -15 -13
-11 -2 -18 3 -18 13 0 17 30 18 33 0z m-449 -182 c4 -5 13 -8 19 -8 7 0 13 -8
15 -17 2 -11 -3 -18 -12 -18 -9 0 -16 7 -16 16 0 13 -3 14 -14 5 -10 -8 -16
-9 -21 -1 -12 20 12 39 29 23z m256 -24 c0 -14 -5 -19 -14 -16 -7 3 -19 0 -25
-6 -8 -8 -14 -8 -22 0 -14 14 -1 36 17 29 8 -3 14 -1 14 4 0 6 7 10 15 10 9 0
15 -9 15 -21z m-180 -15 c0 -8 -7 -14 -15 -14 -15 0 -21 21 -9 33 10 9 24 -2
24 -19z m100 -2 c0 -7 -4 -11 -9 -8 -5 4 -11 0 -14 -6 -3 -10 -7 -10 -19 0
-11 9 -18 10 -23 2 -8 -13 -25 -3 -25 15 0 10 13 13 45 12 31 -1 45 -5 45 -15z"/>
<path d="M2530 3879 c0 -5 5 -7 10 -4 6 3 10 8 10 11 0 2 -4 4 -10 4 -5 0 -10
-5 -10 -11z"/>
<path d="M2570 3869 c0 -5 5 -7 10 -4 6 3 10 8 10 11 0 2 -4 4 -10 4 -5 0 -10
-5 -10 -11z"/>
<path d="M2310 3850 c0 -5 5 -10 11 -10 5 0 7 5 4 10 -3 6 -8 10 -11 10 -2 0
-4 -4 -4 -10z"/>
<path d="M2230 3790 c0 -5 5 -10 11 -10 5 0 7 5 4 10 -3 6 -8 10 -11 10 -2 0
-4 -4 -4 -10z"/>
<path d="M2660 3819 c0 -5 5 -7 10 -4 6 3 10 8 10 11 0 2 -4 4 -10 4 -5 0 -10
-5 -10 -11z"/>
<path d="M2690 3789 c0 -5 5 -7 10 -4 6 3 10 8 10 11 0 2 -4 4 -10 4 -5 0 -10
-5 -10 -11z"/>
<path d="M2414 3706 c-8 -21 3 -36 27 -36 15 0 20 6 17 22 -4 27 -35 37 -44
14z"/>
<path d="M2507 3714 c-4 -4 -7 -16 -7 -26 0 -13 7 -18 26 -18 21 0 25 4 22 22
-3 23 -27 35 -41 22z"/>
<path d="M2385 3628 c25 -86 155 -91 184 -7 8 23 7 29 -5 29 -7 0 -14 -9 -14
-19 0 -25 -46 -61 -77 -61 -29 0 -77 45 -69 65 3 9 -1 15 -10 15 -11 0 -14 -6
-9 -22z"/>
<path d="M2155 3660 c3 -5 8 -10 11 -10 2 0 4 5 4 10 0 6 -5 10 -11 10 -5 0
-7 -4 -4 -10z"/>
<path d="M2780 3620 c0 -5 5 -10 11 -10 5 0 7 5 4 10 -3 6 -8 10 -11 10 -2 0
-4 -4 -4 -10z"/>
<path d="M2140 3560 c0 -5 5 -10 10 -10 6 0 10 5 10 10 0 6 -4 10 -10 10 -5 0
-10 -4 -10 -10z"/>
<path d="M2160 3460 c0 -5 5 -10 10 -10 6 0 10 5 10 10 0 6 -4 10 -10 10 -5 0
-10 -4 -10 -10z"/>
<path d="M2180 3422 c0 -5 10 -19 23 -32 12 -14 21 -28 20 -32 -2 -5 2 -8 7
-8 16 0 12 14 -12 40 -13 14 -22 28 -20 32 1 5 -2 8 -8 8 -5 0 -10 -4 -10 -8z"/>
<path d="M2740 3420 c0 -5 5 -10 11 -10 5 0 7 5 4 10 -3 6 -8 10 -11 10 -2 0
-4 -4 -4 -10z"/>
<path d="M2725 3380 c3 -5 8 -10 11 -10 2 0 4 5 4 10 0 6 -5 10 -11 10 -5 0
-7 -4 -4 -10z"/>
<path d="M2695 3350 c3 -5 8 -10 11 -10 2 0 4 5 4 10 0 6 -5 10 -11 10 -5 0
-7 -4 -4 -10z"/>
<path d="M2270 3309 c0 -5 5 -7 10 -4 6 3 10 8 10 11 0 2 -4 4 -10 4 -5 0 -10
-5 -10 -11z"/>
<path d="M2630 3298 c0 -4 4 -8 9 -8 6 0 12 4 15 8 3 5 -1 9 -9 9 -8 0 -15 -4
-15 -9z"/>
<path d="M2320 3279 c0 -5 5 -7 10 -4 6 3 10 8 10 11 0 2 -4 4 -10 4 -5 0 -10
-5 -10 -11z"/>
<path d="M2540 3260 c0 -5 5 -10 11 -10 5 0 7 5 4 10 -3 6 -8 10 -11 10 -2 0
-4 -4 -4 -10z"/>
<path d="M2706 3912 c-2 -4 -1 -14 5 -22 16 -26 10 -34 -11 -15 -21 19 -28 7
-8 -13 24 -24 41 -14 34 19 -5 25 -3 30 10 25 8 -3 12 -2 9 4 -7 12 -32 13
-39 2z"/>
<path d="M2747 3863 c-13 -13 -7 -51 9 -57 14 -5 15 -4 4 9 -15 18 -7 45 14
45 7 0 17 -7 20 -16 4 -9 9 -14 13 -11 3 4 0 13 -7 22 -13 15 -42 20 -53 8z"/>
<path d="M2111 3821 c-9 -15 -6 -22 14 -35 30 -19 41 -21 26 -3 -8 10 -7 17 1
25 9 9 9 12 0 12 -7 0 -12 -4 -12 -10 0 -5 -5 -10 -11 -10 -6 0 -8 9 -4 20 8
25 -1 26 -14 1z"/>
<path d="M2790 3795 c-18 -22 -1 -50 31 -50 20 0 24 5 24 30 0 23 -5 31 -21
33 -11 2 -27 -4 -34 -13z m47 -11 c9 -23 -13 -40 -32 -24 -12 10 -13 16 -4 26
15 18 28 18 36 -2z"/>
<path d="M2076 3764 c-10 -25 -7 -30 20 -43 29 -13 44 -7 43 17 0 11 -3 12 -6
5 -2 -7 -9 -13 -15 -13 -6 0 -8 7 -4 15 3 8 1 15 -4 15 -6 0 -10 -4 -10 -10 0
-5 -4 -10 -9 -10 -5 0 -7 9 -4 20 6 24 -2 27 -11 4z"/>
<path d="M2843 3723 c-29 -20 -29 -33 -1 -33 20 0 21 -1 3 -20 -14 -15 -15
-20 -4 -20 8 0 24 -3 37 -6 13 -4 22 -2 22 5 0 6 -10 11 -22 11 -20 0 -21 1
-3 20 18 19 17 20 -5 20 -22 0 -23 1 -5 20 21 24 9 25 -22 3z"/>
<path d="M2052 3688 c-26 -26 -7 -48 39 -48 16 0 20 6 17 28 -3 30 -34 42 -56
20z m46 -22 c3 -13 -1 -17 -14 -14 -11 2 -20 11 -22 22 -3 13 1 17 14 14 11
-2 20 -11 22 -22z"/>
<path d="M2041 3588 c-16 -26 4 -56 34 -51 16 4 22 12 22 33 0 35 -38 47 -56
18z"/>
<path d="M2864 3602 c-30 -4 -29 -59 1 -65 30 -5 51 27 33 51 -7 9 -22 16 -34
14z"/>
<path d="M2040 3491 c0 -6 10 -11 22 -11 20 0 21 -1 3 -20 -18 -19 -17 -20 5
-20 22 0 23 -1 5 -20 -22 -24 -13 -26 20 -4 31 20 32 34 3 34 -20 0 -21 1 -3
20 14 15 15 20 4 20 -8 0 -24 3 -36 6 -14 4 -23 2 -23 -5z"/>
<path d="M2832 3473 c2 -22 8 -28 27 -28 31 0 52 31 31 45 -8 5 -25 10 -38 10
-20 0 -23 -4 -20 -27z m46 -7 c3 -13 -1 -17 -14 -14 -11 2 -20 11 -22 22 -3
13 1 17 14 14 11 -2 20 -11 22 -22z"/>
<path d="M2803 3415 c-3 -9 -3 -19 1 -22 3 -4 6 -1 6 5 0 7 5 12 11 12 6 0 9
-7 5 -15 -3 -8 -1 -15 4 -15 6 0 10 5 10 10 0 6 4 10 9 10 5 0 7 -10 4 -22 -4
-19 -3 -20 6 -8 17 23 13 36 -14 48 -33 15 -34 15 -42 -3z"/>
<path d="M2094 3386 c-11 -28 1 -51 25 -51 32 0 49 28 32 49 -17 20 -50 21
-57 2z m45 -10 c9 -10 8 -16 -4 -26 -19 -16 -41 1 -32 24 8 20 21 20 36 2z"/>
<path d="M2788 3358 c8 -8 9 -15 1 -25 -8 -9 -8 -13 0 -13 6 0 11 5 11 10 0 6
5 10 11 10 6 0 8 -9 4 -22 -6 -23 -6 -23 10 -3 14 18 14 21 -7 37 -26 20 -48
24 -30 6z"/>
<path d="M2170 3330 c0 -6 5 -10 10 -10 16 0 12 -30 -5 -37 -9 -3 -22 3 -31
13 -9 12 -14 13 -12 5 6 -21 33 -35 52 -28 20 8 21 53 1 61 -8 3 -15 1 -15 -4z"/>
<path d="M2214 3260 c5 -28 -6 -42 -17 -20 -3 6 -4 5 -3 -2 3 -15 42 -18 39
-3 -1 6 -5 19 -9 30 -7 20 -7 20 14 1 23 -20 31 -9 10 12 -23 23 -41 14 -34
-18z"/>
<path d="M2690 3275 c-7 -9 -10 -19 -6 -23 4 -4 12 1 17 10 11 19 39 13 39 -8
0 -7 -8 -18 -17 -24 -16 -10 -16 -10 2 -8 12 2 21 12 23 27 6 37 -34 55 -58
26z"/>
<path d="M2262 3238 c-30 -30 3 -77 40 -57 30 16 16 69 -17 69 -6 0 -16 -5
-23 -12z m46 -25 c5 -17 -26 -29 -40 -15 -6 6 -7 15 -3 22 9 14 37 9 43 -7z"/>
<path d="M2630 3232 c-33 -26 -5 -71 34 -56 29 11 29 57 1 68 -8 3 -24 -3 -35
-12z m40 -22 c0 -13 -7 -20 -20 -20 -13 0 -20 7 -20 20 0 13 7 20 20 20 13 0
20 -7 20 -20z"/>
<path d="M2337 3207 c-4 -10 -7 -28 -7 -39 0 -17 2 -18 15 -8 13 11 18 10 29
-5 12 -17 14 -16 24 13 7 19 7 32 1 32 -5 0 -9 -4 -9 -9 0 -16 -39 0 -42 18
-3 14 -4 14 -11 -2z"/>
<path d="M2580 3201 c0 -23 -1 -23 -18 -8 -10 10 -21 15 -24 12 -8 -8 3 -54
15 -62 6 -4 8 2 4 16 -5 21 -5 22 19 6 23 -15 24 -14 24 7 0 13 -5 30 -10 38
-8 12 -10 10 -10 -9z"/>
<path d="M2437 3175 c-5 -30 25 -50 51 -34 29 18 17 56 -18 56 -21 0 -29 -6
-33 -22z"/>
<path d="M5297 3922 c-25 -10 -57 -62 -57 -93 0 -37 38 -69 83 -69 51 0 55 17
8 30 -44 12 -59 26 -43 42 7 7 23 3 52 -13 46 -26 60 -19 60 34 0 26 -30 67
-49 67 -5 0 -15 2 -23 4 -7 3 -21 1 -31 -2z m51 -44 c16 -16 15 -28 0 -28 -22
0 -41 17 -34 29 9 14 19 14 34 -1z"/>
<path d="M5457 3903 c-13 -13 -7 -32 13 -38 19 -6 19 -8 -10 -65 -37 -73 -37
-93 -2 -118 47 -33 51 -33 62 -12 9 17 7 22 -15 32 -14 6 -25 17 -25 24 0 7
16 43 36 78 l35 65 -33 21 c-35 21 -50 24 -61 13z"/>
<path d="M5673 3794 c-5 -15 11 -33 30 -34 15 0 20 32 6 41 -20 13 -29 11 -36
-7z"/>
<path d="M5605 3763 c-4 -12 0 -22 14 -31 19 -13 19 -15 4 -47 -14 -29 -19
-32 -35 -24 -11 6 -26 8 -34 5 -29 -11 -12 -33 46 -61 48 -23 63 -26 73 -16 9
10 8 15 -8 27 -19 14 -19 15 7 67 l26 53 -39 22 c-46 26 -45 26 -54 5z"/>
<path d="M5907 3599 c-22 -13 -47 -62 -47 -93 0 -34 36 -66 76 -66 40 0 52 15
24 30 -11 6 -20 8 -20 5 0 -3 -9 -1 -20 5 -11 6 -20 17 -20 25 0 19 3 19 52
-6 40 -20 42 -21 55 -3 19 27 16 58 -9 82 -29 26 -67 35 -91 21z m63 -44 c18
-22 4 -30 -27 -16 -22 10 -24 14 -12 22 19 12 25 11 39 -6z"/>
<path d="M5671 3541 c-10 -18 -4 -23 54 -54 62 -33 66 -34 75 -16 8 14 6 21
-12 30 -13 6 -42 23 -65 36 -41 24 -42 24 -52 4z"/>
<path d="M6066 3533 c-13 -14 -5 -33 22 -47 l27 -14 -30 -11 c-51 -18 -80 -36
-83 -52 -3 -16 103 -73 119 -64 18 12 8 32 -23 47 l-32 15 52 17 c29 10 57 26
62 37 9 16 3 22 -49 48 -32 17 -61 27 -65 24z"/>
<path d="M6247 3493 c-15 -14 -5 -31 24 -43 l31 -13 -30 -12 c-37 -16 -47 -41
-22 -55 23 -13 26 -33 6 -49 -11 -10 -21 -5 -48 21 l-33 32 -3 -29 c-6 -51 67
-91 112 -62 32 21 41 63 21 93 -15 23 -14 24 8 24 25 0 47 17 47 37 0 7 -22
24 -50 38 -55 28 -54 28 -63 18z"/>
<path d="M6346 3308 c-31 -56 -36 -72 -25 -79 25 -16 34 -10 59 39 28 52 53
62 58 20 3 -28 29 -45 45 -29 26 26 -2 90 -41 91 -7 0 -23 7 -35 15 -21 14
-23 12 -61 -57z"/>
<path d="M5810 2309 c-119 -20 -242 -103 -310 -208 -16 -26 -30 -51 -30 -54 0
-4 187 -7 415 -7 228 0 415 3 415 8 0 4 -13 30 -30 58 -57 100 -183 184 -306
204 -67 11 -78 11 -154 -1z m-42 -89 c-19 -26 -28 -30 -67 -30 -44 0 -45 1
-24 15 28 19 84 44 101 45 8 0 5 -11 -10 -30z m102 0 c0 -28 -3 -30 -37 -30
l-37 0 29 30 c16 17 32 30 37 30 4 0 8 -13 8 -30z m86 -1 l29 -31 -34 4 c-30
3 -35 7 -36 31 -1 34 5 34 41 -4z m117 4 l52 -28 -39 -3 c-33 -3 -44 2 -70 27
-40 40 -16 42 57 4z m-373 -87 c0 -3 -4 -16 -10 -30 -9 -24 -14 -26 -70 -26
l-61 0 18 30 c16 27 22 30 70 30 29 0 53 -2 53 -4z m168 -23 c-3 -26 -7 -28
-52 -31 -68 -4 -79 1 -64 33 10 22 17 25 65 25 53 0 54 -1 51 -27z m162 8 c19
-37 13 -42 -52 -39 -60 3 -63 4 -66 31 -3 27 -2 27 52 27 44 0 57 -4 66 -19z
m174 -6 c9 -13 16 -27 16 -30 0 -3 -26 -5 -58 -5 -53 0 -60 2 -70 25 -7 14
-12 28 -12 30 0 3 24 5 54 5 46 0 56 -4 70 -25z"/>
<path d="M3038 2135 c-86 -51 -98 -65 -98 -125 0 -41 0 -41 -22 -26 -37 26
-67 19 -109 -23 -33 -32 -39 -45 -39 -80 l0 -41 -363 0 -364 0 -21 -23 c-20
-22 -22 -33 -22 -159 0 -75 3 -144 6 -153 16 -42 46 -45 414 -45 l350 0 0 -33
c0 -41 66 -117 102 -117 36 0 137 67 144 96 4 16 30 38 78 68 l72 43 65 -38
c35 -21 71 -51 80 -66 23 -42 104 -93 148 -93 47 0 99 49 108 103 l6 37 329 0
c345 0 376 4 392 45 3 9 6 79 6 156 0 126 -2 141 -20 159 -19 19 -33 20 -365
20 l-345 0 0 35 c0 26 -9 45 -36 75 -44 48 -71 57 -113 36 l-31 -17 0 48 c0
27 -4 53 -8 60 -4 6 -42 32 -85 57 -107 63 -151 64 -259 1z m55 -150 l67 -39
0 -68 c0 -37 -2 -68 -5 -68 -2 0 -19 9 -37 20 -40 24 -48 25 -48 3 0 -10 20
-30 45 -46 32 -21 45 -35 45 -52 0 -23 -3 -22 -75 22 l-75 46 0 69 0 70 45
-26 c43 -26 45 -26 45 -7 0 12 -17 32 -45 51 -28 20 -45 38 -45 51 0 24 -2 25
83 -26z m-213 -120 c21 -11 30 -23 30 -40 0 -21 16 -34 100 -82 54 -32 99 -61
100 -65 0 -4 -9 -9 -19 -13 -13 -4 -45 10 -94 40 -83 50 -87 51 -87 30 0 -18
-16 -20 -26 -3 -4 7 -3 8 4 4 7 -4 12 -1 12 8 0 21 24 20 55 0 14 -9 25 -14
25 -10 0 3 -18 17 -40 31 -27 17 -40 32 -40 48 0 12 -9 28 -21 35 -29 18 -38
5 -10 -14 28 -20 27 -71 -1 -66 -10 2 -18 -2 -18 -8 0 -5 6 -10 13 -11 10 0
10 -2 0 -6 -7 -2 -13 -12 -13 -20 0 -13 -9 -15 -57 -9 -108 12 -107 12 -111
-7 -3 -17 3 -18 82 -11 l86 7 0 -31 0 -31 -82 -3 -83 -3 -3 -47 c-3 -46 -5
-48 -33 -48 l-29 0 0 115 0 115 110 0 c95 0 110 2 110 16 0 14 3 14 15 4 13
-11 15 -9 15 13 0 14 -7 27 -15 31 -8 3 -15 15 -15 26 0 24 3 24 40 5z m528
-7 c13 -13 17 -48 6 -48 -10 0 -33 33 -34 48 0 15 12 16 28 0z m-1266 -150 c4
-177 6 -168 -38 -168 l-34 0 0 115 0 115 35 0 35 0 2 -62z m98 47 c0 -8 7 -15
15 -15 8 0 15 -6 15 -14 0 -7 9 -16 20 -19 16 -4 20 -14 20 -52 0 -38 -4 -48
-20 -52 -11 -3 -20 -12 -20 -19 0 -8 -7 -14 -15 -14 -8 0 -15 -7 -15 -15 0
-11 -11 -15 -42 -15 l-43 0 1 42 c1 39 4 43 28 46 20 3 26 9 26 29 0 16 -7 27
-20 30 -16 4 -20 14 -20 44 0 38 1 39 35 39 24 0 35 -5 35 -15z m338 -17 l-3
-32 -78 0 c-64 -1 -74 -3 -60 -13 9 -7 35 -13 57 -13 60 0 87 -10 84 -29 -3
-13 -17 -16 -69 -17 -36 0 -71 -4 -77 -8 -26 -16 2 -26 74 -26 l74 0 0 -30 0
-30 -115 0 -115 0 0 115 0 115 116 0 115 0 -3 -32z m1072 18 c0 -7 9 -16 20
-19 13 -3 20 -14 20 -29 0 -23 -6 -26 -72 -37 -40 -7 -77 -14 -83 -16 -14 -4
30 -13 98 -20 53 -6 57 -8 57 -32 0 -16 -7 -27 -20 -30 -11 -3 -20 -12 -20
-19 0 -11 -16 -14 -65 -14 -51 0 -65 3 -65 15 0 8 -5 15 -11 15 -7 0 -22 11
-35 26 -28 29 -35 114 -10 114 8 0 16 7 20 15 3 8 12 15 21 15 8 0 15 7 15 15
0 12 14 15 65 15 49 0 65 -3 65 -14z m270 0 c0 -7 9 -16 20 -19 18 -5 20 -14
20 -86 0 -66 -3 -81 -15 -81 -9 0 -18 -7 -21 -15 -5 -12 -24 -15 -85 -15 -64
0 -79 3 -79 15 0 8 -9 15 -20 15 -18 0 -20 7 -20 81 0 72 2 81 20 86 11 3 20
12 20 19 0 11 19 14 80 14 61 0 80 -3 80 -14z m140 -1 c0 -8 7 -15 15 -15 8 0
15 -7 15 -15 0 -8 7 -15 16 -15 9 0 18 -9 21 -20 3 -11 12 -20 19 -20 10 0 14
14 14 50 l0 50 35 0 35 0 0 -115 0 -116 -72 3 -73 3 1 63 c0 34 -3 62 -8 62
-4 0 -8 -29 -8 -65 l0 -65 -40 0 -40 0 0 115 0 115 35 0 c24 0 35 -5 35 -15z
m-640 -25 c0 -5 -4 -10 -10 -10 -5 0 -10 5 -10 10 0 6 5 10 10 10 6 0 10 -4
10 -10z m-124 -160 c74 -44 84 -47 84 -30 0 25 1 25 44 -1 33 -19 50 -59 26
-59 -5 0 -10 8 -10 18 0 11 -11 24 -24 30 -21 9 -25 8 -28 -8 -3 -16 -13 -13
-86 31 -82 48 -109 59 -97 39 3 -6 -1 -7 -9 -4 -17 7 -20 16 -9 27 12 12 23 8
109 -43z m-21 -25 l20 -16 -20 10 c-11 5 -29 17 -40 26 l-20 16 20 -10 c11 -5
29 -17 40 -26z m-405 -47 c0 -17 -3 -18 -15 -8 -8 7 -15 21 -15 32 0 17 3 18
15 8 8 -7 15 -21 15 -32z m470 6 c0 -2 -9 0 -20 6 -11 6 -20 13 -20 16 0 2 9
0 20 -6 11 -6 20 -13 20 -16z m84 -28 c-4 -18 -1 -27 15 -36 22 -11 30 -55 9
-47 -7 2 -12 11 -10 19 1 9 -4 18 -13 22 -17 6 -21 66 -5 66 6 0 8 -10 4 -24z
m-34 -18 c0 -11 8 -27 18 -35 15 -13 15 -13 -4 -4 -13 6 -23 23 -26 40 -2 17
-1 28 4 25 4 -3 8 -15 8 -26z m-480 12 c0 -5 -2 -10 -4 -10 -3 0 -8 5 -11 10
-3 6 -1 10 4 10 6 0 11 -4 11 -10z m-40 -62 c0 -17 -3 -18 -15 -8 -8 7 -15 21
-15 32 0 17 3 18 15 8 8 -7 15 -21 15 -32z"/>
<path d="M3812 1694 c-27 -18 -29 -55 -4 -77 35 -32 82 -10 82 38 0 20 -32 55
-50 55 -3 0 -16 -7 -28 -16z m46 -36 c-6 -18 -28 -21 -28 -4 0 9 7 16 16 16 9
0 14 -5 12 -12z"/>
<path d="M5450 1885 l0 -135 30 0 30 0 0 60 0 60 30 0 30 0 0 -60 0 -60 30 0
30 0 0 135 0 135 -30 0 -30 0 0 -60 0 -60 -30 0 -30 0 0 60 0 60 -30 0 -30 0
0 -135z"/>
<path d="M5700 2005 c0 -8 -7 -15 -15 -15 -12 0 -15 -20 -15 -120 l0 -120 30
0 30 0 0 60 0 60 30 0 30 0 0 -60 0 -60 30 0 30 0 0 120 c0 100 -2 120 -15
120 -8 0 -15 7 -15 15 0 12 -13 15 -60 15 -47 0 -60 -3 -60 -15z m90 -60 c0
-43 -1 -45 -30 -45 -29 0 -30 2 -30 45 0 43 1 45 30 45 29 0 30 -2 30 -45z"/>
<path d="M5920 2005 c0 -8 -7 -15 -15 -15 -12 0 -15 -18 -15 -105 0 -87 3
-105 15 -105 8 0 15 -7 15 -15 0 -12 13 -15 60 -15 47 0 60 3 60 15 0 8 7 15
15 15 8 0 15 7 15 15 0 8 -5 15 -10 15 -6 0 -13 -7 -16 -15 -4 -10 -20 -15
-50 -15 l-44 0 0 105 0 105 44 0 c30 0 46 -5 50 -15 3 -8 10 -15 16 -15 5 0
10 7 10 15 0 8 -7 15 -15 15 -8 0 -15 7 -15 15 0 12 -13 15 -60 15 -47 0 -60
-3 -60 -15z"/>
<path d="M6120 1885 l0 -135 24 0 c22 0 25 5 28 42 3 38 28 69 28 34 0 -9 6
-16 13 -16 14 0 47 -35 47 -50 0 -6 14 -10 30 -10 20 0 30 5 30 15 0 8 -7 15
-15 15 -8 0 -15 7 -15 15 0 8 -7 15 -15 15 -8 0 -15 7 -15 15 0 8 -7 15 -15
15 -8 0 -15 7 -15 15 0 8 -7 15 -15 15 -8 0 -15 7 -15 15 0 8 7 15 15 15 8 0
15 7 15 15 0 8 7 15 15 15 8 0 15 7 15 15 0 8 6 15 13 15 14 0 47 35 47 50 0
6 -13 10 -30 10 -20 0 -30 -5 -30 -15 0 -8 -7 -15 -15 -15 -8 0 -15 -7 -15
-15 0 -8 -7 -15 -15 -15 -8 0 -15 -7 -15 -16 0 -35 -25 -4 -28 34 -3 37 -6 42
-28 42 l-24 0 0 -135z"/>
<path d="M5492 1679 c32 -58 107 -131 171 -168 103 -59 215 -74 335 -46 84 20
135 48 199 107 45 43 103 123 103 142 0 3 -187 6 -416 6 l-415 0 23 -41z m208
-45 c0 -10 -14 -14 -48 -14 -42 0 -51 4 -70 29 l-22 30 53 3 c54 3 87 -15 87
-48z m170 21 c0 -24 -3 -25 -53 -25 -48 0 -55 3 -65 25 l-12 25 65 0 c63 0 65
-1 65 -25z m170 19 c0 -3 -5 -14 -10 -25 -9 -15 -22 -19 -64 -19 -51 0 -53 1
-48 25 4 23 8 25 63 25 33 0 59 -3 59 -6z m174 -6 c-22 -39 -39 -48 -86 -48
-50 0 -56 7 -38 41 9 15 22 19 71 19 45 0 58 -3 53 -12z m-449 -118 c23 -24
25 -30 12 -30 -22 0 -76 23 -102 44 -19 15 -18 15 21 16 32 0 46 -6 69 -30z
m105 -5 c0 -19 -1 -35 -3 -35 -2 0 -18 16 -37 35 l-34 35 37 0 c36 0 37 -1 37
-35z m84 4 l-29 -30 -6 23 c-8 32 -3 38 33 38 l32 0 -30 -31z m156 17 c-15
-19 -98 -51 -107 -42 -3 3 4 17 17 31 17 18 34 25 63 25 33 0 38 -2 27 -14z"/>
<path d="M5570 1546 c0 -2 8 -10 18 -17 15 -13 16 -12 3 4 -13 16 -21 21 -21
13z"/>
<path d="M6189 1533 c-13 -16 -12 -17 4 -4 9 7 17 15 17 17 0 8 -8 3 -21 -13z"/>
<path d="M5640 1496 c0 -3 9 -10 20 -16 11 -6 20 -8 20 -6 0 3 -9 10 -20 16
-11 6 -20 8 -20 6z"/>
<path d="M5788 1433 c7 -3 16 -2 19 1 4 3 -2 6 -13 5 -11 0 -14 -3 -6 -6z"/>
<path d="M5978 1433 c7 -3 16 -2 19 1 4 3 -2 6 -13 5 -11 0 -14 -3 -6 -6z"/>
<path d="M5858 1423 c18 -2 45 -2 60 0 15 2 0 4 -33 4 -33 0 -45 -2 -27 -4z"/>
</g>
</svg>
